<?xml version="1.0" standalone="no"?>
<!DOCTYPE svg PUBLIC "-//W3C//DTD SVG 1.1//EN" "http://www.w3.org/Graphics/SVG/1.1/DTD/svg11.dtd" >
<svg xmlns="http://www.w3.org/2000/svg">
<metadata></metadata>
<defs>
<font id="goudy_oldstyle_fsregular" horiz-adv-x="500" >
<font-face units-per-em="1000" ascent="726" descent="-274" />
<missing-glyph horiz-adv-x="250" />
<glyph unicode="&#xfb01;" horiz-adv-x="528" d="M171 354v-272q0 -39 9.5 -51t45.5 -16q18 -1 18 -10q0 -8 -14 -8q-3 0 -29 2q-10 1 -29 1q-57 0 -83 -2q-14 -2 -18 -2q-13 0 -13 10q0 6 18 12q6 2 14 9t10 14q4 8 4 38v275h-57q-15 0 -15 7q0 11 7 27q3 7 19 7h46q5 69 16.5 109t36.5 78q33 51 83 85.5t90 34.5 q25 0 53.5 -19.5t28.5 -36.5q0 -11 -17 -30.5t-27 -19.5q-7 0 -13 6t-17 24q-10 17 -19.5 22.5t-26.5 5.5q-29 0 -54.5 -17t-40.5 -46q-28 -55 -28 -142q0 -6 2 -54h159q48 0 78 16q16 9 20 9t5 -11t1 -79v-250q0 -40 9 -49.5t53 -14.5q17 -2 17 -12q0 -9 -13 -9q-4 0 -32 2 q-10 2 -65 2q-18 0 -51 -3q-16 -2 -18 -2q-13 0 -13 9q0 7 18 13t24 23q4 8 4 38v213q0 42 -8 53t-37 11h-151z" />
<glyph unicode="&#xfb02;" horiz-adv-x="527" d="M171 354v-272q0 -39 9.5 -51t45.5 -16q18 -1 18 -10q0 -8 -14 -8q-3 0 -29 2q-10 1 -29 1q-57 0 -83 -2q-14 -2 -18 -2q-13 0 -13 10q0 6 18 12q6 2 14 9t10 14q4 8 4 38v275h-57q-15 0 -15 7q0 11 7 27q3 7 19 7h46q6 118 45 187q31 55 74.5 88t84.5 33q20 0 47 -14 l16 6q29 10 29 14l18 10q8 4 10 4q9 0 7 -20l-1 -17v-573q0 -44 12 -66q10 -19 58 -29q14 -1 14 -10q0 -11 -11 -11q-2 0 -12 2l-25 1h-35q-80 0 -87 -2q-18 -2 -19 -2q-13 0 -13 10q0 8 14 12q30 10 34 26q3 9 3 65v430q0 50 -26.5 83t-67.5 33q-49 0 -76.5 -54.5 t-27.5 -153.5q0 -6 2 -52h80q16 0 20 4q7 8 11 10l4 2q8 -4 8 -7q0 -1 -1 -2q-2 -4 -3 -11q-6 -22 -17 -33q-5 -4 -19 -4h-83z" />
<glyph unicode="&#xfb03;" horiz-adv-x="792" d="M171 354v-272q0 -39 9.5 -51t45.5 -16q18 -1 18 -10q0 -8 -14 -8q-3 0 -29 2q-10 1 -29 1q-57 0 -83 -2q-14 -2 -18 -2q-13 0 -13 10q0 6 18 12q6 2 14 9t10 14q4 8 4 38v275h-57q-15 0 -15 7q0 11 7 27q3 7 19 7h46q5 69 15 108.5t33 78.5q34 56 79.5 88.5t90.5 32.5 q41 0 41 -18q0 -17 -13 -52q-4 -11 -12 -11q-5 0 -8 8q-10 25 -52 25q-53 0 -81 -53.5t-28 -154.5q0 -6 2 -52h196q5 69 16.5 109t36.5 78q34 51 84 85.5t90 34.5q25 0 53.5 -19.5t28.5 -36.5q0 -11 -17 -30.5t-27 -19.5q-7 0 -12.5 6t-17.5 24q-10 17 -19.5 22.5t-27.5 5.5 q-29 0 -54.5 -17t-40.5 -46q-28 -55 -28 -142q0 -6 2 -54h159q49 0 79 16q16 9 20 9t5 -11t1 -79v-250q0 -40 9 -49.5t53 -14.5q17 -2 17 -12q0 -9 -13 -9q-2 0 -32 2q-10 2 -65 2q-18 0 -51 -3q-16 -2 -18 -2q-13 0 -13 9q0 7 18 13t24 23q4 8 4 38v213q0 42 -8 53t-37 11 h-152v-272q0 -39 9.5 -51t45.5 -16q18 -1 18 -10q0 -8 -14 -8q-3 0 -29 2q-10 1 -29 1q-57 0 -83 -2q-16 -2 -18 -2q-13 0 -13 10q0 6 18 12q6 2 14 9t10 14q4 8 4 38v275h-196z" />
<glyph unicode="&#xfb04;" horiz-adv-x="791" d="M171 354v-272q0 -39 9.5 -51t45.5 -16q18 -1 18 -10q0 -8 -14 -8q-3 0 -29 2q-10 1 -29 1q-57 0 -83 -2q-14 -2 -18 -2q-13 0 -13 10q0 6 18 12q6 2 14 9t10 14q4 8 4 38v275h-57q-15 0 -15 7q0 11 7 27q3 7 19 7h46q5 69 15 108.5t33 78.5q34 56 79.5 88.5t90.5 32.5 q41 0 41 -18q0 -17 -13 -52q-4 -11 -12 -11q-5 0 -8 8q-10 25 -52 25q-53 0 -81 -53.5t-28 -154.5q0 -6 2 -52h196q4 68 13.5 108.5t31.5 78.5q31 55 75 88t85 33q20 0 47 -14q25 10 34 14q3 1 29 16q8 4 10 4q9 0 7 -20l-1 -17v-573q0 -44 12 -66q10 -19 58 -29 q14 -1 14 -10q0 -11 -11 -11q-2 0 -12 2l-25 1h-35q-79 0 -87 -2q-18 -2 -19 -2q-13 0 -13 10q0 8 14 12q30 10 34 26q3 9 3 65v430q0 50 -26.5 83t-67.5 33q-50 0 -77.5 -54.5t-27.5 -153.5q0 -6 2 -52h80q16 0 20 4q7 8 11 10l4 2q8 -5 8 -7q0 -1 -1 -2q-2 -4 -3 -11 q-5 -21 -17 -33q-4 -4 -19 -4h-83v-272q0 -39 9.5 -51t46.5 -16q18 -1 18 -10q0 -8 -14 -8q-2 0 -30 2q-10 1 -28 1q-58 0 -84 -2q-14 -2 -18 -2q-13 0 -13 10q0 6 18 12q6 2 14 9t10 14q4 8 4 38v275h-196z" />
<glyph horiz-adv-x="0" />
<glyph horiz-adv-x="333" />
<glyph unicode=" "  horiz-adv-x="250" />
<glyph unicode="&#x09;" horiz-adv-x="250" />
<glyph unicode="&#xa0;" horiz-adv-x="250" />
<glyph unicode="!" horiz-adv-x="246" d="M125 221q-11 0 -12 42q-3 45 -7 91q-7 81 -14 198q-4 81 -6 83q-1 6 -1 14q0 31 57 31q25 0 25 -24q0 -8 -1 -14q-2 -6 -6 -80q-14 -202 -16 -219q-5 -55 -5 -70q-3 -52 -14 -52zM60 51q0 7 17 17q16 9 29 29q11 18 20 18q8 0 19 -18q4 -10 25 -25q19 -14 19 -23 q0 -7 -18 -19q-21 -15 -33 -36q-5 -8 -14 -8q-7 0 -21 18q-9 15 -26 26t-17 21z" />
<glyph unicode="&#x22;" horiz-adv-x="301" d="M257 586l-24 -160q-3 -16 -13 -16t-12 16l-24 161q-4 28 -4 46q0 21 11.5 34t29.5 13t29 -13.5t11 -35.5q0 -13 -4 -45zM117 586l-24 -160q-3 -16 -13 -16t-12 16l-24 161q-4 28 -4 46q0 21 11.5 34t29.5 13t29 -13.5t11 -35.5q0 -13 -4 -45z" />
<glyph unicode="#" d="M168 216l-16 -136q-2 -14 -2 -15q-1 -10 -4.5 -14t-13.5 -4q-15 0 -15 12q0 4 2 22l17 135h-68l-16 -1q-8 -1 -11 2.5t-3 11.5q0 22 7 34q4 5 31 5h66l16 131h-67q-23 0 -27 1.5t-4 12.5q0 25 8 33q3 5 30 5h67l18 145q2 18 4.5 21t13.5 3q16 0 16 -10v-1q-1 -3 -2 -10 l-18 -148h134l18 145q2 17 5 20.5t14 3.5q15 0 15 -10q0 -7 -1 -11l-18 -148h77q15 0 18 -1.5t3 -9.5q0 -28 -6 -36q-2 -5 -19 -5h-80l-16 -131h77q16 0 19 -1.5t3 -9.5q0 -24 -6 -36q-4 -5 -19 -5h-80l-17 -136q-1 -7 -1 -15q-1 -10 -4.5 -14t-13.5 -4q-16 0 -16 12 q0 2 3 22l17 135h-135zM175 268h134l16 131h-134z" />
<glyph unicode="$" horiz-adv-x="491" d="M220 -101v95q-78 4 -128 32q-54 30 -54 54q0 6 2 20l5 32q3 22 12 22q7 0 16 -22q18 -48 59 -78t88 -29v302l-18 5q-49 15 -70.5 26.5t-40.5 33.5q-37 43 -37 103q0 41 19.5 79t53.5 62q36 25 93 34v65q0 17 2 20.5t13 3.5q12 0 14.5 -3t2.5 -18v-68q71 -3 121 -44 q26 -22 26 -36q0 -18 -9.5 -39.5t-17.5 -21.5q-7 0 -13 14q-34 94 -107 97v-242q90 -21 137.5 -72t47.5 -125q0 -81 -51 -138t-134 -68v-96q0 -24 -2 -28.5t-13 -4.5q-13 0 -15 4.5t-2 28.5zM220 408v232q-55 -1 -88 -33.5t-33 -84.5q0 -47 28.5 -74t92.5 -40zM252 28 q63 8 99 46.5t36 95.5q0 70 -51 107q-21 16 -84 39v-288z" />
<glyph unicode="%" horiz-adv-x="840" d="M343 170l-81 -131q-40 -66 -41 -67q-3 -4 -20 -4q-18 0 -18 7q0 3 3 8q4 5 12 18l31 48q8 13 170 274q173 277 204 330q14 25 20.5 30.5t22.5 5.5q12 0 12 -8q0 -11 -42 -72q-22 -33 -94 -152q-7 -11 -90 -144q-8 -13 -40 -64.5t-49 -78.5zM211 318q-77 0 -125.5 50 t-48.5 129q0 71 50 124t118 53q71 0 122 -53.5t51 -127.5t-48 -124.5t-119 -50.5zM222 342q40 0 63.5 37t23.5 99q0 71 -33 121t-79 50q-38 0 -64 -38t-26 -95q0 -72 34 -123t81 -51zM463 173q0 71 50 124t118 53q71 0 122 -53.5t51 -127.5t-48 -124.5t-119 -50.5 q-77 0 -125.5 50t-48.5 129zM533 192q0 -72 34 -123t81 -51q40 0 63.5 37t23.5 99q0 70 -32.5 120.5t-78.5 50.5q-39 0 -65 -38t-26 -95z" />
<glyph unicode="&#x26;" horiz-adv-x="848" d="M443 635l5 -90q0 -10 -12 -10q-5 0 -9 12q-17 41 -57.5 72t-79.5 31q-35 0 -60 -21t-25 -49q0 -25 14 -50.5t53 -70.5q22 -26 99.5 -105t100.5 -100q46 -43 93 -83q25 42 25 94q0 59 -33 85q-10 8 -46 15q-14 3 -14 12q0 8 11 8q8 0 13 -1q12 -2 85 -2q28 0 40 2 q10 1 25 1q9 0 9 -9q0 -6 -13 -12q-17 -6 -22.5 -19t-8.5 -50q-8 -87 -44 -145q148 -122 209 -122q7 0 35 7q1 1 3 1q9 0 9 -7q0 -13 -32 -24.5t-66 -11.5q-48 0 -89 19t-115 77q-109 -96 -232 -96q-117 0 -197 70.5t-80 172.5q0 47 18.5 90t51.5 71q32 28 86 40 q-44 58 -44 111q0 57 44.5 93t114.5 36q44 0 99 -24q2 -1 4 -1q3 0 11 6q6 4 9 4q11 0 12 -27zM515 113l-20 17q-55 44 -131.5 121t-121.5 131q-29 36 -51 36q-16 0 -36.5 -14t-34.5 -34q-27 -38 -27 -89q0 -90 77 -159t177 -69q102 0 168 60z" />
<glyph unicode="'" horiz-adv-x="161" d="M117 586l-24 -160q-3 -16 -13 -16t-12 16l-24 161q-4 28 -4 46q0 21 11.5 34t29.5 13t29 -13.5t11 -35.5q0 -13 -4 -45z" />
<glyph unicode="(" horiz-adv-x="278" d="M207 -23q30 -64 46 -86q6 -10 6 -12q0 -6 -13 -6q-15 0 -47 34q-159 165 -159 396q0 101 44 208.5t114 180.5q31 32 34 33q2 1 12 1q14 0 14 -5q0 -4 -7 -11q-60 -64 -96.5 -166t-36.5 -204q0 -173 89 -363z" />
<glyph unicode=")" horiz-adv-x="278" d="M28 -111q60 64 96.5 166t36.5 204q0 175 -89 363q-30 64 -46 86q-6 10 -6 12q0 6 13 6q15 0 47 -34q159 -165 159 -396q0 -101 -44 -208.5t-114 -180.5q-31 -32 -34 -33q-2 -1 -12 -1q-14 0 -14 5q0 4 7 11z" />
<glyph unicode="*" horiz-adv-x="392" d="M194 499l-41 -67q-8 -14 -11 -17t-7 -3q-11 0 -26 13t-15 22q0 8 8 13l61 55q10 10 10 12q0 7 -17 9l-75 11q-28 4 -28 19q0 14 9 31t16 17t18 -7l73 -45q4 -4 10 -4q2 0 3.5 3t0.5 4l-17 88l-2 14q0 16 32 16t32 -16l-2 -14l-16 -84q-2 -11 4 -11q4 0 9 4l73 45 q11 7 18 7t16 -17t9 -31q0 -15 -29 -19l-74 -11q-7 -1 -12 -4t-4 -5q2 -7 9 -12l61 -55q8 -6 8 -13q0 -9 -15.5 -22.5t-25.5 -13.5q-7 0 -18 21l-34 67l-4 6l-1 1q-2 0 -6 -7z" />
<glyph unicode="+" d="M273 308l4 -129q1 -6 1 -14q0 -16 -11 -19q-17 -5 -27 -10q-6 -3 -7 -3q-12 0 -10 24l1 19q2 38 2 49q0 20 -1 42l-1 41l-41 1q-31 0 -33 1h-26q-8 0 -32 -2l-22 -1q-19 -2 -19 11q0 8 11 34q4 10 20 10h12q2 0 130 -4q0 61 -3 118q-1 6 -1 17q0 10 3.5 15.5t18.5 18.5 q8 7 18 7t11.5 -11t1.5 -69v-97h56q89 0 104.5 -1.5t15.5 -9.5q0 -14 -11 -30q-6 -11 -26 -11h-20q-30 0 -49 0.5t-27.5 1.5t-11.5 1h-31z" />
<glyph unicode="," horiz-adv-x="243" d="M57 52q0 8 9 17q21 18 28 27q14 16 21 16q23 0 44 -33.5t21 -71.5q0 -58 -43 -112q-37 -45 -60 -45q-9 0 -9 8q0 4 8 11q17 11 31.5 37t14.5 46q0 31 -19 58q-9 13 -32 26q-14 8 -14 16z" />
<glyph unicode="-" horiz-adv-x="193" d="M13 213l135 46q24 8 34 13q1 0 3 1t3 1q5 0 5 -22q0 -28 -2 -35t-13 -11q-25 -8 -143 -49q-12 -3 -18 -8q-7 -3 -11 -3q-6 0 -6 15q0 45 13 52z" />
<glyph unicode="." horiz-adv-x="243" d="M58 51q0 7 17 17q14 9 29 29q11 18 20 18q8 0 19 -18q5 -12 25 -25q19 -14 19 -23q0 -7 -18 -19q-21 -15 -33 -36q-5 -8 -14 -8q-8 0 -21 18q-9 15 -26 26t-17 21z" />
<glyph unicode="/" horiz-adv-x="479" d="M-9 -61l442 771q6 11 15 11h4l10 -1q14 0 14 -7q0 -1 -18 -33l-448 -782q-7 -12 -10 -14.5t-10 -2.5q-26 0 -26 8q0 4 27 50z" />
<glyph unicode="0" d="M122 41q-89 86 -89 263q0 85 25 166.5t69 137.5q55 72 133 72q91 0 149 -95t58 -242q0 -169 -76 -281q-50 -75 -137 -75q-78 0 -132 54zM140 140q26 -56 62.5 -86t78.5 -30q64 0 101 72t37 198q0 168 -75 267q-49 65 -117 65q-62 0 -99 -66.5t-37 -178.5q0 -134 49 -241z " />
<glyph unicode="1" d="M392 0l-24 1q-48 2 -110 2q-40 0 -68 -2q-30 -2 -36 -2q-17 0 -17 8q0 7 6.5 9.5t35.5 4.5q35 2 47 29q5 10 5 48v423q0 47 -7 59t-35 12q-27 0 -44 -11q-10 -5 -13 -5q-8 0 -8 8q0 18 55 35q62 20 109 60q11 8 14 8t6 -3.5t3 -7.5q0 -9 -4 -21q-4 -32 -4 -67v-478 q0 -52 15 -68q21 -23 77 -21q18 0 18 -11q0 -12 -21 -10z" />
<glyph unicode="2" d="M374 -1l-243 1q-40 -4 -63 -4q-15 0 -15 10q0 4 6 12q118 142 186 275t68 221q0 51 -29.5 82t-78.5 31q-28 0 -64 -16t-56 -36q-16 -18 -23 -18q-2 0 -5.5 4t-3.5 7q0 8 15.5 28t31.5 33q27 23 65 37.5t72 14.5q28 0 58.5 -10.5t48.5 -26.5q19 -16 31.5 -46.5t12.5 -57.5 q0 -77 -87 -226q-62 -105 -125 -195q-22 -29 -22 -36q0 -8 13 -12q32 -8 111 -8q109 0 147 55q10 15 16 15q3 0 6 -3t3 -5q0 -3 -5 -10l-18 -30q-9 -18 -53 -86z" />
<glyph unicode="3" d="M40 47q0 3 3 6t6 3q4 0 30 -17q41 -27 93 -27q39 0 78 20.5t63 52.5q40 55 40 127q0 65 -38 103.5t-102 38.5q-10 0 -14 -1q-8 -1 -16 -1q-11 0 -11 11q0 5 7 8q65 32 101 74.5t36 85.5q0 42 -28 69t-71 27q-26 0 -56.5 -13t-50.5 -33q-10 -11 -15 -11q-9 0 -9 10 q0 18 47 55q58 45 119 45q56 0 94.5 -33t38.5 -82q0 -79 -97 -156l-7 -7q66 0 107 -43.5t41 -113.5q0 -104 -75 -181t-176 -77q-43 0 -90.5 20.5t-47.5 39.5z" />
<glyph unicode="4" d="M70 207q-40 0 -40 17q0 24 153 240q113 160 159 210q12 13 17 13q6 0 7 -6.5t1 -41.5v-371q44 0 56 4.5t28 29.5q4 4 8 4q5 0 8.5 -5t2.5 -9l-21 -76q-4 -7 -9 -8t-30 -1h-24l-19 1v-226l1 -21q1 -10 -3.5 -13t-24.5 -7l-16 -6q-8 -4 -16 -4q-10 0 -10 13l1 14v250h-131 q-14 0 -44 -0.5t-38 -0.5h-16zM97 268h202v287q-28 -35 -45.5 -59.5t-51.5 -75.5t-78 -114z" />
<glyph unicode="5" d="M165 547l-23 -113q52 7 75 7q95 0 152.5 -53.5t57.5 -142.5q0 -103 -79 -182q-75 -76 -182 -76q-42 0 -89.5 14t-47.5 26q0 3 4 6.5t7 3.5q2 0 10 -3q42 -21 99 -21q86 0 143.5 59t57.5 147q0 74 -44 116t-122 42q-26 0 -46 -5q-11 -4 -19 -4q-7 0 -13.5 6t-6.5 13 l51 237q7 32 11 38t19 6h175q26 0 35.5 4t28.5 23q6 6 12 6q8 0 8 -9q0 -7 -16 -41.5t-23 -41.5q-10 -10 -17 -12.5t-27 -2.5h-145q-25 0 -32 -7t-14 -40z" />
<glyph unicode="6" d="M44 256q0 91 43.5 182t120.5 160q40 36 99.5 65t93.5 29q15 0 15 -11q0 -8 -15 -13q-68 -22 -111 -53t-84 -87q-56 -76 -71 -151q0 -3 -3 -20q75 68 146 68q77 0 129.5 -60.5t52.5 -148.5q0 -96 -56.5 -162.5t-138.5 -66.5q-95 0 -158 76.5t-63 192.5zM124 240 q0 -91 46.5 -158t109.5 -67q52 0 85.5 42t33.5 106q0 92 -45.5 156t-111.5 64q-54 0 -86 -38.5t-32 -104.5z" />
<glyph unicode="7" d="M300 666h76q10 1 21 1q14 0 19.5 -5.5t5.5 -20.5q0 -67 -71 -247q-84 -214 -84 -332q0 -41 16 -75q5 -12 5 -15q0 -8 -22 -16.5t-43 -8.5q-20 0 -28 19t-8 66q0 59 23.5 127.5t94.5 219.5q74 156 73 216h-171q-55 0 -78 -14.5t-34 -55.5q-4 -16 -12 -16q-13 0 -13 22 q0 19 22 121q4 17 18 17q13 0 22 -1q15 -2 168 -2z" />
<glyph unicode="8" d="M47 179q0 82 57 136q19 19 65 47q-96 52 -96 145q0 73 52.5 123t129.5 50q73 0 122 -43.5t49 -107.5q0 -49 -29 -88.5t-82 -62.5q137 -62 137 -186q0 -88 -57 -146.5t-143 -58.5q-90 0 -147.5 53.5t-57.5 138.5zM180 436q52 -33 98 -33q42 0 70 31t28 78q0 62 -37 100.5 t-95 38.5q-50 0 -84 -31.5t-34 -78.5q0 -70 54 -105zM225 335l-23 11q-106 -46 -106 -153q0 -71 48.5 -124.5t112.5 -53.5q28 0 57 11.5t46 29.5q36 38 36 99q0 66 -54 114q-32 29 -117 66z" />
<glyph unicode="9" d="M365 302l-22 -16q-61 -46 -122 -46q-76 0 -128.5 60t-52.5 148q0 97 58 164.5t141 67.5q93 0 155 -76t62 -191q0 -78 -32.5 -157.5t-90.5 -143.5q-55 -61 -122 -99t-119 -38q-16 0 -16 11q0 7 6.5 10t33.5 10q74 19 143 94.5t97 168.5zM258 281q55 0 87 39t32 105 q0 93 -46 159t-110 66q-53 0 -86.5 -42t-33.5 -108q0 -91 46 -155t111 -64z" />
<glyph unicode=":" horiz-adv-x="243" d="M122 224q-8 0 -21 18q-9 15 -26 26t-17 21q0 7 17 17q18 11 29 29t20 18q7 0 19 -18q8 -13 25 -25q19 -14 19 -23q0 -7 -18 -19q-22 -17 -33 -36q-5 -8 -14 -8zM58 51q0 7 17 17q18 11 29 29t20 18q8 0 19 -18q6 -13 25 -25q19 -14 19 -23q0 -7 -18 -19q-21 -16 -33 -36 q-5 -8 -14 -8q-8 0 -21 18q-9 15 -26 26t-17 21z" />
<glyph unicode=";" horiz-adv-x="243" d="M119 224q-7 0 -21 18q-9 15 -26 26t-17 21q0 7 17 17q18 11 29 29t20 18q7 0 19 -18q8 -13 25 -25q19 -14 19 -23q0 -7 -18 -19q-22 -17 -33 -36q-5 -8 -14 -8zM56 52q0 8 9 17q21 18 28 27q14 16 21 16q24 0 45 -33.5t21 -71.5q0 -58 -43 -112q-37 -45 -60 -45 q-9 0 -9 8q0 5 9 11q17 11 31 37t14 46q0 31 -19 58q-7 11 -33 26q-14 8 -14 16z" />
<glyph unicode="&#x3c;" d="M43 339v6l413 266v-35l-317 -207l317 -211v-95z" />
<glyph unicode="=" d="M151 369l-57 -1q-6 0 -16 -1t-11 -1q-16 0 -16 10q0 4 11 35q4 12 22 12h13q9 0 76.5 -2.5t78.5 -2.5h122l56 -1q20 0 20 -12q0 -7 -12 -23q-11 -14 -14.5 -16t-15.5 -2q-11 0 -18 1q-17 0 -36 0.5t-29 1t-13 0.5l-84 1q-8 0 -33.5 0.5t-43.5 0.5zM151 249l-57 -1 q-6 0 -16 -1t-11 -1q-16 0 -16 10q0 4 11 35q4 12 22 12h13q9 0 76.5 -2.5t78.5 -2.5h122l56 -1q20 0 20 -12q0 -7 -12 -23q-11 -14 -14.5 -16t-15.5 -2q-11 0 -18 1q-17 0 -36 0.5t-29 1t-13 0.5l-84 1q-8 0 -33.5 0.5t-43.5 0.5z" />
<glyph unicode="&#x3e;" d="M43 63v36l317 206l-317 212v94l413 -276v-6z" />
<glyph unicode="?" horiz-adv-x="295" d="M130 236v-2q0 -8 -7 -8q-10 0 -17.5 22.5t-7.5 51.5q0 44 39 128q29 63 38 89.5t9 50.5q0 30 -23.5 52.5t-54.5 22.5q-28 0 -47 -23q-4 -4 -9 -4q-10 0 -10 9q0 20 32.5 38t66.5 18q51 0 85 -31t34 -78q0 -31 -16 -63t-58 -88q-61 -79 -61 -138q0 -12 7 -47zM52 51 q0 7 17 17q16 9 29 29q11 18 20 18q8 0 19 -18q4 -10 25 -25q19 -14 19 -23q0 -8 -18 -19q-21 -15 -33 -36q-5 -8 -14 -8q-8 0 -21 18q-9 15 -26 26t-17 21z" />
<glyph unicode="@" horiz-adv-x="743" d="M609 -22l13 -32q-104 -46 -228 -46q-166 0 -265 97q-94 92 -94 230q0 151 113.5 258.5t273.5 107.5q132 0 218 -79t86 -200q0 -133 -106 -216q-54 -43 -105 -43q-60 0 -60 78q0 10 1 18q-81 -95 -159 -95q-33 0 -52.5 22.5t-19.5 60.5q0 78 59 167q36 55 80 85t88 30 q21 0 49 -9q11 -3 16 -3q10 0 32 24q8 8 13 8q7 0 7 -8q0 -2 -2 -10q-21 -71 -37.5 -157t-16.5 -122q0 -53 30 -53q49 0 90.5 68.5t41.5 151.5q0 110 -70.5 180t-182.5 70q-132 0 -222.5 -99t-90.5 -243q0 -132 77.5 -209.5t210.5 -77.5q113 0 212 46zM286 161 q0 -27 13.5 -42.5t37.5 -15.5q47 0 92 55q31 36 36 67q9 49 31 126q4 16 4 21q0 10 -15 18.5t-34 8.5q-51 0 -100 -65q-26 -35 -45.5 -86.5t-19.5 -86.5z" />
<glyph unicode="A" horiz-adv-x="667" d="M155 210l-31 -72q-22 -50 -22 -73q0 -21 14 -35q10 -9 43 -16q15 -3 15 -12q0 -8 -13 -8q-11 0 -17 1q-63 4 -101 4q-17 0 -22 -1q-6 0 -12.5 -0.5t-10.5 -1.5h-4q-14 0 -14 9q0 5 3.5 7t23.5 8q26 7 67 99l251 558q7 14 14 14q9 0 14 -14l210 -537q1 -4 8.5 -22.5 t11.5 -28.5q13 -35 32.5 -50.5t57.5 -21.5q15 -3 15 -11q0 -9 -14 -9l-18 1q-30 3 -91 3q-67 0 -85 -4q-14 -2 -16 -2q-12 0 -12 10q0 5 5 7.5t23 6.5q24 5 24 33q0 26 -30 104l-24 64q-10 26 -16 30.5t-33 4.5h-178q-35 0 -44.5 -6t-23.5 -39zM305 544l-95 -212 q-6 -14 -6 -18q0 -8 6 -10.5t29 -2.5h134q23 0 30.5 2.5t7.5 9.5t-5 20l-77 194q-10 26 -16 26q-3 0 -8 -9z" />
<glyph unicode="B" horiz-adv-x="604" d="M72 671l38 -1q24 -1 113 4q36 2 50 2q102 0 160 -37q33 -21 52 -54.5t19 -70.5q0 -50 -32 -90q-11 -14 -18 -20t-36 -25q-7 -5 -7 -7q0 -5 25 -11q57 -15 90.5 -59.5t33.5 -105.5q0 -92 -67 -149t-175 -57q-30 0 -75 4q-49 4 -79 4q-44 0 -62 -2q-22 -3 -33 -3 q-14 0 -14 11q0 7 15 10q36 4 45 31q11 35 11 102v377q0 66 -18 95t-60 32q-20 1 -20 11q0 11 19 11q1 0 10 -1t15 -1zM234 376h81q58 0 90.5 28.5t32.5 79.5q0 32 -14 64t-36 52q-52 47 -132 47q-34 0 -44.5 -9.5t-10.5 -38.5v-197q0 -17 5.5 -21.5t27.5 -4.5zM201 322 v-225q0 -45 8 -55q20 -25 116 -25q76 0 114 34q49 44 49 120q0 50 -23.5 91t-63.5 60q-25 12 -44 15.5t-60 3.5h-69q-18 0 -22.5 -3t-4.5 -16z" />
<glyph unicode="C" horiz-adv-x="710" d="M674 153l-13 -68q-2 -9 -6 -13.5t-21 -14.5q-115 -70 -239 -70q-149 0 -241 76q-53 45 -83.5 114.5t-30.5 148.5q0 153 99.5 253.5t251.5 100.5q101 0 188 -46q31 -17 35 -17t8 4q11 8 15 8q7 0 10 -19l17 -129q0 -10 -9 -10q-6 0 -17 20q-91 161 -250 161 q-124 0 -195 -77.5t-71 -211.5q0 -150 80.5 -247t204.5 -97q84 0 157 47q63 41 85 87q9 18 12.5 22t7.5 4q8 0 8 -9q0 -2 -3 -17z" />
<glyph unicode="D" horiz-adv-x="742" d="M90 667h35q49 0 122 7q29 3 66 3q175 0 274 -78q56 -45 86 -112t30 -146q0 -86 -34.5 -159t-97.5 -119q-43 -32 -101.5 -51t-113.5 -19q-25 0 -46 2q-78 5 -112 5q-61 0 -93 -5q-19 -3 -29 -3q-16 0 -16 12q0 7 14 10q44 10 51 48q2 10 2 69v419q0 50 -16.5 73t-55.5 27 q-16 1 -16 10q0 10 12 10q7 0 39 -3zM202 590v-493q0 -23 2 -29.5t9 -13.5q14 -11 65 -22.5t86 -11.5q44 0 90 14.5t77 37.5q99 73 99 230q0 84 -30 156.5t-83 118.5q-80 70 -204 70q-78 0 -98 -17q-13 -9 -13 -40z" />
<glyph unicode="E" horiz-adv-x="584" d="M201 278v-162q0 -53 13 -66t66 -13q78 0 130 12q51 11 79.5 27.5t47.5 46.5q5 9 12 9q8 0 8 -13q0 -16 -13 -40.5t-31 -44.5q-40 -43 -100 -43q-10 0 -38 2q-93 9 -154 9q-91 0 -121 -6q-18 -3 -26 -3q-5 0 -10 3.5t-5 7.5q0 5 5.5 8t25.5 9q24 10 30 31t6 88v393 q0 64 -11 87q-15 29 -64 32q-14 0 -14 9q0 14 21 14t34 -2q78 -9 159 -9q168 0 219 8q16 2 19 2q7 0 12 -4t4 -10l-1 -12q-6 -36 -6 -68q-3 -43 -16 -43q-6 0 -7.5 4.5t-1.5 23.5q0 44 -31 55q-28 11 -116 11h-77q-30 0 -39 -7.5t-9 -33.5v-196q0 -22 4.5 -27t24.5 -5h75 q75 0 104 13q12 5 16 12.5t10 35.5q3 12 11 12q10 0 10 -13q0 -7 -1 -11q-3 -65 -3 -87q0 -34 3 -59q1 -6 1 -15q0 -12 -9 -12q-7 0 -9.5 4.5t-5.5 20.5q-3 18 -13 32t-21 18q-18 6 -50 6h-107q-24 0 -33 -5t-8 -19z" />
<glyph unicode="F" horiz-adv-x="517" d="M200 282v-161q0 -55 17.5 -79t58.5 -25q17 0 17 -10q0 -11 -16 -11q-3 0 -29 2q-18 2 -84 2q-46 0 -68 -2t-26 -2q-13 0 -13 9q0 8 15 11q24 5 35 16.5t16 35.5q3 18 3 62v401q0 69 -19 97q-9 13 -19.5 17.5t-38.5 6.5q-12 2 -12 10q0 12 20 12q4 0 30 -2q40 -5 151 -5 q190 0 238 10q12 2 16 2q11 0 11 -11q0 -7 -3 -16q-6 -22 -8 -85q0 -23 -12 -23q-8 0 -9 12q-3 45 -20 62q-6 7 -60.5 13t-108.5 6q-56 0 -69 -7t-13 -37v-193q1 -10 1 -20q0 -11 12.5 -14t55.5 -3h17q18 0 37.5 0.5t20.5 0.5q47 1 65 13t26 47q1 12 10 12q8 0 8 -17 q0 -18 -2 -47q0 -4 -0.5 -10t-0.5 -12q0 -64 2 -80q1 -5 1 -13q0 -12 -9 -12q-10 0 -15 24q-5 26 -12 35t-23 13q-30 8 -106 8t-82 -6q-6 -7 -6 -37z" />
<glyph unicode="G" horiz-adv-x="754" d="M667 261v-136q0 -20 1 -36q0 -8 -17 -11t-73 -36q-97 -56 -205 -56q-61 0 -122 21.5t-103 57.5q-51 43 -80 111t-29 144q0 155 100 257.5t251 102.5q90 0 170 -33q29 -11 53 -25q4 -4 9 -4q3 0 20 13q3 3 7 3q8 0 9 -22q1 -65 15 -117q2 -12 2 -15q0 -12 -11 -12 q-6 0 -10 8q-39 79 -117.5 127.5t-167.5 48.5q-109 0 -179 -84.5t-70 -216.5q0 -142 80 -238.5t199 -96.5q114 0 178 81q15 19 15 67v91q0 44 -11 56.5t-54 16.5q-19 1 -19 13q0 9 17 9l51 -1l92 1h12t10.5 0.5t8 1t5.5 0.5h2q12 0 12 -9q0 -8 -15 -12q-22 -5 -29 -18.5 t-7 -51.5z" />
<glyph unicode="H" horiz-adv-x="765" d="M202 293v-159q0 -64 15 -88t60 -29q19 -2 19 -12q0 -11 -14 -11q-4 0 -24 2q-18 3 -99 3q-47 0 -63 -3q-28 -2 -31 -2q-12 0 -12 9q0 7 5.5 9.5t31.5 8.5q28 6 34 56q3 30 3 73v398q0 38 -2 50.5t-10 23.5q-10 16 -21.5 22t-40.5 11q-14 3 -14 11q0 10 13 10q10 0 29 -3 l90 -4q29 -2 64 4q18 2 21 2q14 0 14 -10q0 -7 -13 -12q-24 -6 -33 -12.5t-17 -23.5q-5 -11 -5 -53v-160q0 -28 6 -33.5t36 -5.5h287q24 0 28.5 5t4.5 30v153q0 46 -9 64q-16 28 -52 36q-14 3 -14 11q0 9 12 9t33 -3l67 -3q40 -2 75 3q16 2 18 2q12 0 12 -9q0 -5 -4 -7 t-27 -7q-17 -3 -29 -28q-7 -16 -7 -55v-455q0 -50 11 -65q10 -16 21.5 -21.5t37.5 -9.5q16 -1 16 -11q0 -11 -15 -11q-2 0 -24 2q-18 3 -88 3q-7 0 -35.5 -2.5t-51.5 -2.5h-3q-12 0 -12 9t16 12q32 7 42 27t10 76v179q0 23 -4 27t-30 4h-286q-28 0 -35 -5.5t-7 -28.5z" />
<glyph unicode="I" horiz-adv-x="328" d="M202 524v-365q0 -79 16 -106q10 -17 22.5 -24t39.5 -11q24 -3 24 -12q0 -4 -5 -8t-11 -4q-4 0 -18 2q-27 3 -117 3q-33 0 -63 -3q-18 -2 -23 -2q-14 0 -14 10q0 9 15 12q38 7 48.5 26t10.5 81v418q0 61 -13.5 81t-59.5 29q-16 3 -16 11q0 11 14 11h9q13 0 46 -2t47 -2 q37 0 97 3q4 1 13 1q12 0 12 -10q0 -6 -4.5 -9t-33.5 -13q-20 -8 -28 -34.5t-8 -82.5z" />
<glyph unicode="J" horiz-adv-x="308" d="M-22 -151l4 18q7 31 18 31q8 0 18 -13q19 -22 40 -22q32 0 51 36.5t19 98.5v24q-1 10 -1 19v495q0 42 -3 58t-13 29q-10 12 -20 16.5t-46 11.5q-15 4 -15 13q0 11 18 11q3 0 33 -3q39 -3 82 -3q47 0 86 5h4q10 0 10 -9t-14 -13q-32 -8 -39.5 -29t-7.5 -105v-429 q0 -91 -28 -152q-25 -55 -69.5 -90t-90.5 -35q-14 0 -26 8t-12 18q0 1 2 11z" />
<glyph unicode="K" horiz-adv-x="650" d="M166 -3l-62 -2q-7 0 -13.5 -0.5t-10.5 -0.5l-4 -1q-7 0 -12 3.5t-5 8.5q0 8 14 9q33 4 43.5 30t10.5 104v397q0 60 -13 78t-65 28q-13 3 -13 10q0 10 15 10q10 0 16 -1q24 -3 77 -3h19q8 0 16.5 0.5t14 0.5h6.5q13 1 26 1q5 0 10.5 0.5t8.5 1t4 0.5q12 0 12 -9 q0 -8 -12 -12q-31 -13 -39 -30t-8 -67v-190q0 -11 4 -11q1 0 15 12l211 188q48 43 48 69q0 23 -35 29q-23 4 -23 13q0 10 15 10q8 0 14 -1l90 -4q55 -2 78 2q12 2 15 2q14 0 14 -10q0 -9 -23 -14q-24 -5 -59 -30.5t-110 -92.5l-168 -151q-11 -10 -11 -16q0 -7 12 -20 l255 -266q25 -27 47 -37.5t63 -18.5q11 -3 11 -10q0 -11 -14 -11q-8 0 -13 1q-6 1 -34 1q-43 0 -51 -1q-9 -1 -22 -1q-10 0 -16 4t-21 19l-262 270q-15 16 -21 16q-9 0 -9 -11v-159q0 -33 1.5 -50t5 -31.5t14.5 -20.5t24 -10t39 -9q15 -3 15 -11q0 -9 -11 -9q-5 0 -27 2 q-5 1 -42.5 2t-54.5 0z" />
<glyph unicode="L" horiz-adv-x="545" d="M202 540v-408q0 -62 6 -76q4 -13 19.5 -17t55.5 -4q94 0 161 21.5t87 57.5q8 13 13 13q8 0 8 -9q0 -15 -12.5 -41t-27.5 -41q-40 -43 -126 -43q-16 0 -91 5q-54 4 -98 4q-60 0 -100 -6q-18 -3 -27 -3q-13 0 -13 9q0 8 13 12q37 13 47 34t10 85v415q0 37 -2 48.5t-12 24.5 q-9 13 -19 17.5t-42 11.5q-12 3 -12 10q0 11 18 11q4 0 30 -2q42 -3 80 -3q52 0 76 2q9 1 22 1q11 0 11 -7t-5.5 -10.5t-25.5 -8.5q-25 -6 -34.5 -28.5t-9.5 -74.5z" />
<glyph unicode="M" horiz-adv-x="858" d="M65 -8l-16 -1q-14 0 -14 11q0 8 12 11q33 7 45 27q19 29 22 91q14 290 14 337q0 86 -23 128t-76 52q-15 3 -15 12q0 11 12 11l16 -1q8 -1 33 -1l51 1q9 1 20 1q13 0 19.5 -7t19.5 -35l203 -439q29 -63 33 -63t7 9l240 515q7 16 10.5 19.5t11.5 3.5l24 -1q4 -1 17 -1l48 1 q6 1 15 1t9 -10q0 -7 -4 -9t-27 -8q-24 -6 -34.5 -30t-10.5 -75q0 -36 3 -124l9 -265q3 -90 12 -109.5t54 -26.5q17 -3 21.5 -5t4.5 -8q0 -10 -18 -10q-5 0 -50 4q-26 2 -41 2q-5 0 -21.5 -1t-37 -2t-30.5 -1q-7 -1 -18 -1q-14 0 -14 9q0 8 12 11q29 8 39 25.5t10 58.5 q0 59 -2 83l-13 310q-29 -51 -42 -75l-48 -100q-61 -129 -99 -213q-15 -34 -27 -57l-8 -18q-11 -23 -21 -23q-11 0 -23 24l-23 47l-183 397l-12 -242l-1 -114q-1 -48 13.5 -71.5t46.5 -28.5q30 -5 30 -15q0 -11 -18 -11q-2 0 -54 3q-10 0 -21.5 0.5t-18 1t-9.5 0.5 q-37 0 -64 -5z" />
<glyph unicode="N" horiz-adv-x="740" d="M164 466v-331q0 -59 7 -81q6 -17 18 -24.5t45 -12.5q16 -3 16 -13t-11 -10q-2 0 -14 2q-5 1 -93 5q-36 0 -60 -4q-16 -2 -17 -2q-5 0 -10 3t-5 7q0 7 14 12q31 10 45 24.5t21 41.5q4 19 4 64v317q0 81 -25 127q-28 52 -80 61q-13 1 -13 11t10 10l9 -1l60 -1q9 1 17 1 q13 0 26 -14l449 -509q11 -12 13 -12q4 -1 5 3t1 15v233q0 127 -3.5 164t-17.5 61q-10 16 -24.5 23t-53.5 14q-14 3 -14 13q0 9 14 9l21 -1q72 -4 94 -4q26 0 44 3q15 3 24 3q14 0 14 -11q0 -6 -10 -9q-24 -5 -33.5 -16t-13.5 -37q-2 -22 -2 -35v-53l-1 -32v-315 q0 -36 -0.5 -81t-0.5 -54v-10q0 -29 -15 -29q-6 0 -15 10q-4 5 -7 8l-411 471q-7 8 -12 8q-9 0 -9 -22z" />
<glyph unicode="O" horiz-adv-x="784" d="M163 58q-58 45 -90.5 118.5t-32.5 159.5q0 75 32.5 147.5t85.5 115.5q100 81 240 81q151 0 248.5 -95t97.5 -243q0 -154 -99 -254.5t-251 -100.5q-139 0 -231 71zM216 102q84 -87 196 -87q113 0 186.5 82.5t73.5 209.5q0 145 -88 243t-218 98q-113 0 -181 -75.5 t-68 -201.5q0 -167 99 -269z" />
<glyph unicode="P" horiz-adv-x="529" d="M202 589v-407q0 -90 5 -108q8 -29 25 -41.5t56 -14.5q15 -1 15 -10q0 -12 -17 -12q-2 0 -13 1t-20 1q-90 2 -91 2q-52 0 -76 -3q-21 -3 -29 -3q-12 0 -12 10q0 9 16 12q26 5 39 18t20 44q7 30 7 115v297q0 88 -9 118q-8 27 -32 38q-5 2 -32 6q-13 1 -13 9q0 12 20 12 q6 0 24 -2q27 -5 52 -5q36 0 90 6q24 2 43 2q109 0 173 -48.5t64 -131.5q0 -84 -66 -139q-27 -23 -65 -37t-72 -14q-30 0 -55 7t-25 15q0 6 8 6q3 0 11 -2q17 -3 35 -3q71 0 113.5 38.5t42.5 102.5q0 74 -56 122.5t-142 48.5q-24 0 -30 -13q-4 -7 -4 -37z" />
<glyph unicode="Q" horiz-adv-x="770" d="M518 -49l82 -53q44 -27 70 -27q35 0 71 17q10 5 14 5q9 0 9 -8q0 -9 -17 -21q-53 -36 -119 -36q-59 0 -139 46q-72 42 -166 91q-74 39 -107 39q-30 0 -54.5 -23.5t-31.5 -58.5q-3 -17 -11 -17q-5 0 -8.5 4.5t-3.5 10.5q0 15 11 43.5t22 43.5q21 26 46 36 q-146 113 -146 285q0 75 27 144t74 116q94 92 244 92q153 0 249 -96t96 -250q0 -104 -48.5 -188t-133.5 -126q-42 -21 -99 -32q64 -34 69 -37zM211 110q89 -97 209 -97q52 0 100 22.5t80 61.5q59 71 59 190q0 152 -88 258.5t-213 106.5q-96 0 -162 -63q-36 -35 -57 -93.5 t-21 -122.5q0 -161 93 -263z" />
<glyph unicode="R" horiz-adv-x="656" d="M202 -2h-47q-41 0 -66 -3q-20 -2 -25 -2q-13 0 -13 10q0 7 12 10q21 4 36 16t20 28q8 29 8 102v328q0 97 -9 123q-8 22 -33 32q-6 2 -35 7q-16 3 -16 12q0 10 17 10q2 0 34 -2q22 -2 41 -2q6 0 79 4q25 2 73 2q109 0 163 -41q60 -44 60 -127q0 -110 -121 -170l135 -199 q47 -70 77.5 -95.5t69.5 -24.5q8 0 8 -7t-21.5 -13t-47.5 -6q-44 0 -79 24t-72 80l-122 185l-1 1l-2.5 5l-2.5 5q-7 13 -14.5 16.5t-23.5 3.5h-54q-19 0 -23.5 -3t-4.5 -15v-178q0 -51 19 -72.5t70 -27.5q18 -2 18 -11q0 -10 -15 -10q-4 0 -30 2q-6 3 -62 3zM237 346h55 q64 0 100.5 35t36.5 96q0 35 -15 68t-40 54q-47 40 -122 40q-34 0 -44 -15q-6 -8 -6 -45v-198q0 -23 6 -29t29 -6z" />
<glyph unicode="S" horiz-adv-x="501" d="M73 24q-8 6 -10.5 12.5t-7.5 32.5q0 1 -12 44q-13 48 -13 63q0 14 11 14q5 0 10 -9q22 -65 59 -101q58 -56 145 -56q65 0 111.5 40t46.5 96q0 58 -49 96q-21 15 -121 49q-106 35 -152 82q-46 46 -46 116q0 78 59.5 127.5t153.5 49.5q33 0 52 -4.5t67 -24.5q8 -2 9 -2 q6 0 19 11q2 2 5 2q11 0 12 -24q0 -4 14 -100q3 -15 3 -20q0 -15 -10 -15q-9 0 -16 23q-17 52 -71.5 86.5t-118.5 34.5q-55 0 -90 -31t-35 -80q0 -43 29 -75q20 -23 42 -33t112 -40q180 -60 180 -193q0 -91 -66 -149.5t-168 -58.5q-41 0 -88.5 11.5t-65.5 25.5z" />
<glyph unicode="T" horiz-adv-x="608" d="M340 581v-455q0 -50 4 -65q9 -35 61 -46q17 -3 17 -11q0 -11 -13 -11q-7 0 -25 3q-8 2 -81 2q-58 0 -70 -2q-25 -3 -33 -3q-15 0 -15 10q0 8 17 11q38 5 51 20t13 55q0 8 -1 18v469q0 29 -4 34.5t-25 5.5h-130q-32 0 -52 -11q-22 -14 -32 -65q-4 -19 -13 -19t-9 15 q0 1 1 5.5t2.5 13.5t2.5 17q7 38 7 59q0 22 5 29t21 7h525q29 0 34 -6.5t4 -43.5q0 -21 3 -32q3 -16 3 -25q0 -15 -11 -15q-8 0 -11 15q-8 36 -21.5 46t-54.5 10h-137q-22 0 -27.5 -6t-5.5 -29z" />
<glyph unicode="U" horiz-adv-x="775" d="M671 516v-224q0 -134 -54 -205q-34 -46 -96.5 -73t-135.5 -27q-81 0 -147.5 32.5t-96.5 87.5q-15 26 -25 74t-10 91v249q0 74 -13.5 96.5t-59.5 29.5q-14 3 -14 10q0 12 19 12l33 -1q15 -2 31 -2q67 0 105 2q18 2 24 2q12 0 12 -8q0 -9 -15 -12q-30 -7 -39.5 -25 t-8.5 -65l1 -33v-246q0 -125 39 -180q26 -36 75 -56t110 -20q143 0 197 93q34 60 34 163v232q0 62 -10 93q-8 24 -23 34.5t-44 13.5q-14 1 -14 12q0 9 9 9q2 0 32 -4q21 -3 44 -3l67 1q7 0 14 1t8 1q9 0 9 -9q0 -5 -4 -8t-23 -11q-17 -7 -23.5 -34.5t-6.5 -92.5z" />
<glyph unicode="V" horiz-adv-x="673" d="M333 -4l-248 573q-17 40 -31 55.5t-39 20.5q-26 5 -30.5 7t-4.5 9q0 11 13 9l15 -1l98 -2q27 0 61 2q5 1 13 1q14 0 14 -10q0 -6 -10 -10q-20 -8 -25 -12.5t-5 -17.5q0 -20 21 -68l188 -430q6 -16 12 -16q7 0 26 46l107 254q70 165 70 211q0 15 -7.5 21.5t-29.5 11.5 q-27 5 -27 13q0 10 16 10q9 0 14 -1q34 -2 45 -2q9 0 19 1h63q5 1 11 1q11 0 11 -8q0 -7 -10 -11q-26 -10 -35.5 -23t-31.5 -66l-243 -569q-10 -23 -19 -23q-10 0 -21 24z" />
<glyph unicode="W" horiz-adv-x="967" d="M328 3l-202 482q-44 104 -62.5 128t-65.5 34q-11 2 -11 12q0 12 15 12q7 0 12 -1q25 -3 108 -3q34 0 42 1q28 2 30 2q13 0 13 -12q0 -10 -11 -13q-17 -5 -23.5 -11.5t-6.5 -18.5q0 -22 36 -103l52 -127q65 -160 109 -249l5 -10q5 -11 8 -11q4 0 13 21l84 196 q-4 9 -46.5 109.5t-62.5 144.5q-14 32 -25.5 42t-35.5 13q-39 5 -39 17q0 11 24 11q9 0 16 -1q66 -2 90 -2q19 0 53 2q18 2 22 2q16 0 16 -12q0 -8 -16 -14q-24 -9 -24 -32q0 -15 18 -59l51 -122q7 14 10 23q56 128 56 162q0 13 -7 19t-25 9q-24 4 -24 16q0 10 19 10 q9 0 17 -1q17 -1 52 -1q25 0 47 2q16 2 20 2q15 0 15 -12q0 -8 -17 -13q-20 -7 -29 -19.5t-30 -62.5l-80 -189l98 -231q17 -39 24 -39t68 141q57 133 96 239t39 127q0 13 -9 20t-32 12t-23 16q0 10 14 10h9q9 0 28.5 -1t30.5 -1q43 0 66 3q15 3 23 3q11 0 11 -11 q0 -8 -14 -14q-16 -4 -30 -30.5t-79 -175.5l-121 -280q-61 -141 -74 -167.5t-25 -26.5q-10 0 -21 24l-121 283l-122 -292q-9 -20 -18 -20q-13 0 -28 38z" />
<glyph unicode="X" horiz-adv-x="627" d="M278 265l-49 -74q-17 -23 -49 -69q-38 -55 -38 -78q0 -17 14 -26q5 -2 36 -6q12 -2 12 -11q0 -10 -12 -10q-3 0 -21 2q-25 5 -65 5q-42 0 -74 -4q-8 -1 -20 -1q-16 0 -16 10q0 7 13 10q35 10 53.5 24.5t49.5 58.5l50 71q43 57 74 102q20 30 23 33q13 20 13 26 q0 10 -18 37l-108 159q-56 82 -78 102.5t-62 26.5q-19 3 -19 11q0 10 19 10q23 0 107 -6q9 -1 26 -1q11 0 53 4q5 1 16 1q18 0 18 -11q0 -7 -15 -10q-27 -5 -27 -26q0 -15 21 -47l109 -163q7 -11 11 -14q2 0 11 13l101 143q25 34 30 43t5 20q0 18 -16 26q-3 2 -23 7 q-13 4 -13 12q0 7 11 7q3 0 19 -2q18 -2 76 -2q31 0 49 3q18 2 23 2q13 0 13 -7t-6 -11t-31 -14q-34 -13 -78 -73l-128 -177q-15 -21 -15 -29q0 -5 14 -27l125 -189q56 -84 78 -105.5t54 -26.5q17 -5 17 -12q0 -9 -13 -9q-4 0 -20 2q-24 4 -103 4q-31 0 -59 -5 q-18 -2 -21 -2q-12 0 -12 9q0 8 17 14q28 7 28 29q0 13 -18 41l-128 193q-9 13 -12 13q-5 0 -22 -26z" />
<glyph unicode="Y" horiz-adv-x="585" d="M339 276v-160q0 -69 8.5 -83t54.5 -19q15 -2 15 -11q0 -11 -17 -11q-4 0 -26 2q-16 3 -74 5q-11 1 -47 -0.5t-39 -2.5q-16 -2 -19 -2q-11 0 -11 9q0 10 16 12q44 7 54 24.5t10 86.5v146q0 31 -4.5 45.5t-21.5 41.5l-136 217q-27 43 -46.5 57.5t-61.5 20.5q-14 1 -14 9 q0 11 19 11q5 0 21 -2q39 -3 74 -3q70 0 84 2q24 2 26 2q14 0 14 -10q0 -7 -11 -10q-33 -11 -33 -34q0 -7 1.5 -11.5t8.5 -17t25 -41.5l101 -161q11 -17 16 -17t14 14l71 107q39 60 48.5 79t9.5 34q0 17 -14 28t-47 18q-12 3 -12 11q0 9 11 9q9 0 26 -3q18 -3 65 -3 q43 0 67 2q22 2 26 2q13 0 13 -9q0 -8 -12 -11q-30 -9 -47.5 -27t-56.5 -76l-119 -177q-22 -33 -26 -44.5t-4 -48.5z" />
<glyph unicode="Z" horiz-adv-x="516" d="M438 0h-372q-16 0 -21 2.5t-5 10.5q0 5 5 15l331 573q7 13 7 17q0 6 -3.5 7.5t-17.5 1.5h-123q-60 0 -78 -2t-33 -10t-33.5 -32.5t-24.5 -43.5q-4 -13 -13 -13t-9 11t6 35q4 14 5 36q2 38 8 49t25 10l16 1l163 -1h186q30 0 30 -18q0 -7 -4 -12l-318 -551q-11 -19 -11 -26 q0 -13 17 -16q12 -3 88 -3h78q57 0 87 8.5t52 30.5q26 26 32 26q8 0 8 -8t-37 -78q-7 -14 -13.5 -17t-27.5 -3z" />
<glyph unicode="[" horiz-adv-x="254" d="M67 5v598q0 77 4 98t20 20l15 -1q20 -2 30 -2q5 0 43 2q7 1 20 1q10 0 10 -8q0 -9 -23 -12q-32 -3 -43.5 -20.5t-11.5 -64.5v-577q0 -91 10 -105q15 -27 57 -30q29 -2 29 -11q0 -12 -25 -12h-14q-12 0 -24 0.5t-16 0.5q-2 0 -44 -2q-6 -1 -17 -1t-14.5 5t-3.5 19l-1 3v9 v12v59q-1 10 -1 19z" />
<glyph unicode="\" horiz-adv-x="479" d="M469 -102l-449 782q-17 30 -17 33q0 7 13 7q5 0 10 1h5q9 0 15 -11l442 -771q27 -46 27 -51q0 -6 -11 -6q-7 0 -13 -1h-3q-10 0 -19 17z" />
<glyph unicode="]" horiz-adv-x="254" d="M188 603v-617q-1 -9 -1 -16t1 -12q1 -7 1 -15q0 -7 -1 -16q-2 -14 -1 -24q0 -15 -4 -20t-15 -4q-84 4 -91 4q-29 -3 -33 -3q-5 0 -11 4t-6 8q0 10 30 11q40 3 59 36q8 13 8 60v617q0 47 -11.5 64.5t-42.5 20.5q-24 3 -24 12q0 8 10 8q13 0 20 -1q7 0 15.5 -0.5t13 -1 t7.5 -0.5l26 1q6 0 14.5 1t10.5 1q17 0 21 -20t4 -98z" />
<glyph unicode="^" d="M-24 287l276 413h6l266 -413h-35l-207 317l-211 -317h-95z" />
<glyph unicode="_" d="M0 -88h500v-40h-500v40z" />
<glyph unicode="`" d="M234 485l-61 67q-14 16 -14 22q0 18 19 18q35 0 45 -2q4 -1 6 -4t14 -32q2 -6 9 -19.5t9 -18.5q15 -31 15 -38q0 -11 -8 -11q-6 0 -34 18z" />
<glyph unicode="a" horiz-adv-x="423" d="M334 297v-192q0 -49 13 -67q12 -17 36 -17q5 0 22 4q8 0 8 -8q-1 -8 -23.5 -17t-42.5 -9q-23 0 -39 11t-34 38q-71 -53 -131 -53q-47 0 -74 24.5t-27 66.5q0 56 51.5 87t173.5 49v61q0 50 -15 70q-27 37 -80 37q-67 0 -67 -56q0 -12 7 -35q3 -12 3 -16q0 -9 -9 -9 q-16 0 -44 10q-17 6 -17 21t13 38t29 37q45 38 110 38q37 0 70.5 -14t50.5 -36q16 -22 16 -63zM267 98v98q-62 -6 -110 -30q-50 -24 -50 -76q0 -33 20 -53t52 -20q50 0 76 33q12 15 12 48z" />
<glyph unicode="b" horiz-adv-x="503" d="M147 705v-357q45 36 77 49.5t71 13.5q74 0 122.5 -55t48.5 -140q0 -96 -58 -163t-141 -67q-63 0 -133 48q-7 6 -11 6q-6 0 -21 -27q-14 -27 -20 -27q-3 0 -6 4t-3 8q0 8 3 21q4 14 4 55v488q0 48 -7 67q-3 10 -13.5 18t-21.5 8q-2 0 -22 -2h-3q-9 0 -9 8t16 12 q65 17 109 42q5 4 11 4q7 0 7 -14zM147 290v-153q0 -34 4 -47.5t20 -30.5q46 -49 109 -49q60 0 97.5 45t37.5 118q0 81 -48.5 142t-113.5 61q-54 0 -93 -42q-13 -14 -13 -44z" />
<glyph unicode="c" horiz-adv-x="399" d="M358 375l-1 -15q0 -3 3 -27q1 -3 1 -10q0 -27 -12 -27q-4 0 -13 15q-16 29 -53 49.5t-72 20.5q-47 0 -77.5 -44t-30.5 -112q0 -81 46.5 -138t111.5 -57q30 0 53 9.5t56 34.5q8 6 11 6q8 0 8 -7q0 -12 -30 -37q-58 -49 -136 -49q-81 0 -133.5 56.5t-52.5 144.5 q0 90 63 156t150 66q42 0 75.5 -11t32.5 -24z" />
<glyph unicode="d" horiz-adv-x="522" d="M362 11v49q-30 -27 -53 -43q-46 -30 -98 -30q-74 0 -124 58t-50 145q0 91 60 155.5t146 64.5q60 0 119 -35v194q0 44 -7 60q-13 31 -44 29l-16 -1q-12 0 -12 9q0 10 14 11q55 7 115 46q5 3 10 3t6 -3t1 -17v-609q0 -38 4 -48q9 -19 39 -19q9 0 15 1h5q9 0 9 -9 q0 -10 -18 -12q-85 -8 -95 -18q-10 -5 -15 -5q-11 0 -11 24zM362 119v161q0 43 -22 65q-48 46 -116 46q-57 0 -93.5 -45.5t-36.5 -116.5q0 -81 47.5 -140t113.5 -59q50 0 85 32q22 21 22 57z" />
<glyph unicode="e" horiz-adv-x="419" d="M104 243v-20q0 -78 47 -133t113 -55q52 0 115 47q4 4 8 4q6 0 6 -8q0 -15 -39 -45q-63 -46 -130 -46q-78 0 -132.5 61t-54.5 147t55.5 151t128.5 65q83 0 133 -69q12 -17 24 -45.5t12 -39.5q0 -16 -34 -16q-6 0 -18 0.5t-16 0.5l-34 1h-184zM106 269h165q24 0 31.5 3 t7.5 12q0 29 -22 60q-32 45 -83 45q-40 0 -66.5 -32.5t-32.5 -87.5z" />
<glyph unicode="f" horiz-adv-x="294" d="M171 354v-272q0 -39 9.5 -51t45.5 -16q18 -1 18 -10q0 -8 -14 -8q-3 0 -29 2q-10 1 -29 1q-57 0 -83 -2q-14 -2 -18 -2q-13 0 -13 10q0 6 18 12q6 2 14 9t10 14q4 8 4 38v275h-57q-15 0 -15 7q0 11 7 27q3 7 19 7h46q5 69 15 108.5t33 78.5q34 56 79.5 88.5t90.5 32.5 q41 0 41 -18q0 -17 -13 -52q-4 -11 -12 -11q-5 0 -8 8q-10 25 -52 25q-53 0 -81 -53.5t-28 -154.5q0 -6 2 -52h80q16 0 20 4q7 8 11 10l4 2q8 -4 8 -7q0 -1 -1 -2q-2 -4 -3 -11q-5 -21 -17 -33q-5 -4 -19 -4h-83z" />
<glyph unicode="g" horiz-adv-x="419" d="M90 -14v3q-20 16 -26.5 27t-6.5 28q0 57 57 97q-65 40 -65 119q0 65 42.5 107.5t107.5 42.5q57 0 105 -29q17 -11 24 -11q26 0 54 22q9 7 18 34q2 6 7 6q9 0 9 -12q0 -26 -19 -73q-7 -18 -30 -26q-10 -4 -10 -9q0 -1 2 -9q4 -28 4 -39q0 -59 -45 -100.5t-109 -41.5 q-24 0 -56 6q-12 2 -15 2q-16 0 -30 -17t-14 -36q0 -29 35 -39q20 -6 83 -7q103 -2 134 -19q42 -22 42 -70q0 -56 -56 -95t-137 -39q-77 0 -126 27t-49 70q0 57 70 81zM210 141q40 0 65 31.5t25 82.5q0 60 -28.5 99.5t-71.5 39.5q-37 0 -62.5 -33.5t-25.5 -81.5 q0 -59 28 -98.5t70 -39.5zM66 -87q0 -40 32.5 -62.5t90.5 -22.5q65 0 109.5 26t44.5 64q0 42 -69 45q-132 6 -162 15q-2 -1 -4 -1q-42 -19 -42 -64z" />
<glyph unicode="h" horiz-adv-x="542" d="M160 290v-190q0 -50 11 -64t55 -21q17 -3 17 -12q0 -8 -10 -8q-4 0 -28 2q-12 2 -72 2q-39 0 -58 -3q-10 -1 -24 -1q-11 0 -11 9q0 8 11 11q20 6 26 10t10 13q6 13 6 64v496q0 29 -5 39q-2 6 -10 12.5t-12 6.5l-34 -3q-2 0 -5 3.5t-3 4.5q0 7 12 10q20 6 57.5 21.5 t49.5 22.5q5 4 10 4q3 0 6 -3.5t3 -7.5l-1 -12q-1 -2 -1 -25v-336q63 75 139 75q81 0 126 -69q26 -38 26 -99v-155q0 -38 11.5 -50t52.5 -20q13 -3 13 -11q0 -9 -14 -9t-23 1q-42 2 -62 2q-45 0 -63 -3l-16 -1q-4 0 -8.5 3t-4.5 6q0 5 24 15q14 5 18.5 16t4.5 40v163 q0 59 -31.5 95t-83.5 36q-43 0 -76 -24.5t-33 -55.5z" />
<glyph unicode="i" horiz-adv-x="264" d="M137 509q-10 0 -26 19.5t-16 31.5q0 7 19 31q16 20 27 20t24 -20q16 -26 16 -31q0 -11 -17 -31t-27 -20zM170 329v-249q0 -40 9 -49.5t53 -14.5q17 -2 17 -12q0 -9 -13 -9q-2 0 -32 2q-10 2 -65 2q-18 0 -51 -3q-16 -2 -18 -2q-13 0 -13 9q0 7 18 13t24 23q4 8 4 38v213 q0 41 -8.5 52.5t-37.5 11.5q-12 0 -14 7q-1 4 4 7.5t21 8.5l16 6q8 4 26.5 12t27.5 13l21 11q4 2 5 2q4 0 5 -11.5t1 -80.5z" />
<glyph unicode="j" horiz-adv-x="244" d="M131 509q-10 0 -26 19.5t-16 31.5q0 7 19 31q16 20 27 20t24 -20q16 -25 16 -31q0 -11 -17 -31t-27 -20zM99 -38l2 326q0 2 -2 31q-1 19 -14 26t-45 7q-13 0 -13 8t14 11q67 15 111 45q5 4 11 4t6 -8v-4q-1 -7 -1 -80l-1 -296q0 -99 -36.5 -161.5t-93.5 -62.5 q-19 0 -26 10t-7 38q0 34 18 34q13 0 31 -24q13 -17 23 -17q27 0 24 88z" />
<glyph unicode="k" horiz-adv-x="483" d="M174 2l-81 -1q-29 -4 -43 -4q-9 0 -9 8q0 5 4 7.5t19 7.5q18 6 23.5 22t5.5 61v484q0 39 -17 55q-8 10 -16 12t-33 3q-11 0 -11 8q0 5 4.5 7t30.5 9q44 12 93 35q8 4 10 4q7 0 7 -13v-20q-1 -10 -1 -20v-462l145 126q19 16 19 26q0 17 -37 25q-8 2 -8 9q0 9 12 9 q2 0 26 -2q5 -1 40 -1h15q43 0 52 1q10 1 25 1q10 0 10 -8q0 -9 -20 -13q-38 -7 -58 -23q-2 -2 -15.5 -12.5t-21.5 -15.5l-17 -13l-88 -77q81 -106 117 -147t62 -56t66 -18q12 -2 12 -8q0 -11 -17 -11l-2 1q-2 0 -6 0.5t-8 0.5h-47q-34 0 -37 -1h-11q-9 0 -23 14 q-12 13 -32 34.5t-26.5 28.5t-18.5 20.5t-17 19t-13 15t-14.5 18.5t-14.5 19.5t-20 25.5l-29 -25v-65q0 -51 12 -67t55 -20q14 -1 14 -8q0 -11 -14 -11q-8 0 -31 4q-5 1 -22 1z" />
<glyph unicode="l" horiz-adv-x="254" d="M196 0h-35q-80 0 -87 -2q-18 -2 -19 -2q-13 0 -13 10q0 8 14 12q29 9 34 26q3 9 3 65v488q0 24 -2 33q-2 11 -11.5 18.5t-21.5 7.5q-10 0 -17 -1h-4q-14 0 -14 9q0 6 13 10q68 22 108 45q8 4 10 4q9 0 7 -20l-1 -17v-573q0 -44 12 -66q10 -19 58 -29q14 -1 14 -10 q0 -11 -11 -11q-2 0 -12 2z" />
<glyph unicode="m" horiz-adv-x="786" d="M134 0l-46 -1q-18 -2 -19 -2q-12 0 -12 9q0 4 4 6.5t22 8.5q20 6 20 54v219q0 36 -8 48q-6 10 -13.5 12t-36.5 2q-11 0 -11 7t12 10q70 24 93 38q19 11 24 11q7 0 7 -19v-59q54 66 131 66q40 0 68 -17t51 -56q55 73 138 73q65 0 101.5 -42.5t36.5 -117.5v-158 q0 -38 10 -51q5 -9 21 -16.5t32 -9.5q12 -1 12 -10t-11 -9q-2 0 -16 2q-24 2 -47 2q-67 0 -83 -2q-7 -1 -15 -1q-13 0 -13 10q0 5 8 8q26 10 31 19.5t5 49.5v149q0 61 -24 95q-32 44 -80 44q-35 0 -66 -20.5t-31 -43.5q0 -7 1 -13q3 -16 3 -33v-176q0 -38 12 -52t48 -18 q16 -1 16 -11q0 -8 -14 -8q-10 0 -16 1q-31 3 -44 3q-71 0 -86 -3q-6 -1 -15 -1q-12 0 -12 8q0 6 24 14q13 4 16.5 15.5t3.5 44.5v181q0 52 -26.5 81.5t-73.5 29.5q-43 0 -69.5 -22t-26.5 -59v-210q0 -32 13 -46t48 -19q15 -1 15 -11q0 -8 -13 -8q-2 0 -22 2q-29 3 -77 2z " />
<glyph unicode="n" horiz-adv-x="550" d="M64 -3h-2q-10 0 -10 7q0 5 3.5 7t23.5 9q25 9 25 70v207q0 34 -8.5 47.5t-30.5 12.5l-21 -1q-13 0 -13 9q0 7 12 9q51 14 108 43q7 4 12 4t6.5 -5.5t1.5 -27.5v-56q64 78 137 78q39 0 74 -20.5t55 -54.5q24 -41 24 -123v-117q0 -46 10 -59q11 -13 53 -19q13 -3 13 -10 q0 -13 -17 -11l-18 1q-19 3 -67 2l-74 -2q-9 0 -9 9q0 5 3 6.5t20 6.5q14 4 16.5 14t2.5 60v130q0 64 -24 96q-33 46 -95 46q-51 0 -88 -39q-16 -17 -16 -40v-186q0 -36 2 -47t10 -20q15 -15 57 -18q16 -1 16 -10t-11 -9q-7 0 -25 3q-8 1 -39 1q-86 0 -117 -3z" />
<glyph unicode="o" horiz-adv-x="505" d="M37 197q0 47 22.5 93.5t57.5 73.5q60 46 137 46q89 0 151.5 -62t62.5 -150q0 -90 -62.5 -150.5t-155.5 -60.5t-153 59t-60 151zM106 227q0 -94 47 -156.5t117 -62.5q59 0 94 45t35 121q0 95 -44 156t-113 61q-61 0 -98.5 -45t-37.5 -119z" />
<glyph unicode="p" horiz-adv-x="512" d="M94 -78v365q0 46 -9.5 57t-47.5 13q-14 0 -14 7q0 8 12 11q31 8 69 24t42 23q7 5 8 5q10 0 9 -23l-2 -66q72 72 144 72q73 0 122 -55t49 -136q0 -97 -59.5 -164.5t-144.5 -67.5q-47 0 -111 29v-98q0 -54 14.5 -70.5t61.5 -18.5q15 0 15 -10q0 -9 -17 -9q-12 0 -22 1 l-98 1q-13 0 -28 -1q-5 0 -11.5 -0.5t-15.5 -0.5h-8q-10 0 -10 8t13 11q32 6 37 40q2 11 2 53zM161 285v-166q0 -42 20 -63q38 -43 106 -43q61 0 97 42.5t36 114.5q0 86 -42 141t-107 55q-45 0 -77.5 -23.5t-32.5 -57.5z" />
<glyph unicode="q" horiz-adv-x="518" d="M371 -103v167q-76 -77 -156 -77q-76 0 -127 56.5t-51 139.5q0 49 19.5 96t51.5 79q29 28 71.5 45.5t81.5 17.5q60 0 115 -39q8 -5 12 -5q11 0 23 29q15 29 19 30q8 0 8 -22v-511q0 -41 8.5 -52.5t44.5 -19.5q13 -3 13 -11q0 -9 -14 -9q-11 0 -17 1q-27 1 -66 1 q-36 0 -60 -2q-9 -1 -21 -1q-13 0 -13 9t13 10q27 3 36 16.5t9 51.5zM371 135v164q0 22 -4 32.5t-18 22.5q-50 44 -107 44q-63 0 -103.5 -49t-40.5 -126q0 -80 44.5 -135.5t109.5 -55.5q34 0 64.5 14t44.5 36q10 14 10 53z" />
<glyph unicode="r" horiz-adv-x="347" d="M197 -4l-38 1q-52 0 -73 -3q-3 0 -7.5 -0.5t-7 -1t-3.5 -0.5q-13 0 -13 10q0 8 15 11q22 5 28 18t6 56v193q0 31 -2.5 41.5t-11.5 18.5q-16 13 -57 13q-11 0 -11 9q0 10 18 11q63 12 109 43q8 4 12 4q6 0 8 -5t2 -21v-73q57 89 104 89q12 0 21.5 -5.5t31.5 -24.5 q13 -12 13 -17q0 -8 -16 -28t-23 -20q-4 0 -21 12q-22 14 -41 14q-29 0 -49 -21t-20 -52v-175q0 -45 13 -61q8 -11 18 -14t43 -5q16 -2 16 -10q0 -10 -14 -10q-1 0 -23 2h-4.5t-10.5 0.5t-12 0.5z" />
<glyph unicode="s" horiz-adv-x="338" d="M44 17q-8 1 -9.5 5t-2.5 20v6l-1 37q0 5 -0.5 13.5t-0.5 10.5q0 32 12 32q8 0 11 -15q26 -114 112 -114q35 0 58 21t23 54q0 37 -25 56q-14 11 -73 37q-59 25 -83.5 52t-24.5 67q0 47 38.5 79t93.5 32q45 0 92 -20q8 -3 8 -12v-17q0 -1 0.5 -3.5t1 -8.5t1.5 -12 q1 -5 1 -17q0 -21 -11 -21q-6 0 -10 13q-30 74 -101 74q-29 0 -48 -16.5t-19 -42.5q0 -27 20 -43.5t82 -40.5t85.5 -50.5t23.5 -71.5q0 -55 -40.5 -94.5t-96.5 -39.5q-42 0 -90 23q-12 5 -14 5z" />
<glyph unicode="t" horiz-adv-x="302" d="M151 351v-246q0 -48 14 -62q19 -21 56 -21q30 0 76 23q1 1 4 1q5 0 5 -5q0 -16 -38.5 -35t-72.5 -19q-65 0 -94 44q-18 27 -18 73v247h-44q-13 0 -13 7t13 18q64 56 88 97q12 22 19 22q1 0 4.5 -3.5t3.5 -5.5l-1 -5l-2 -84h104q19 0 33 8q10 6 11 6q5 0 5 -5 q0 -2 -16 -41q-4 -10 -9.5 -12t-26.5 -2h-101z" />
<glyph unicode="u" horiz-adv-x="527" d="M366 42v18q-23 -29 -40 -41q-42 -32 -99 -32q-28 0 -58 11.5t-47 28.5q-43 41 -40 120l1 32v162q0 27 -13 37q-7 7 -35 9q-12 1 -12 9q0 6 4.5 8t23.5 3h2q42 2 74 9q8 2 11 2q8 0 10.5 -5.5t2.5 -25.5l-2 -234q0 -61 29.5 -96t79.5 -35q52 0 87 37q21 22 21 60v3l-1 216 q0 28 -8.5 37.5t-35.5 10.5q-16 0 -16 10q0 8 8.5 10t59.5 4q12 0 38 8q10 2 12 2q10 0 10 -24v-300q0 -47 7 -60t34 -13h8q3 1 7 1q11 0 11 -8t-7.5 -9.5t-51.5 -3.5q-34 -2 -41 -4q-12 -3 -19 -3q-9 0 -12 9t-3 37z" />
<glyph unicode="v" horiz-adv-x="417" d="M185 0l-142 322q-11 25 -22 36.5t-31 20.5q-10 4 -10 9q0 11 15 11q6 0 11 -1q25 -3 98 -3q23 0 32 1q20 2 22 2q11 0 11 -10q0 -4 -4 -6t-21 -5q-33 -5 -33 -26q0 -12 9 -33l107 -247l82 174q25 55 25 92q0 33 -47 41q-13 3 -13 9q0 11 13 11q10 0 18 -1q5 -1 36 -1h18 q47 0 49 2l17 1q12 0 12 -8q0 -5 -3 -7t-18 -7q-21 -10 -38 -46l-159 -332q-5 -12 -16 -12t-18 13z" />
<glyph unicode="w" horiz-adv-x="633" d="M172 -3l-116 299q-14 36 -26 53t-32 25q-12 6 -12 12q0 12 16 10l17 -1q18 -2 35 -2l70 1q9 1 20 1q16 0 16 -9q0 -5 -4 -7.5t-19 -6.5q-23 -7 -23 -29q0 -7 15 -49l82 -222l96 197l-9 25q-17 47 -28 61t-35 21q-12 3 -12 10q0 11 15 11q13 0 21 -1q12 -2 48 -2 q32 0 62 2q6 1 15 1q15 0 15 -10q0 -5 -4.5 -7.5t-21.5 -6.5q-19 -3 -19 -29q0 -12 10 -38l87 -229l52 119q29 67 36 90t7 49q0 19 -11.5 30t-31.5 12q-15 1 -15 10q0 13 14 11l17 -1q20 -2 53 -2q37 0 45 1t18 1q11 0 11 -8t-11 -11q-16 -4 -25 -14t-20 -34l-139 -325 q-8 -18 -24 -18q-14 0 -19 15l-87 230l-112 -233q-5 -12 -21 -12q-13 0 -16 10z" />
<glyph unicode="x" horiz-adv-x="436" d="M3 -5q-10 0 -10 9q0 6 8 9q33 11 56 30.5t74 80.5l52 63l-106 136q-36 46 -75 56q-12 3 -12 10q0 12 23 11l22 -1q34 -2 78 -2q8 0 53 2q10 0 10 -8t-13 -11q-15 -5 -19 -7.5t-4 -8.5q0 -12 20 -38l67 -85l57 68q25 30 25 45q0 11 -6.5 16.5t-25.5 9.5q-16 4 -16 11 q0 9 13 9q2 0 26 -2q9 -1 40 -1q16 0 31 0.5t18 0.5l27 1q12 0 12 -8q0 -7 -13 -11q-42 -9 -86 -63l-84 -100l109 -140q28 -36 40 -45t40 -16q12 -3 12 -11q0 -10 -19 -10q-5 0 -23 2q-30 3 -58 3q-16 0 -36 -2q-22 -3 -34 -3q-14 0 -14 10q0 8 10 9q22 7 22 20q0 9 -15 29 l-78 101l-57 -69q-19 -24 -24 -32t-5 -19q0 -14 8 -20t29 -9q14 -2 14 -10q0 -11 -17 -11q-4 0 -18 2q-18 3 -62 3q-26 0 -63 -4h-3z" />
<glyph unicode="y" horiz-adv-x="391" d="M168 41l-122 284q-12 28 -21.5 38.5t-26.5 15.5q-11 3 -11 9q0 11 17 11q1 0 9 -1t14 -1l43 -1q50 -1 70 2l19 1q12 0 12 -10q0 -9 -26 -13q-29 -4 -29 -23q0 -21 15 -55l96 -228l73 201q12 34 12 58q0 25 -15 38q-7 6 -37 13q-12 3 -12 10q0 9 9 9q12 0 20 -1 q7 -1 37 -1q48 0 59 1q9 1 22 1q10 0 10 -8q0 -7 -11 -11q-20 -8 -26.5 -16t-16.5 -34l-173 -487q-8 -25 -12 -29q-4 -3 -37 -3q-22 0 -27.5 1t-5.5 6q0 4 6 9q35 36 60 81.5t25 74.5q0 16 -19 58z" />
<glyph unicode="z" horiz-adv-x="338" d="M265 0h-209q-19 0 -19 10q0 6 10 21l199 300h-100q-41 0 -55 -6q-23 -11 -29 -32q-6 -16 -13 -16q-9 0 -9 11t4 24q5 17 8 39q5 33 11 41t24 7l99 -2h85q12 0 17 1h8q16 0 16 -14q0 -4 -5 -12l-203 -310h113q57 0 76 43q12 25 20 25t8 -10q0 -6 -8 -30q-8 -20 -14 -41 l-8 -29q-5 -20 -26 -20z" />
<glyph unicode="{" horiz-adv-x="257" d="M77 22v141q0 39 -2.5 52.5t-13.5 32.5q-14 24 -36 41q-8 7 -8 11t8 11q24 19 36 41q11 19 13.5 32.5t2.5 52.5v141q0 65 20 98q12 20 35.5 32.5t48.5 12.5h31q19 0 25 -2t6 -9q0 -9 -18 -12q-28 -5 -40 -12t-23 -23q-20 -29 -20 -100v-139q0 -76 -49 -115q-7 -7 -7 -9 q0 -3 17 -17q39 -31 39 -107v-139q0 -69 18.5 -98.5t67.5 -38.5q15 -3 15 -10t-6 -9t-25 -2h-31q-25 0 -48.5 12.5t-35.5 32.5q-20 33 -20 98z" />
<glyph unicode="|" d="M225 -167v834h50v-834h-50z" />
<glyph unicode="}" horiz-adv-x="257" d="M76 -121h-31q-19 0 -25 2t-6 9q0 9 18 12q28 5 40 12t23 23q20 29 20 100v139q0 76 49 115q7 7 7 9q0 3 -17 17q-39 31 -39 107v139q0 69 -18.5 98.5t-67.5 38.5q-15 3 -15 10t6 9t25 2h31q25 0 48.5 -12.5t35.5 -32.5q20 -33 20 -98v-141q0 -39 2.5 -52.5t13.5 -32.5 q14 -24 36 -41q8 -7 8 -11t-8 -11q-24 -19 -36 -41q-11 -19 -13.5 -32.5t-2.5 -52.5v-141q0 -65 -20 -98q-12 -20 -35.5 -32.5t-48.5 -12.5z" />
<glyph unicode="~" horiz-adv-x="667" d="M136 614l-14 9q60 96 138 96q27 0 92 -22q54 -18 78 -18q56 0 101 55l13 -9q-26 -43 -62.5 -68.5t-73.5 -25.5q-20 0 -63 14q-87 28 -117 28q-26 0 -45 -12t-47 -47z" />
<glyph unicode="&#xa1;" horiz-adv-x="246" d="M126 359q-10 0 -20 18q-10 17 -29 29q-17 9 -17 19q0 8 17 19q14 7 26 26q13 18 21 18q9 0 21 -19q9 -15 26 -25q18 -12 18 -19q0 -9 -19 -23q-21 -15 -25 -25q-11 -18 -19 -18zM92 -75q3 60 14 198l7 91q3 39 8 41q1 1 3 1q12 0 15 -52q0 -13 5 -70q16 -217 16 -219 q4 -69 6 -80q1 -6 1 -15q0 -23 -25 -23q-57 0 -57 31q0 9 1 14q2 6 6 83z" />
<glyph unicode="&#xa2;" horiz-adv-x="429" d="M225 64v77q-73 5 -122.5 62t-49.5 136q0 46 21 95t55 81q38 36 96 51v59q0 15 2 18t15 3q9 0 11 -3t2 -14v-62q7 1 16 1q58 0 93 -19q7 -4 8.5 -9t0.5 -21l1 -3q0 -3 0.5 -9t0.5 -12l1 -21q2 -20 -9 -20q-4 0 -7 3.5t-19 25.5q-31 41 -86 50v-346q21 -3 30 -3 q57 0 108 46q7 6 10 6q6 0 6 -6q0 -10 -19.5 -29t-43.5 -32q-37 -21 -91 -28v-73q0 -17 -2.5 -22t-12.5 -5t-12.5 4t-2.5 19zM225 195v342h-6q-42 0 -71.5 -45t-29.5 -110q0 -63 30 -115t77 -72z" />
<glyph unicode="&#xa3;" horiz-adv-x="493" d="M328 329h-105q15 -45 15 -92q0 -40 -11 -66.5t-43 -65.5q-26 -32 -59 -61q78 23 109 23q20 0 34.5 -5.5t81.5 -40.5q26 -12 48 -12q18 0 29.5 6t40.5 30q5 5 13 5q7 0 7 -7q0 -16 -35 -49q-45 -42 -95 -42q-26 0 -67 19q-89 42 -135 42q-53 0 -92 -17q-12 -5 -18 -5 q-9 0 -9 10q0 13 39 41q99 73 99 146q0 44 -39 141l-71 -2h-33q-4 0 -4.5 1.5t-0.5 9.5v5q0 17 0.5 19.5t4.5 2.5h3q8 -1 90 -1q-16 60 -16 98q0 92 59.5 155t147.5 63q63 0 111 -35t48 -81q0 -21 -13 -34t-33 -13q-22 0 -34.5 16t-12.5 42v17q0 26 -20.5 41t-56.5 15 q-56 0 -92.5 -34.5t-36.5 -87.5q0 -51 37 -162l92 3h20q2 1 6 1q5 0 5 -7q0 -30 -1 -30q0 -2 -7 -2z" />
<glyph unicode="&#xa4;" d="M120 181l-55 -54q-14 -14 -18 -14q-6 0 -11.5 6t-5.5 11q0 4 12 16l56 56q-49 59 -49 131q0 73 49 131l-58 57q-11 11 -11 15t7 11t11 7q3 0 12 -9l60 -60q58 49 130 49q74 0 131 -49l58 57q12 12 15 12q4 0 11 -7t7 -11q0 -3 -9 -12l-60 -61q48 -58 48 -130t-49 -130 l55 -55q14 -14 14 -18q0 -5 -6 -11t-11 -6q-4 0 -16 12l-57 57q-58 -49 -130 -49q-73 0 -130 48zM249 179q64 0 109 45.5t45 108.5t-44.5 108.5t-106.5 45.5q-65 0 -110.5 -44.5t-45.5 -108.5t45 -109.5t108 -45.5z" />
<glyph unicode="&#xa5;" horiz-adv-x="507" d="M288 201v-85q0 -69 7.5 -83t50.5 -19q14 -3 14 -11q0 -11 -16 -11q-4 0 -24 2q-14 3 -68 5q-10 1 -43.5 -0.5t-36.5 -2.5q-16 -2 -18 -2q-10 0 -10 9t15 12q40 6 49.5 24t9.5 87v75q-5 0 -19 0.5t-35 0.5h-19q-23 0 -33 -1t-24 -1q-15 0 -15 7q0 2 4 9l10 20q6 3 15 3h12 q36 0 62 -1t42 -1v34q0 32 -6 51q-15 0 -29.5 0.5t-28.5 0.5h-20q-24 0 -37 -1q-12 -1 -27 -1q-17 0 -17 7q0 2 4 9q11 21 12 21q6 3 17 3h5q5 0 13.5 -0.5t18.5 -1t23.5 -0.5h25.5h22l-113 217q-22 42 -41.5 57.5t-58.5 20.5q-13 1 -13 9q0 11 18 11q5 0 19 -2q34 -3 69 -3 q64 0 78 2q22 2 24 2q13 0 13 -10q0 -7 -10 -10q-31 -11 -31 -34q0 -11 13 -36l100 -196q9 -16 14 -16q7 0 14 14l74 146q33 61 33 76q0 29 -57 44q-11 3 -11 10q0 10 10 10q8 0 24 -3q14 -3 61 -3q54 0 62 1q15 3 24 3q12 0 12 -9q0 -8 -11 -11q-25 -7 -47 -30.5t-50 -72.5 l-104 -188h60q57 0 70.5 -1.5t13.5 -7.5q0 -5 -8 -13l-7 -6q-11 -10 -24 -10h-21q-24 0 -50 1t-28 1h-23q-4 -17 -4 -46v-40h77h23.5t18.5 -0.5t8 -0.5q18 1 18 -8q0 -5 -7 -12l-6 -6q-10 -10 -22 -10h-19q-21 0 -44 1t-26 1h-21z" />
<glyph unicode="&#xa6;" d="M225 334v333h50v-333h-50zM225 153h50v-320h-50v320z" />
<glyph unicode="&#xa7;" d="M39 -28q0 27 6.5 50t14.5 23t15 -23q15 -49 51 -77q45 -37 104 -37q61 0 102.5 31t41.5 77q0 40 -37 61q-15 8 -115 50q-87 37 -119 63q-62 51 -62 126q0 73 64 140q-37 44 -37 91q0 59 49 96.5t127 37.5q75 0 131 -35q47 -30 47 -49q0 -5 -4 -14q-2 -4 -7 -19 q-10 -33 -20 -33q-5 0 -8 5.5t-11 32.5q-11 36 -47 59.5t-79 23.5q-49 0 -82.5 -25t-33.5 -62q0 -30 31 -55q15 -13 33.5 -22t93.5 -40q91 -36 129 -73q45 -45 45 -113t-57 -146q33 -44 33 -80q0 -65 -60 -114t-141 -49q-93 0 -167 55q-20 14 -25.5 22.5t-5.5 21.5zM133 268 q26 -20 104 -53q74 -30 97.5 -42.5t49.5 -33.5q30 43 30 89q0 42 -28 69t-107 60q-109 46 -150 77q-34 -35 -34 -81q0 -53 38 -85z" />
<glyph unicode="&#xa8;" d="M321 480q-9 0 -27 21t-18 32t17 31t27 19t26.5 -20.5t16.5 -30.5q0 -10 -22 -39q-11 -13 -20 -13zM182 480q-9 0 -27 21t-18 32t17 31t27 19t26.5 -20.5t16.5 -30.5q0 -10 -22 -39q-11 -13 -20 -13z" />
<glyph unicode="&#xa9;" horiz-adv-x="760" d="M33 338q0 64 28 129.5t74 111.5q103 101 244 101q145 0 246.5 -101.5t101.5 -244.5t-101.5 -245t-244.5 -102q-146 0 -247 102t-101 249zM70 337q0 -131 90 -222t220 -91q128 0 219 91t91 219t-91 218.5t-220 90.5q-126 0 -217.5 -90.5t-91.5 -215.5zM565 227l-7 -35 q-2 -11 -4 -13.5t-11 -8.5q-69 -44 -150 -44q-98 0 -157.5 56t-59.5 148q0 91 61.5 151.5t153.5 60.5q63 0 114 -28l12 -7q1 0 2.5 -0.5t2.5 -1.5l2 -1q1 0 3 2q7 5 12 5q7 0 9 -14l10 -69v-8q0 -10 -10 -10q-5 0 -13 14q-55 93 -146 93q-73 0 -114.5 -44.5t-41.5 -121.5 q0 -86 47 -142t120 -56q43 0 84 22t58 54q9 18 15 18q9 0 9 -9z" />
<glyph unicode="&#xaa;" horiz-adv-x="281" d="M260 288h1q8 0 8 -8q0 -7 -15 -13t-30 -6q-27 0 -47 28q-44 -30 -81 -30q-31 0 -49 15.5t-18 41.5q0 35 32.5 54t108.5 29v33q0 28 -8 40q-17 20 -48 20q-39 0 -39 -30q0 -6 4 -20q0 -2 1 -5q1 -4 1 -5q0 -9 -9 -9q-17 0 -29.5 6.5t-12.5 15.5q0 10 8.5 24t19.5 23 q30 23 71 23q55 0 79 -31q11 -12 11 -39v-113q0 -26 6 -36t22 -10q2 0 13 2zM170 328v54q-93 -9 -93 -59q0 -17 11.5 -28t29.5 -11q52 0 52 44z" />
<glyph unicode="&#xab;" horiz-adv-x="338" d="M175 157q-26 26 -24 40q1 7 5 14t29 38q43 55 60 95q7 14 16 14q12 0 12 -14q0 -16 -22 -67q-27 -62 -27 -78q0 -13 22 -53q16 -32 25 -53q9 -24 13 -28q7 -14 7 -19q0 -4 -4.5 -8t-9.5 -4q-7 0 -12.5 7t-33.5 49q-22 33 -56 67zM146 103l18 -36q6 -9 6 -16q0 -5 -4 -9 t-9 -4q-6 0 -11 5.5t-28 38.5q-27 40 -54 67q-31 32 -31 47q0 8 4.5 14.5t32.5 40.5q15 18 37.5 51t26.5 44q6 10 12 10q4 0 8 -5t4 -10q0 -16 -36 -95q-18 -41 -18 -50q0 -11 22 -52q4 -7 11 -21.5t9 -19.5z" />
<glyph unicode="&#xac;" d="M36 228v39h428v-267h-89v228h-339z" />
<glyph unicode="&#xad;" horiz-adv-x="193" d="M13 213l135 46q24 8 34 13q1 0 3 1t3 1q5 0 5 -22q0 -28 -2 -35t-13 -11q-25 -8 -143 -49q-12 -3 -18 -8q-7 -3 -11 -3q-6 0 -6 15q0 45 13 52z" />
<glyph unicode="&#xae;" horiz-adv-x="760" d="M33 338q0 64 28 129.5t74 111.5q103 101 244 101q145 0 246.5 -101.5t101.5 -244.5t-101.5 -245t-244.5 -102q-146 0 -247 102t-101 249zM70 337q0 -131 90 -222t220 -91q128 0 219 91t91 219t-91 218.5t-220 90.5q-126 0 -217.5 -90.5t-91.5 -215.5zM242 132l-15 -1 q-12 -1 -12 10q0 8 11 10q23 5 29 19.5t6 61.5v193q0 60 -6 73.5t-37 17.5q-13 2 -13 11q0 10 14 10l21 -1q6 -1 24 -1q19 0 47 2q17 1 45 1q67 0 102 -26.5t35 -76.5q0 -64 -70 -101l78 -113q27 -40 45 -54.5t40 -13.5q9 -2 9 -9q0 -6 -13.5 -10.5t-32.5 -4.5q-51 0 -93 63 l-78 115q-7 10 -19 10h-32q-10 0 -11.5 -0.5t-1.5 -5.5v-90q0 -42 8.5 -54t41.5 -16q14 -2 14 -10q0 -10 -13 -10q-4 0 -18 2l-60 1q-17 0 -45 -2zM331 346h33q36 0 57 19.5t21 53.5q0 40 -28.5 65.5t-72.5 25.5q-18 0 -22.5 -5t-4.5 -26v-116q0 -12 2 -14.5t15 -2.5z" />
<glyph unicode="&#xaf;" d="M186 507l-26 -1q-5 -1 -13 -1t-13 4t-4 9q9 36 10 37q3 6 13 6h8q38 -5 116 -5q7 0 21.5 0.5t24.5 0.5h12q35 0 35 -13q0 -6 -9 -28q-6 -13 -20 -13h-9q-77 7 -146 4z" />
<glyph unicode="&#xb0;" horiz-adv-x="337" d="M170 400q-55 0 -94 39t-39 95q0 55 39.5 94t95.5 39q54 0 93 -39.5t39 -94.5t-39.5 -94t-94.5 -39zM170 444q37 0 63.5 26.5t26.5 63.5q0 36 -26.5 62.5t-61.5 26.5q-38 0 -64.5 -26t-26.5 -63t26 -63.5t63 -26.5z" />
<glyph unicode="&#xb1;" d="M289 302l3 -130q1 -6 1 -14q0 -16 -11 -19q-17 -5 -27 -10q-6 -3 -7 -3q-10 0 -10 24q0 10 1 19q1 20 1 52l-1 81h-41q-25 0 -33 1h-26q-8 0 -32 -2l-22 -1q-19 -2 -19 11q0 7 10 34q5 10 21 10h12q3 0 11 -0.5t25 -0.5t36 -1l58 -2v39q0 3 -1.5 29.5t-1.5 49.5v17 q0 10 3.5 15.5t18.5 18.5q8 7 17 7q10 0 11.5 -10.5t1.5 -68.5v-98l94 1q60 0 71 -1.5t11 -9.5q0 -13 -11 -31q-5 -11 -26 -11q-13 0 -20 1q-72 3 -88 3h-30zM166 22l-57 -1q-6 0 -16 -1t-11 -1q-16 0 -16 10q0 4 11 35q4 12 22 12h13q10 0 76 -2.5t79 -2.5q41 -1 100 -1h78 q20 0 20 -12q0 -6 -12 -22q-10 -13 -14 -15.5t-16 -2.5q-6 0 -49 1q-47 2 -114 2q-21 0 -48.5 0.5t-45.5 0.5z" />
<glyph unicode="&#xb2;" horiz-adv-x="332" d="M142 267h-49q-20 -2 -42 -2q-4 0 -8.5 3t-4.5 6q0 4 21 29q66 77 104.5 150t38.5 121q0 28 -18 46t-47 18q-16 0 -38.5 -9.5t-33.5 -21.5q-13 -11 -17 -11q-2 0 -6 4t-3 5q11 30 46 50.5t74 20.5q40 0 68 -23q12 -11 20.5 -29t8.5 -34q0 -53 -55 -136q-64 -97 -80 -115 q-7 -7 -7 -10q-3 -7 -6 -9l2 -2q0 -3 8 -3q2 0 6 -0.5t11.5 -1t14.5 -0.5q24 -2 31 -2q69 0 92 31q8 11 14 11q2 0 5.5 -3t3.5 -5l-1 -1q-5 -11 -35 -57l-14 -21z" />
<glyph unicode="&#xb3;" horiz-adv-x="332" d="M197 512h-1q-1 -1 -2 -1q41 -4 64.5 -30t23.5 -66q0 -63 -48.5 -109.5t-113.5 -46.5q-29 0 -59.5 13t-30.5 26q0 9 9 9q4 0 20 -11q27 -16 58 -16q46 0 78.5 34t32.5 81q0 37 -23 59t-62 22h-9q-5 -1 -10 -1q-11 0 -11 10q0 5 15 12q33 15 54.5 39.5t21.5 47.5t-16.5 38 t-42.5 15q-36 0 -65 -27q-8 -7 -12 -7q-9 0 -9 10q0 12 31 35q37 27 77 27q37 0 62 -20.5t25 -51.5q0 -22 -16 -47.5t-40 -42.5z" />
<glyph unicode="&#xb4;" d="M327 552l-61 -67q-26 -18 -33 -18q-8 0 -8 11q0 7 15 38q4 8 10 21t8 17l10 25q4 10 11 11.5t44 1.5q19 0 19 -18q0 -6 -15 -22z" />
<glyph unicode="&#xb5;" d="M65 46q0 6 1.5 17.5t1.5 16.5l1 19q1 14 1 26l-1 26l1 28v162q0 27 -13 37q-7 7 -35 9q-12 1 -12 9q0 6 4.5 8t23.5 3h2q42 2 74 9q8 2 11 2q8 0 10.5 -5.5t2.5 -25.5l-2 -234q0 -61 29.5 -96t79.5 -35q52 0 87 37q21 22 21 60v3l-1 216q0 28 -8.5 37.5t-35.5 10.5 q-16 0 -16 10q0 8 8.5 10t59.5 4q12 0 38 8q10 2 12 2q10 0 10 -24v-300q0 -47 7 -60t34 -13h8q3 1 7 1q11 0 11 -8t-7.5 -9.5t-51.5 -3.5q-34 -2 -41 -4q-12 -3 -19 -3q-9 0 -12 9t-3 37v18q-23 -29 -40 -41q-42 -32 -98 -32q-52 0 -97 32q3 -37 6 -80.5t4.5 -65.5t2.5 -38 q1 -6 1 -14q0 -24 -25 -24q-57 0 -57 31q0 9 1 14q3 18 6 83z" />
<glyph unicode="&#xb6;" horiz-adv-x="528" d="M277 609v-703q0 -13 -6 -17t-28 -4q-32 0 -52 -2q-22 -2 -28 -2q-16 0 -16 10q0 9 15 12q38 7 48.5 26t10.5 81v354q0 13 -11 13l-27 -1q-21 -1 -54 12t-54 29q-24 19 -39.5 53.5t-15.5 68.5q0 69 47 106q35 27 107 27q15 0 24 -1q41 -4 54 -4q1 0 15 0.5t28 0.5l152 4 q6 1 14 1q12 0 12 -10q0 -6 -5.5 -9.5t-32.5 -13.5q-20 -8 -28 -34t-8 -81v-479q0 -79 16 -107q10 -16 22.5 -23t39.5 -11q24 -3 24 -12q0 -12 -17 -12q-5 0 -19 2t-59 2q-46 0 -54.5 2.5t-8.5 18.5v703q0 25 -35 25q-31 0 -31 -25z" />
<glyph unicode="&#xb7;" horiz-adv-x="255" d="M128 145q-9 0 -23 20q-9 15 -28 28q-13 8 -16 12t-3 11q0 8 18 19q19 11 32 32q7 10 9.5 13t5 4.5t7.5 1.5q6 0 9.5 -3t10.5 -17q9 -14 28 -27q21 -15 21 -25q0 -8 -20 -21q-22 -16 -36 -39q-5 -9 -15 -9z" />
<glyph unicode="&#xb8;" d="M228 -102q0 9 17 19q7 4 14 14q7 9 16 10q7 1 20 -9t20 -23q12 -21 12 -41q0 -35 -30 -60q-36 -31 -61 -31q-10 0 -10 9q0 6 10 10q35 15 35 47q0 27 -30 41q-13 7 -13 14z" />
<glyph unicode="&#xb9;" horiz-adv-x="332" d="M174 269l-45 -1q-6 0 -14 -1t-9 -1q-14 0 -14 8q0 7 5 8.5t25 3.5q17 1 23 9.5t6 32.5v250q0 26 -4 32t-20 6q-15 0 -30 -8q-2 -1 -6 -1q-8 0 -8 8q0 13 37 24q38 11 68 34q6 6 11 6q9 0 9 -10q0 -1 -2 -13q-3 -15 -3 -39v-282q0 -31 10 -40t45 -9q14 0 14 -9 q0 -10 -16 -10q-9 0 -15 1q-26 2 -67 1z" />
<glyph unicode="&#xba;" horiz-adv-x="335" d="M166 259q-61 0 -99.5 35.5t-38.5 91.5q0 53 41 91t99 38q57 0 97.5 -37.5t40.5 -90.5q0 -55 -40.5 -91.5t-99.5 -36.5zM178 278q36 0 57 25.5t21 68.5q0 56 -26.5 90.5t-69.5 34.5q-37 0 -59.5 -25.5t-22.5 -67.5q0 -54 28.5 -90t71.5 -36z" />
<glyph unicode="&#xbb;" horiz-adv-x="338" d="M47 46q0 5 7 19q10 19 13 28q13 31 25 53q22 40 22 54q0 15 -27 78q-22 52 -22 66t12 14q9 0 16 -14q25 -52 83 -125q9 -11 11 -23t-25 -39q-34 -36 -74 -96q-18 -27 -27 -27q-5 0 -9.5 4t-4.5 8zM174 67l18 36q12 26 20 41q22 42 22 52q0 11 -18 49q-14 32 -31 76 q-5 13 -5 20q0 5 4 10t9 5t11 -11q32 -56 91 -127q10 -13 10 -23q0 -14 -31 -46q-27 -28 -75 -97q-11 -14 -18 -14q-5 0 -9 4t-4 9q0 6 6 16z" />
<glyph unicode="&#xbc;" horiz-adv-x="800" d="M241 44l-41 -67q-4 -4 -19 -4q-19 0 -19 7q0 4 3 8q48 73 128 203l193 311q80 128 95 155q14 25 21 30.5t22 5.5q12 0 12 -8q0 -10 -42 -72q-22 -33 -94 -152l-178 -286q-46 -72 -81 -131zM174 269l-45 -1q-6 0 -14 -1t-9 -1q-14 0 -14 8q0 7 5 8.5t25 3.5q17 1 23 9.5 t6 32.5v250q0 26 -4 32t-20 6q-15 0 -30 -8q-2 -1 -6 -1q-8 0 -8 8q0 13 37 24q38 11 68 34q6 6 11 6q9 0 9 -10q0 -1 -2 -13q-3 -15 -3 -39v-282q0 -31 10 -40t45 -9q14 0 14 -9q0 -10 -16 -10q-9 0 -15 1q-26 2 -67 1zM531 122h-10q-29 0 -29 14q0 15 97 144 q102 133 114 133q5 0 6.5 -5t1.5 -27v-221h6q19 0 25 3t16 18q6 3 7 3q11 0 11 -11q0 -4 -5.5 -22t-8.5 -22q-5 -7 -27 -7h-24v-129q0 -16 -1 -19t-8 -6q-19 -9 -27 -9t-8 20v143q-17 1 -81 1q-8 0 -29 -0.5t-26 -0.5zM542 160h125v166q-41 -47 -125 -166z" />
<glyph unicode="&#xbd;" horiz-adv-x="800" d="M241 44l-41 -67q-4 -4 -19 -4q-19 0 -19 7q0 4 3 8q48 73 128 203l193 311q80 128 95 155q14 25 21 30.5t22 5.5q12 0 12 -8q0 -10 -42 -72q-22 -33 -94 -152l-178 -286q-46 -72 -81 -131zM174 269l-45 -1q-6 0 -14 -1t-9 -1q-14 0 -14 8q0 7 5 8.5t25 3.5q17 1 23 9.5 t6 32.5v250q0 26 -4 32t-20 6q-15 0 -30 -8q-2 -1 -6 -1q-8 0 -8 8q0 13 37 24q38 11 68 34q6 6 11 6q9 0 9 -10q0 -1 -2 -13q-3 -15 -3 -39v-282q0 -31 10 -40t45 -9q14 0 14 -9q0 -10 -16 -10q-9 0 -15 1q-26 2 -67 1zM714 -1l-152 1q-20 -2 -42 -2q-4 0 -8.5 3t-4.5 6 q0 4 21 29q66 77 104.5 150t38.5 121q0 28 -18 46t-47 18q-16 0 -38.5 -9.5t-34.5 -21.5q-13 -11 -17 -11q-2 0 -6 4t-3 5q11 29 46.5 50t73.5 21q41 0 69.5 -25t28.5 -61q0 -53 -55 -136q-64 -97 -80 -115q-7 -7 -7 -10q-3 -7 -6 -9q3 -5 10 -5q2 0 6 -0.5t11.5 -1 t14.5 -0.5q24 -2 31 -2q68 0 92 31q7 11 13 11q2 0 5.5 -3t3.5 -5l-1 -1q0 -1 -3 -7q-2 -6 -11 -18q-7 -8 -20 -32z" />
<glyph unicode="&#xbe;" horiz-adv-x="800" d="M410 317l-89 -142q-62 -99 -109 -178q-11 -18 -15 -21t-17 -3q-19 0 -19 7q0 4 3 8q38 59 128 203q107 174 150 241q112 179 139 225q14 25 20.5 30.5t22.5 5.5q12 0 12 -8q0 -10 -42 -72q-22 -33 -94 -152q-26 -43 -90 -144zM143 476h-9q-5 -1 -10 -1q-11 0 -11 10 q0 5 15 12q33 15 54.5 39.5t21.5 47.5t-16.5 38t-42.5 15q-36 0 -65 -27q-8 -7 -12 -7q-9 0 -9 10q0 12 31 35q37 27 77 27q37 0 62 -20.5t25 -51.5q0 -22 -16 -47.5t-40 -42.5l-4 -2q41 -4 64.5 -30t23.5 -66q0 -63 -48.5 -109.5t-113.5 -46.5q-29 0 -59.5 13t-30.5 26 q0 9 9 9q4 0 20 -11q27 -16 58 -16q46 0 78.5 34t32.5 81q0 37 -23 59t-62 22zM531 122h-10q-29 0 -29 14q0 15 97 144q102 133 114 133q5 0 6.5 -5t1.5 -27v-221h6q19 0 25 3t16 18q6 3 7 3q11 0 11 -11q0 -4 -5.5 -22t-8.5 -22q-5 -7 -27 -7h-24v-129q0 -16 -1 -19t-8 -6 q-19 -9 -27 -9t-8 20v143q-17 1 -81 1q-8 0 -29 -0.5t-26 -0.5zM542 160h125v166q-41 -47 -125 -166z" />
<glyph unicode="&#xbf;" horiz-adv-x="295" d="M180 359q-8 0 -19 18q-8 13 -25 25q-19 14 -19 23q0 7 18 19q21 15 33 36q5 8 14 8q8 0 21 -18q9 -15 26 -26t17 -21q0 -7 -17 -17q-18 -11 -29 -29t-20 -18zM37 -95q0 31 15.5 63t58.5 88q61 80 61 139q0 11 -4 33q-1 4 -1.5 7.5t-1 5t-0.5 2.5q0 8 7 8q10 0 17.5 -22.5 t7.5 -51.5q0 -46 -39 -128q-29 -62 -38 -89t-9 -51q0 -30 23.5 -52.5t54.5 -22.5q28 0 47 23q4 4 9 4q10 0 10 -10q0 -19 -32.5 -37t-66.5 -18q-51 0 -85 31t-34 78z" />
<glyph unicode="&#xc0;" horiz-adv-x="667" d="M305 742l-64 71q-15 18 -15 23q0 19 21 19q36 0 46 -2q5 -1 7.5 -6t14.5 -32q0 -2 3 -7.5t7.5 -15.5t7.5 -17q16 -34 16 -41q0 -11 -9 -11q-8 0 -35 19zM155 210l-31 -72q-22 -50 -22 -73q0 -21 14 -35q10 -9 43 -16q15 -3 15 -12q0 -8 -13 -8q-11 0 -17 1q-63 4 -101 4 q-17 0 -22 -1q-6 0 -12.5 -0.5t-10.5 -1.5h-4q-14 0 -14 9q0 5 3.5 7t23.5 8q26 7 67 99l251 558q7 14 14 14q9 0 14 -14l210 -537q1 -4 8.5 -22.5t11.5 -28.5q13 -35 32.5 -50.5t57.5 -21.5q15 -3 15 -11q0 -9 -14 -9l-18 1q-30 3 -91 3q-67 0 -85 -4q-14 -2 -16 -2 q-12 0 -12 10q0 5 5 7.5t23 6.5q24 5 24 33q0 26 -30 104l-24 64q-10 26 -16 30.5t-33 4.5h-178q-35 0 -44.5 -6t-23.5 -39zM305 544l-95 -212q-6 -14 -6 -18q0 -8 6 -10.5t29 -2.5h134q23 0 30.5 2.5t7.5 9.5t-5 20l-77 194q-10 26 -16 26q-3 0 -8 -9z" />
<glyph unicode="&#xc1;" horiz-adv-x="667" d="M434 813l-65 -71q-25 -19 -35 -19q-8 0 -8 12q0 7 16 40l29 66q5 10 12.5 12t43.5 2q21 0 21 -19q0 -8 -14 -23zM155 210l-31 -72q-22 -50 -22 -73q0 -21 14 -35q10 -9 43 -16q15 -3 15 -12q0 -8 -13 -8q-11 0 -17 1q-63 4 -101 4q-17 0 -22 -1q-6 0 -12.5 -0.5 t-10.5 -1.5h-4q-14 0 -14 9q0 5 3.5 7t23.5 8q26 7 67 99l251 558q7 14 14 14q9 0 14 -14l210 -537q1 -4 8.5 -22.5t11.5 -28.5q13 -35 32.5 -50.5t57.5 -21.5q15 -3 15 -11q0 -9 -14 -9l-18 1q-30 3 -91 3q-67 0 -85 -4q-14 -2 -16 -2q-12 0 -12 10q0 5 5 7.5t23 6.5 q24 5 24 33q0 26 -30 104l-24 64q-10 26 -16 30.5t-33 4.5h-178q-35 0 -44.5 -6t-23.5 -39zM305 544l-95 -212q-6 -14 -6 -18q0 -8 6 -10.5t29 -2.5h134q23 0 30.5 2.5t7.5 9.5t-5 20l-77 194q-10 26 -16 26q-3 0 -8 -9z" />
<glyph unicode="&#xc2;" horiz-adv-x="667" d="M333 803l-12 -15q-4 -4 -29 -39q-14 -21 -23 -21q-8 0 -16.5 5.5t-8.5 10.5q0 6 66 90q13 18 20.5 22.5t22.5 4.5q16 0 24.5 -5t25.5 -23q73 -78 73 -83q0 -6 -13 -12q-29 -12 -37 -12q-6 0 -21 16l-55 58q-6 6 -10 8q-2 0 -7 -5zM155 210l-31 -72q-22 -50 -22 -73 q0 -21 14 -35q10 -9 43 -16q15 -3 15 -12q0 -8 -13 -8q-11 0 -17 1q-63 4 -101 4q-17 0 -22 -1q-6 0 -12.5 -0.5t-10.5 -1.5h-4q-14 0 -14 9q0 5 3.5 7t23.5 8q26 7 67 99l251 558q7 14 14 14q9 0 14 -14l210 -537q1 -4 8.5 -22.5t11.5 -28.5q13 -35 32.5 -50.5t57.5 -21.5 q15 -3 15 -11q0 -9 -14 -9l-18 1q-30 3 -91 3q-67 0 -85 -4q-14 -2 -16 -2q-12 0 -12 10q0 5 5 7.5t23 6.5q24 5 24 33q0 26 -30 104l-24 64q-10 26 -16 30.5t-33 4.5h-178q-35 0 -44.5 -6t-23.5 -39zM305 544l-95 -212q-6 -14 -6 -18q0 -8 6 -10.5t29 -2.5h134 q23 0 30.5 2.5t7.5 9.5t-5 20l-77 194q-10 26 -16 26q-3 0 -8 -9z" />
<glyph unicode="&#xc3;" horiz-adv-x="667" d="M202 755v1q2 2 3 7q23 68 92 68q26 0 71 -15t62 -15q27 0 47 23q4 4 6 4q5 0 10 -3.5t5 -6.5q0 -4 -13 -26q-29 -46 -75 -46q-31 0 -115 25q-13 4 -29 4q-26 0 -43 -25q-4 -4 -7 -4q-5 0 -9.5 3t-4.5 6zM155 210l-31 -72q-22 -50 -22 -73q0 -21 14 -35q10 -9 43 -16 q15 -3 15 -12q0 -8 -13 -8q-11 0 -17 1q-63 4 -101 4q-17 0 -22 -1q-6 0 -12.5 -0.5t-10.5 -1.5h-4q-14 0 -14 9q0 5 3.5 7t23.5 8q26 7 67 99l251 558q7 14 14 14q9 0 14 -14l210 -537q1 -4 8.5 -22.5t11.5 -28.5q13 -35 32.5 -50.5t57.5 -21.5q15 -3 15 -11q0 -9 -14 -9 l-18 1q-30 3 -91 3q-67 0 -85 -4q-14 -2 -16 -2q-12 0 -12 10q0 5 5 7.5t23 6.5q24 5 24 33q0 26 -30 104l-24 64q-10 26 -16 30.5t-33 4.5h-178q-35 0 -44.5 -6t-23.5 -39zM305 544l-95 -212q-6 -14 -6 -18q0 -8 6 -10.5t29 -2.5h134q23 0 30.5 2.5t7.5 9.5t-5 20l-77 194 q-10 26 -16 26q-3 0 -8 -9z" />
<glyph unicode="&#xc4;" horiz-adv-x="667" d="M434 740q-10 0 -28.5 22t-18.5 34t18.5 32.5t28.5 19.5t27.5 -21.5t17.5 -31.5q0 -12 -24 -41q-11 -14 -21 -14zM255 740q-10 0 -28.5 22t-18.5 34q0 11 18.5 32t28.5 20t27.5 -21.5t17.5 -32.5q0 -13 -24 -40q-11 -14 -21 -14zM155 210l-31 -72q-22 -50 -22 -73 q0 -21 14 -35q10 -9 43 -16q15 -3 15 -12q0 -8 -13 -8q-11 0 -17 1q-63 4 -101 4q-17 0 -22 -1q-6 0 -12.5 -0.5t-10.5 -1.5h-4q-14 0 -14 9q0 5 3.5 7t23.5 8q26 7 67 99l251 558q7 14 14 14q9 0 14 -14l210 -537q1 -4 8.5 -22.5t11.5 -28.5q13 -35 32.5 -50.5t57.5 -21.5 q15 -3 15 -11q0 -9 -14 -9l-18 1q-30 3 -91 3q-67 0 -85 -4q-14 -2 -16 -2q-12 0 -12 10q0 5 5 7.5t23 6.5q24 5 24 33q0 26 -30 104l-24 64q-10 26 -16 30.5t-33 4.5h-178q-35 0 -44.5 -6t-23.5 -39zM305 544l-95 -212q-6 -14 -6 -18q0 -8 6 -10.5t29 -2.5h134 q23 0 30.5 2.5t7.5 9.5t-5 20l-77 194q-10 26 -16 26q-3 0 -8 -9z" />
<glyph unicode="&#xc5;" horiz-adv-x="667" d="M340 723q-40 0 -67 22t-27 55q0 31 27.5 53t66.5 22q40 0 67 -22t27 -54t-27 -54t-67 -22zM340 749q21 0 35.5 14.5t14.5 35.5t-14.5 35.5t-35.5 14.5t-35.5 -14t-14.5 -35q0 -22 14 -36.5t36 -14.5zM155 210l-31 -72q-22 -50 -22 -73q0 -21 14 -35q10 -9 43 -16 q15 -3 15 -12q0 -8 -13 -8q-11 0 -17 1q-63 4 -101 4q-17 0 -22 -1q-6 0 -12.5 -0.5t-10.5 -1.5h-4q-14 0 -14 9q0 5 3.5 7t23.5 8q26 7 67 99l251 558q7 14 14 14q9 0 14 -14l210 -537q1 -4 8.5 -22.5t11.5 -28.5q13 -35 32.5 -50.5t57.5 -21.5q15 -3 15 -11q0 -9 -14 -9 l-18 1q-30 3 -91 3q-67 0 -85 -4q-14 -2 -16 -2q-12 0 -12 10q0 5 5 7.5t23 6.5q24 5 24 33q0 26 -30 104l-24 64q-10 26 -16 30.5t-33 4.5h-178q-35 0 -44.5 -6t-23.5 -39zM305 544l-95 -212q-6 -14 -6 -18q0 -8 6 -10.5t29 -2.5h134q23 0 30.5 2.5t7.5 9.5t-5 20l-77 194 q-10 26 -16 26q-3 0 -8 -9z" />
<glyph unicode="&#xc6;" horiz-adv-x="863" d="M88 -2l-64 -2q-17 -4 -32 -4q-13 0 -13 11q0 10 13 13q25 7 39 22t51 78l292 495q7 12 7 18q0 24 -55 27q-12 2 -12 8q0 13 21 13q9 0 35 -2q84 -8 149 -8q150 0 218 7q28 2 33 2q15 0 15 -14q0 -5 -2 -17q-5 -35 -5 -45q-2 -38 -4.5 -48.5t-12.5 -10.5q-8 0 -8 12 q0 49 -22 64.5t-90 15.5q-42 0 -81 1q-15 1 -41 1q-21 0 -30 -9t-9 -30v-204q0 -17 6.5 -23t22.5 -5l14 1h2q2 0 6 -0.5t8.5 -0.5h11h13.5q88 -1 115.5 8.5t33.5 40.5q3 16 5.5 20.5t8.5 4.5q9 0 9 -12q0 -4 -2 -22q-3 -18 -3 -59q0 -53 3 -85v-7q0 -11 -10 -11 q-6 0 -8.5 5.5t-12.5 37.5q-6 21 -21 29.5t-46 8.5l-126 -1q-18 0 -24 -6.5t-6 -26.5v-185q0 -41 14 -53t63 -12q130 0 199 34q24 13 33.5 21t28.5 33q6 8 10 8q8 0 8 -14q0 -19 -29 -64q-39 -63 -111 -63q-20 0 -50 3q-88 8 -145 8q-74 0 -125 -8q-18 -2 -22 -2 q-14 0 -14 11q0 6 4.5 8.5t27.5 9.5q22 6 30 46q3 15 3 77v112h-138q-45 0 -55 -4.5t-27 -33.5l-63 -108q-22 -39 -22 -51q0 -18 18 -31q11 -8 47 -16q9 -2 9 -10q0 -10 -13 -10q-1 0 -6 0.5t-14.5 1t-18.5 0.5q-11 2 -34 1zM405 591l-148 -249q-11 -19 -11 -24 q0 -13 33 -13h126v286z" />
<glyph unicode="&#xc7;" horiz-adv-x="710" d="M674 153l-13 -68q-2 -9 -6 -13.5t-21 -14.5q-115 -70 -239 -70q-149 0 -241 76q-53 45 -83.5 114.5t-30.5 148.5q0 153 99.5 253.5t251.5 100.5q101 0 188 -46q31 -17 35 -17t8 4q11 8 15 8q7 0 10 -19l17 -129q0 -10 -9 -10q-6 0 -17 20q-91 161 -250 161 q-124 0 -195 -77.5t-71 -211.5q0 -150 80.5 -247t204.5 -97q84 0 157 47q63 41 85 87q9 18 12.5 22t7.5 4q8 0 8 -9q0 -2 -3 -17zM339 -104q0 7 19 22q7 5 17 14q12 11 20 11q14 0 33 -22q23 -24 23 -56q0 -41 -32 -70q-37 -32 -71 -32q-12 0 -12 10q0 7 12 11q18 8 29.5 22 t11.5 29q0 30 -35 46q-15 6 -15 15z" />
<glyph unicode="&#xc8;" horiz-adv-x="584" d="M266 742l-64 71q-15 18 -15 23q0 19 21 19q36 0 46 -2q4 -1 7 -6t15 -32q0 -2 3 -7.5t7.5 -15.5t7.5 -17q16 -34 16 -41q0 -11 -9 -11q-8 0 -35 19zM201 278v-162q0 -53 13 -66t66 -13q78 0 130 12q51 11 79.5 27.5t47.5 46.5q5 9 12 9q8 0 8 -13q0 -16 -13 -40.5 t-31 -44.5q-40 -43 -100 -43q-10 0 -38 2q-93 9 -154 9q-91 0 -121 -6q-18 -3 -26 -3q-5 0 -10 3.5t-5 7.5q0 5 5.5 8t25.5 9q24 10 30 31t6 88v393q0 64 -11 87q-15 29 -64 32q-14 0 -14 9q0 14 21 14t34 -2q78 -9 159 -9q168 0 219 8q16 2 19 2q7 0 12 -4t4 -10l-1 -12 q-6 -36 -6 -68q-3 -43 -16 -43q-6 0 -7.5 4.5t-1.5 23.5q0 44 -31 55q-28 11 -116 11h-77q-30 0 -39 -7.5t-9 -33.5v-196q0 -22 4.5 -27t24.5 -5h75q75 0 104 13q12 5 16 12.5t10 35.5q3 12 11 12q10 0 10 -13q0 -7 -1 -11q-3 -65 -3 -87q0 -34 3 -59q1 -6 1 -15 q0 -12 -9 -12q-7 0 -9.5 4.5t-5.5 20.5q-3 18 -13 32t-21 18q-18 6 -50 6h-107q-24 0 -33 -5t-8 -19z" />
<glyph unicode="&#xc9;" horiz-adv-x="584" d="M388 813l-65 -71q-25 -19 -35 -19q-8 0 -8 12q0 7 16 40l29 66q5 10 12.5 12t43.5 2q21 0 21 -19q0 -8 -14 -23zM201 278v-162q0 -53 13 -66t66 -13q78 0 130 12q51 11 79.5 27.5t47.5 46.5q5 9 12 9q8 0 8 -13q0 -16 -13 -40.5t-31 -44.5q-40 -43 -100 -43q-10 0 -38 2 q-93 9 -154 9q-91 0 -121 -6q-18 -3 -26 -3q-5 0 -10 3.5t-5 7.5q0 5 5.5 8t25.5 9q24 10 30 31t6 88v393q0 64 -11 87q-15 29 -64 32q-14 0 -14 9q0 14 21 14t34 -2q78 -9 159 -9q168 0 219 8q16 2 19 2q7 0 12 -4t4 -10l-1 -12q-6 -36 -6 -68q-3 -43 -16 -43 q-6 0 -7.5 4.5t-1.5 23.5q0 44 -31 55q-28 11 -116 11h-77q-30 0 -39 -7.5t-9 -33.5v-196q0 -22 4.5 -27t24.5 -5h75q75 0 104 13q12 5 16 12.5t10 35.5q3 12 11 12q10 0 10 -13q0 -7 -1 -11q-3 -65 -3 -87q0 -34 3 -59q1 -6 1 -15q0 -12 -9 -12q-7 0 -9.5 4.5t-5.5 20.5 q-3 18 -13 32t-21 18q-18 6 -50 6h-107q-24 0 -33 -5t-8 -19z" />
<glyph unicode="&#xca;" horiz-adv-x="584" d="M288 803l-12 -15q-4 -4 -29 -39q-14 -21 -23 -21q-8 0 -16.5 5.5t-8.5 10.5q0 6 66 90q13 18 20.5 22.5t22.5 4.5q16 0 24.5 -5t25.5 -23q73 -78 73 -83q0 -6 -13 -12q-29 -12 -37 -12q-6 0 -21 16l-55 58q-6 6 -10 8q-2 0 -7 -5zM201 278v-162q0 -53 13 -66t66 -13 q78 0 130 12q51 11 79.5 27.5t47.5 46.5q5 9 12 9q8 0 8 -13q0 -16 -13 -40.5t-31 -44.5q-40 -43 -100 -43q-10 0 -38 2q-93 9 -154 9q-91 0 -121 -6q-18 -3 -26 -3q-5 0 -10 3.5t-5 7.5q0 5 5.5 8t25.5 9q24 10 30 31t6 88v393q0 64 -11 87q-15 29 -64 32q-14 0 -14 9 q0 14 21 14t34 -2q78 -9 159 -9q168 0 219 8q16 2 19 2q7 0 12 -4t4 -10l-1 -12q-6 -36 -6 -68q-3 -43 -16 -43q-6 0 -7.5 4.5t-1.5 23.5q0 44 -31 55q-28 11 -116 11h-77q-30 0 -39 -7.5t-9 -33.5v-196q0 -22 4.5 -27t24.5 -5h75q75 0 104 13q12 5 16 12.5t10 35.5 q3 12 11 12q10 0 10 -13q0 -7 -1 -11q-3 -65 -3 -87q0 -34 3 -59q1 -6 1 -15q0 -12 -9 -12q-7 0 -9.5 4.5t-5.5 20.5q-3 18 -13 32t-21 18q-18 6 -50 6h-107q-24 0 -33 -5t-8 -19z" />
<glyph unicode="&#xcb;" horiz-adv-x="584" d="M389 740q-10 0 -28.5 22t-18.5 34t18.5 32.5t28.5 19.5t27.5 -21.5t17.5 -31.5q0 -12 -24 -41q-11 -14 -21 -14zM210 740q-10 0 -28.5 22t-18.5 34q0 11 18.5 32t28.5 20t27.5 -21.5t17.5 -32.5q0 -13 -24 -40q-11 -14 -21 -14zM201 278v-162q0 -53 13 -66t66 -13 q78 0 130 12q51 11 79.5 27.5t47.5 46.5q5 9 12 9q8 0 8 -13q0 -16 -13 -40.5t-31 -44.5q-40 -43 -100 -43q-10 0 -38 2q-93 9 -154 9q-91 0 -121 -6q-18 -3 -26 -3q-5 0 -10 3.5t-5 7.5q0 5 5.5 8t25.5 9q24 10 30 31t6 88v393q0 64 -11 87q-15 29 -64 32q-14 0 -14 9 q0 14 21 14t34 -2q78 -9 159 -9q168 0 219 8q16 2 19 2q7 0 12 -4t4 -10l-1 -12q-6 -36 -6 -68q-3 -43 -16 -43q-6 0 -7.5 4.5t-1.5 23.5q0 44 -31 55q-28 11 -116 11h-77q-30 0 -39 -7.5t-9 -33.5v-196q0 -22 4.5 -27t24.5 -5h75q75 0 104 13q12 5 16 12.5t10 35.5 q3 12 11 12q10 0 10 -13q0 -7 -1 -11q-3 -65 -3 -87q0 -34 3 -59q1 -6 1 -15q0 -12 -9 -12q-7 0 -9.5 4.5t-5.5 20.5q-3 18 -13 32t-21 18q-18 6 -50 6h-107q-24 0 -33 -5t-8 -19z" />
<glyph unicode="&#xcc;" horiz-adv-x="328" d="M142 742l-64 71q-15 18 -15 23q0 19 21 19q36 0 46 -2q5 -1 7.5 -6t14.5 -32q0 -2 3 -7.5t7.5 -15.5t7.5 -17q16 -34 16 -41q0 -11 -9 -11q-8 0 -35 19zM202 524v-365q0 -79 16 -106q10 -17 22.5 -24t39.5 -11q24 -3 24 -12q0 -4 -5 -8t-11 -4q-4 0 -18 2q-27 3 -117 3 q-33 0 -63 -3q-18 -2 -23 -2q-14 0 -14 10q0 9 15 12q38 7 48.5 26t10.5 81v418q0 61 -13.5 81t-59.5 29q-16 3 -16 11q0 11 14 11h9q13 0 46 -2t47 -2q37 0 97 3q4 1 13 1q12 0 12 -10q0 -6 -4.5 -9t-33.5 -13q-20 -8 -28 -34.5t-8 -82.5z" />
<glyph unicode="&#xcd;" horiz-adv-x="328" d="M258 813l-65 -71q-25 -19 -35 -19q-8 0 -8 12q0 7 16 40l29 66q5 10 12.5 12t43.5 2q21 0 21 -19q0 -8 -14 -23zM202 524v-365q0 -79 16 -106q10 -17 22.5 -24t39.5 -11q24 -3 24 -12q0 -4 -5 -8t-11 -4q-4 0 -18 2q-27 3 -117 3q-33 0 -63 -3q-18 -2 -23 -2 q-14 0 -14 10q0 9 15 12q38 7 48.5 26t10.5 81v418q0 61 -13.5 81t-59.5 29q-16 3 -16 11q0 11 14 11h9q13 0 46 -2t47 -2q37 0 97 3q4 1 13 1q12 0 12 -10q0 -6 -4.5 -9t-33.5 -13q-20 -8 -28 -34.5t-8 -82.5z" />
<glyph unicode="&#xce;" horiz-adv-x="328" d="M157 803l-12 -15q-4 -4 -29 -39q-14 -21 -23 -21q-8 0 -16.5 5.5t-8.5 10.5q0 6 66 90q13 18 20.5 22.5t22.5 4.5q16 0 24.5 -5t25.5 -23q73 -78 73 -83q0 -6 -13 -12q-29 -12 -37 -12q-6 0 -21 16l-55 58q-6 6 -10 8q-2 0 -7 -5zM202 524v-365q0 -79 16 -106 q10 -17 22.5 -24t39.5 -11q24 -3 24 -12q0 -4 -5 -8t-11 -4q-4 0 -18 2q-27 3 -117 3q-33 0 -63 -3q-18 -2 -23 -2q-14 0 -14 10q0 9 15 12q38 7 48.5 26t10.5 81v418q0 61 -13.5 81t-59.5 29q-16 3 -16 11q0 11 14 11h9q13 0 46 -2t47 -2q37 0 97 3q4 1 13 1q12 0 12 -10 q0 -6 -4.5 -9t-33.5 -13q-20 -8 -28 -34.5t-8 -82.5z" />
<glyph unicode="&#xcf;" horiz-adv-x="328" d="M245 740q-10 0 -28.5 22t-18.5 34t18 32.5t28 19.5t27.5 -21.5t17.5 -31.5t-23 -41q-12 -14 -21 -14zM92 740q-10 0 -28.5 22t-18.5 34q0 11 18.5 32t28.5 20t27.5 -21.5t17.5 -32.5q0 -13 -24 -40q-11 -14 -21 -14zM202 524v-365q0 -79 16 -106q10 -17 22.5 -24 t39.5 -11q24 -3 24 -12q0 -4 -5 -8t-11 -4q-4 0 -18 2q-27 3 -117 3q-33 0 -63 -3q-18 -2 -23 -2q-14 0 -14 10q0 9 15 12q38 7 48.5 26t10.5 81v418q0 61 -13.5 81t-59.5 29q-16 3 -16 11q0 11 14 11h9q13 0 46 -2t47 -2q37 0 97 3q4 1 13 1q12 0 12 -10q0 -6 -4.5 -9 t-33.5 -13q-20 -8 -28 -34.5t-8 -82.5z" />
<glyph unicode="&#xd0;" horiz-adv-x="742" d="M90 667h35q49 0 122 7q29 3 66 3q175 0 274 -78q56 -45 86 -112t30 -146q0 -86 -34.5 -159t-97.5 -119q-43 -32 -101.5 -51t-113.5 -19q-25 0 -46 2q-78 5 -112 5q-61 0 -93 -5q-19 -3 -29 -3q-16 0 -16 12q0 7 14 10q44 10 51 48q2 10 2 69v199h-70q-8 0 -10.5 3 t-2.5 13q0 11 2.5 14t10.5 3h70v187q0 50 -16.5 73t-55.5 27q-16 1 -16 10q0 10 12 10q7 0 39 -3zM202 330v-233q0 -23 2 -29.5t9 -13.5q14 -11 65 -22.5t86 -11.5q44 0 90 14.5t77 37.5q99 73 99 230q0 83 -30 156t-83 119q-80 70 -204 70q-78 0 -98 -17q-13 -9 -13 -41 v-226h173q9 0 11.5 -3t2.5 -14q0 -10 -2.5 -13t-11.5 -3h-173z" />
<glyph unicode="&#xd1;" horiz-adv-x="740" d="M242 755v1q2 2 3 7q23 68 92 68q26 0 71 -15t62 -15q27 0 47 23q4 4 6 4q5 0 10 -3.5t5 -6.5q0 -4 -13 -26q-29 -46 -75 -46q-31 0 -115 25q-13 4 -29 4q-26 0 -43 -25q-4 -4 -7 -4q-5 0 -9.5 3t-4.5 6zM164 466v-331q0 -59 7 -81q6 -17 18 -24.5t45 -12.5q16 -3 16 -13 t-11 -10q-2 0 -14 2q-5 1 -93 5q-36 0 -60 -4q-16 -2 -17 -2q-5 0 -10 3t-5 7q0 7 14 12q31 10 45 24.5t21 41.5q4 19 4 64v317q0 81 -25 127q-28 52 -80 61q-13 1 -13 11t10 10l9 -1l60 -1q9 1 17 1q13 0 26 -14l449 -509q11 -12 13 -12q4 -1 5 3t1 15v233q0 127 -3.5 164 t-17.5 61q-10 16 -24.5 23t-53.5 14q-14 3 -14 13q0 9 14 9l21 -1q72 -4 94 -4q26 0 44 3q15 3 24 3q14 0 14 -11q0 -6 -10 -9q-24 -5 -33.5 -16t-13.5 -37q-2 -22 -2 -35v-53l-1 -32v-315q0 -36 -0.5 -81t-0.5 -54v-10q0 -29 -15 -29q-6 0 -15 10q-4 5 -7 8l-411 471 q-7 8 -12 8q-9 0 -9 -22z" />
<glyph unicode="&#xd2;" horiz-adv-x="784" d="M369 742l-64 71q-15 18 -15 23q0 19 21 19q36 0 46 -2q5 -1 7.5 -6t14.5 -32q0 -2 3 -7.5t7.5 -15.5t7.5 -17q16 -34 16 -41q0 -11 -9 -11q-8 0 -35 19zM163 58q-58 45 -90.5 118.5t-32.5 159.5q0 75 32.5 147.5t85.5 115.5q100 81 240 81q151 0 248.5 -95t97.5 -243 q0 -154 -99 -254.5t-251 -100.5q-139 0 -231 71zM216 102q84 -87 196 -87q113 0 186.5 82.5t73.5 209.5q0 145 -88 243t-218 98q-113 0 -181 -75.5t-68 -201.5q0 -167 99 -269z" />
<glyph unicode="&#xd3;" horiz-adv-x="784" d="M482 813l-65 -71q-25 -19 -35 -19q-8 0 -8 12q0 7 16 40l29 66q5 10 12.5 12t43.5 2q21 0 21 -19q0 -8 -14 -23zM163 58q-58 45 -90.5 118.5t-32.5 159.5q0 75 32.5 147.5t85.5 115.5q100 81 240 81q151 0 248.5 -95t97.5 -243q0 -154 -99 -254.5t-251 -100.5 q-139 0 -231 71zM216 102q84 -87 196 -87q113 0 186.5 82.5t73.5 209.5q0 145 -88 243t-218 98q-113 0 -181 -75.5t-68 -201.5q0 -167 99 -269z" />
<glyph unicode="&#xd4;" horiz-adv-x="784" d="M385 803l-12 -15q-4 -4 -29 -39q-14 -21 -23 -21q-8 0 -16.5 5.5t-8.5 10.5q0 6 66 90q13 18 20.5 22.5t22.5 4.5q16 0 24.5 -5t25.5 -23q73 -78 73 -83q0 -6 -13 -12q-29 -12 -37 -12q-6 0 -21 16l-55 58q-6 6 -10 8q-2 0 -7 -5zM163 58q-58 45 -90.5 118.5t-32.5 159.5 q0 75 32.5 147.5t85.5 115.5q100 81 240 81q151 0 248.5 -95t97.5 -243q0 -154 -99 -254.5t-251 -100.5q-139 0 -231 71zM216 102q84 -87 196 -87q113 0 186.5 82.5t73.5 209.5q0 145 -88 243t-218 98q-113 0 -181 -75.5t-68 -201.5q0 -167 99 -269z" />
<glyph unicode="&#xd5;" horiz-adv-x="784" d="M267 755v1q2 2 3 7q23 68 92 68q26 0 71 -15t62 -15q27 0 47 23q4 4 6 4q4 0 9.5 -3.5t5.5 -6.5q0 -4 -13 -26q-29 -46 -75 -46q-31 0 -115 25q-13 4 -29 4q-26 0 -43 -25q-4 -4 -7 -4q-5 0 -9.5 3t-4.5 6zM163 58q-58 45 -90.5 118.5t-32.5 159.5q0 75 32.5 147.5 t85.5 115.5q100 81 240 81q151 0 248.5 -95t97.5 -243q0 -154 -99 -254.5t-251 -100.5q-139 0 -231 71zM216 102q84 -87 196 -87q113 0 186.5 82.5t73.5 209.5q0 145 -88 243t-218 98q-113 0 -181 -75.5t-68 -201.5q0 -167 99 -269z" />
<glyph unicode="&#xd6;" horiz-adv-x="784" d="M489 740q-10 0 -28.5 22t-18.5 34t18.5 32.5t28.5 19.5t27.5 -21.5t17.5 -31.5q0 -12 -24 -41q-11 -14 -21 -14zM310 740q-10 0 -28.5 22t-18.5 34q0 11 18.5 32t28.5 20t27.5 -21.5t17.5 -32.5q0 -13 -24 -40q-11 -14 -21 -14zM163 58q-58 45 -90.5 118.5t-32.5 159.5 q0 75 32.5 147.5t85.5 115.5q100 81 240 81q151 0 248.5 -95t97.5 -243q0 -154 -99 -254.5t-251 -100.5q-139 0 -231 71zM216 102q84 -87 196 -87q113 0 186.5 82.5t73.5 209.5q0 145 -88 243t-218 98q-113 0 -181 -75.5t-68 -201.5q0 -167 99 -269z" />
<glyph unicode="&#xd7;" d="M249 298l-67 -66q-39 -39 -40 -42q-19 -25 -29 -25q-6 0 -13 14q-12 23 -12 27q0 8 18 23q1 0 6 5t15 14.5t16 15.5l71 68q-70 72 -100 96q-23 20 -22 30q3 29 5 33q8 10 12 10t22 -17t118 -118l20 20q80 80 107 106q9 9 13 9q5 0 13 -14t8 -24q0 -7 -7.5 -15.5 t-52.5 -50.5q-40 -38 -66 -65q26 -24 43.5 -41.5t27.5 -26.5l37 -35q18 -18 18 -23q0 -4 -7 -17q-4 -6 -8 -19q-3 -7 -7 -7q-9 0 -32 27q-14 16 -107 108z" />
<glyph unicode="&#xd8;" horiz-adv-x="784" d="M165 55l-46 -53q-6 -6 -10 -6q-6 0 -12 5.5t-6 11.5q0 4 4 8l47 54q-102 99 -102 256q0 78 31.5 149.5t86.5 117.5q96 82 242 82q110 0 212 -64l46 53q10 12 15 12q7 0 11.5 -5t4.5 -12q0 -6 -9 -16l-45 -52q109 -102 109 -255q0 -74 -29 -145.5t-78 -117.5 q-45 -42 -110.5 -66.5t-133.5 -24.5q-131 0 -228 68zM191 131l378 436q-52 44 -97.5 62.5t-103.5 18.5q-114 0 -183 -77q-66 -73 -66 -202q0 -141 72 -238zM210 107q52 -50 97.5 -71.5t101.5 -21.5q115 0 188.5 81.5t73.5 208.5q0 142 -82 239z" />
<glyph unicode="&#xd9;" horiz-adv-x="775" d="M375 742l-64 71q-15 18 -15 23q0 19 21 19q36 0 46 -2q5 -1 7.5 -6t14.5 -32q0 -2 3 -7.5t7.5 -15.5t7.5 -17q16 -34 16 -41q0 -11 -9 -11q-8 0 -35 19zM671 516v-224q0 -134 -54 -205q-34 -46 -96.5 -73t-135.5 -27q-81 0 -147.5 32.5t-96.5 87.5q-15 26 -25 74t-10 91 v249q0 74 -13.5 96.5t-59.5 29.5q-14 3 -14 10q0 12 19 12l33 -1q15 -2 31 -2q67 0 105 2q18 2 24 2q12 0 12 -8q0 -9 -15 -12q-30 -7 -39.5 -25t-8.5 -65l1 -33v-246q0 -125 39 -180q26 -36 75 -56t110 -20q143 0 197 93q34 60 34 163v232q0 62 -10 93q-8 24 -23 34.5 t-44 13.5q-14 1 -14 12q0 9 9 9q2 0 32 -4q21 -3 44 -3l67 1q7 0 14 1t8 1q9 0 9 -9q0 -5 -4 -8t-23 -11q-17 -7 -23.5 -34.5t-6.5 -92.5z" />
<glyph unicode="&#xda;" horiz-adv-x="775" d="M494 813l-65 -71q-25 -19 -35 -19q-8 0 -8 12q0 7 16 40l29 66q5 10 12.5 12t43.5 2q21 0 21 -19q0 -8 -14 -23zM671 516v-224q0 -134 -54 -205q-34 -46 -96.5 -73t-135.5 -27q-81 0 -147.5 32.5t-96.5 87.5q-15 26 -25 74t-10 91v249q0 74 -13.5 96.5t-59.5 29.5 q-14 3 -14 10q0 12 19 12l33 -1q15 -2 31 -2q67 0 105 2q18 2 24 2q12 0 12 -8q0 -9 -15 -12q-30 -7 -39.5 -25t-8.5 -65l1 -33v-246q0 -125 39 -180q26 -36 75 -56t110 -20q143 0 197 93q34 60 34 163v232q0 62 -10 93q-8 24 -23 34.5t-44 13.5q-14 1 -14 12q0 9 9 9 q2 0 32 -4q21 -3 44 -3l67 1q7 0 14 1t8 1q9 0 9 -9q0 -5 -4 -8t-23 -11q-17 -7 -23.5 -34.5t-6.5 -92.5z" />
<glyph unicode="&#xdb;" horiz-adv-x="775" d="M397 803l-12 -15q-4 -4 -29 -39q-14 -21 -23 -21q-8 0 -16.5 5.5t-8.5 10.5q0 6 66 90q13 18 20.5 22.5t22.5 4.5q16 0 24.5 -5t25.5 -23q73 -78 73 -83q0 -6 -13 -12q-29 -12 -37 -12q-6 0 -21 16l-55 58q-6 6 -10 8q-2 0 -7 -5zM671 516v-224q0 -134 -54 -205 q-34 -46 -96.5 -73t-135.5 -27q-81 0 -147.5 32.5t-96.5 87.5q-15 26 -25 74t-10 91v249q0 74 -13.5 96.5t-59.5 29.5q-14 3 -14 10q0 12 19 12l33 -1q15 -2 31 -2q67 0 105 2q18 2 24 2q12 0 12 -8q0 -9 -15 -12q-30 -7 -39.5 -25t-8.5 -65l1 -33v-246q0 -125 39 -180 q26 -36 75 -56t110 -20q143 0 197 93q34 60 34 163v232q0 62 -10 93q-8 24 -23 34.5t-44 13.5q-14 1 -14 12q0 9 9 9q2 0 32 -4q21 -3 44 -3l67 1q7 0 14 1t8 1q9 0 9 -9q0 -5 -4 -8t-23 -11q-17 -7 -23.5 -34.5t-6.5 -92.5z" />
<glyph unicode="&#xdc;" horiz-adv-x="775" d="M498 740q-10 0 -28.5 22t-18.5 34t18.5 32.5t28.5 19.5t27.5 -21.5t17.5 -31.5q0 -12 -24 -41q-11 -14 -21 -14zM319 740q-10 0 -28.5 22t-18.5 34q0 11 18.5 32t28.5 20t27.5 -21.5t17.5 -32.5q0 -13 -24 -40q-11 -14 -21 -14zM671 516v-224q0 -134 -54 -205 q-34 -46 -96.5 -73t-135.5 -27q-81 0 -147.5 32.5t-96.5 87.5q-15 26 -25 74t-10 91v249q0 74 -13.5 96.5t-59.5 29.5q-14 3 -14 10q0 12 19 12l33 -1q15 -2 31 -2q67 0 105 2q18 2 24 2q12 0 12 -8q0 -9 -15 -12q-30 -7 -39.5 -25t-8.5 -65l1 -33v-246q0 -125 39 -180 q26 -36 75 -56t110 -20q143 0 197 93q34 60 34 163v232q0 62 -10 93q-8 24 -23 34.5t-44 13.5q-14 1 -14 12q0 9 9 9q2 0 32 -4q21 -3 44 -3l67 1q7 0 14 1t8 1q9 0 9 -9q0 -5 -4 -8t-23 -11q-17 -7 -23.5 -34.5t-6.5 -92.5z" />
<glyph unicode="&#xdd;" horiz-adv-x="585" d="M399 813l-65 -71q-25 -19 -35 -19q-8 0 -8 12q0 7 16 40l29 66q5 10 12.5 12t43.5 2q21 0 21 -19q0 -8 -14 -23zM339 276v-160q0 -69 8.5 -83t54.5 -19q15 -2 15 -11q0 -11 -17 -11q-4 0 -26 2q-16 3 -74 5q-11 1 -47 -0.5t-39 -2.5q-16 -2 -19 -2q-11 0 -11 9 q0 10 16 12q44 7 54 24.5t10 86.5v146q0 31 -4.5 45.5t-21.5 41.5l-136 217q-27 43 -46.5 57.5t-61.5 20.5q-14 1 -14 9q0 11 19 11q5 0 21 -2q39 -3 74 -3q70 0 84 2q24 2 26 2q14 0 14 -10q0 -7 -11 -10q-33 -11 -33 -34q0 -7 1.5 -11.5t8.5 -17t25 -41.5l101 -161 q11 -17 16 -17t14 14l71 107q39 60 48.5 79t9.5 34q0 17 -14 28t-47 18q-12 3 -12 11q0 9 11 9q9 0 26 -3q18 -3 65 -3q43 0 67 2q22 2 26 2q13 0 13 -9q0 -8 -12 -11q-30 -9 -47.5 -27t-56.5 -76l-119 -177q-22 -33 -26 -44.5t-4 -48.5z" />
<glyph unicode="&#xde;" horiz-adv-x="529" d="M202 483v-301q0 -90 5 -108q8 -29 25 -41.5t56 -14.5q15 -1 15 -10q0 -12 -17 -12q-2 0 -13 1t-20 1q-90 2 -91 2q-52 0 -76 -3q-21 -3 -29 -3q-12 0 -12 10q0 9 16 12q26 5 39 18t20 44q7 30 7 115v348q0 61 -13.5 81t-59.5 29q-16 3 -16 11q0 11 14 11h9q13 0 46 -2 t47 -2q36 0 97 3q4 1 13 1q12 0 12 -10q0 -7 -5.5 -10t-33.5 -10q-31 -9 -35 -43q0 -1 -2 -32q0 -6 4 -6t6 1q20 4 62 4q107 0 171 -49t64 -131q0 -85 -66 -138q-27 -23 -65 -37t-72 -14q-30 0 -55 6.5t-25 14.5q0 6 8 6q7 0 11 -1q17 -3 35 -3q71 0 113.5 38.5t42.5 102.5 q0 74 -56 122t-142 48q-24 0 -30 -13q-4 -7 -4 -36z" />
<glyph unicode="&#xdf;" horiz-adv-x="539" d="M156 -3l-30 2l-5 -1q-5 0 -22 -1t-39 -2q-14 0 -14 9q0 10 19 13q22 3 30 15.5t8 45.5v275h-56q-12 0 -14.5 1t-2.5 7q0 15 6 27q2 6 20 6h47q0 90 22 145q28 73 81 118t111 45t96.5 -43.5t38.5 -108.5q0 -57 -38 -106q-15 -20 -24.5 -28.5t-43.5 -31.5q-10 -8 -10 -14 q0 -11 29 -40q77 -74 105 -118t28 -88q0 -58 -42 -97.5t-104 -39.5q-55 0 -115 29q-7 47 -7 97q0 25 13 25q8 0 12 -18q8 -32 37 -71q28 -38 74 -38q32 0 50.5 21t18.5 56q0 51 -54 115q-24 29 -99 105q-21 21 -21 36q0 16 29 38q54 40 73.5 72t19.5 81q0 55 -28.5 90.5 t-71.5 35.5q-36 0 -63 -25.5t-39 -70.5q-8 -29 -9.5 -57.5t-1.5 -152.5v-280q0 -63 -3 -70q-4 -8 -11 -8z" />
<glyph unicode="&#xe0;" horiz-adv-x="423" d="M178 485l-61 67q-14 16 -14 22q0 18 19 18q35 0 45 -2q4 -1 6 -4t14 -32q2 -6 9 -19.5t9 -18.5q15 -31 15 -38q0 -11 -8 -11q-6 0 -34 18zM334 297v-192q0 -49 13 -67q12 -17 36 -17q5 0 22 4q8 0 8 -8q-1 -8 -23.5 -17t-42.5 -9q-23 0 -39 11t-34 38q-71 -53 -131 -53 q-47 0 -74 24.5t-27 66.5q0 56 51.5 87t173.5 49v61q0 50 -15 70q-27 37 -80 37q-67 0 -67 -56q0 -12 7 -35q3 -12 3 -16q0 -9 -9 -9q-16 0 -44 10q-17 6 -17 21t13 38t29 37q45 38 110 38q37 0 70.5 -14t50.5 -36q16 -22 16 -63zM267 98v98q-62 -6 -110 -30 q-50 -24 -50 -76q0 -33 20 -53t52 -20q50 0 76 33q12 15 12 48z" />
<glyph unicode="&#xe1;" horiz-adv-x="423" d="M285 552l-61 -67q-26 -18 -33 -18q-8 0 -8 11q0 7 15 38q4 8 10 21t8 17l10 25q4 10 11 11.5t44 1.5q19 0 19 -18q0 -6 -15 -22zM334 297v-192q0 -49 13 -67q12 -17 36 -17q5 0 22 4q8 0 8 -8q-1 -8 -23.5 -17t-42.5 -9q-23 0 -39 11t-34 38q-71 -53 -131 -53 q-47 0 -74 24.5t-27 66.5q0 56 51.5 87t173.5 49v61q0 50 -15 70q-27 37 -80 37q-67 0 -67 -56q0 -12 7 -35q3 -12 3 -16q0 -9 -9 -9q-16 0 -44 10q-17 6 -17 21t13 38t29 37q45 38 110 38q37 0 70.5 -14t50.5 -36q16 -22 16 -63zM267 98v98q-62 -6 -110 -30 q-50 -24 -50 -76q0 -33 20 -53t52 -20q50 0 76 33q12 15 12 48z" />
<glyph unicode="&#xe2;" horiz-adv-x="423" d="M271 481l-52 55q-5 6 -10 8q-3 0 -6 -5q-6 -6 -12 -14q-9 -9 -27 -36q-13 -20 -22 -20q-7 0 -15.5 5t-8.5 10q0 6 15 26q62 76 66 79q6 6 23 6q15 0 23 -4.5t25 -22.5q69 -74 69 -78q0 -7 -13 -13q-26 -11 -34 -11q-7 0 -21 15zM334 297v-192q0 -49 13 -67q12 -17 36 -17 q5 0 22 4q8 0 8 -8q-1 -8 -23.5 -17t-42.5 -9q-23 0 -39 11t-34 38q-71 -53 -131 -53q-47 0 -74 24.5t-27 66.5q0 56 51.5 87t173.5 49v61q0 50 -15 70q-27 37 -80 37q-67 0 -67 -56q0 -12 7 -35q3 -12 3 -16q0 -9 -9 -9q-16 0 -44 10q-17 6 -17 21t13 38t29 37 q45 38 110 38q37 0 70.5 -14t50.5 -36q16 -22 16 -63zM267 98v98q-62 -6 -110 -30q-50 -24 -50 -76q0 -33 20 -53t52 -20q50 0 76 33q12 15 12 48z" />
<glyph unicode="&#xe3;" horiz-adv-x="423" d="M94 493q-4 0 -8 3t-4 5q0 1 1 3l2 4q9 29 31 45t52 16q25 0 64 -13q41 -13 56 -13q23 0 42 20q3 4 6 4q4 0 8.5 -3.5t4.5 -5.5q0 -6 -12 -24q-27 -41 -67 -41q-26 0 -104 22q-12 4 -26 4q-23 0 -39 -22q-4 -4 -7 -4zM334 297v-192q0 -49 13 -67q12 -17 36 -17q5 0 22 4 q8 0 8 -8q-1 -8 -23.5 -17t-42.5 -9q-23 0 -39 11t-34 38q-71 -53 -131 -53q-47 0 -74 24.5t-27 66.5q0 56 51.5 87t173.5 49v61q0 50 -15 70q-27 37 -80 37q-67 0 -67 -56q0 -12 7 -35q3 -12 3 -16q0 -9 -9 -9q-16 0 -44 10q-17 6 -17 21t13 38t29 37q45 38 110 38 q37 0 70.5 -14t50.5 -36q16 -22 16 -63zM267 98v98q-62 -6 -110 -30q-50 -24 -50 -76q0 -33 20 -53t52 -20q50 0 76 33q12 15 12 48z" />
<glyph unicode="&#xe4;" horiz-adv-x="423" d="M283 480q-9 0 -27 21t-18 32t17 31t27 19t26.5 -20.5t16.5 -30.5q0 -10 -22 -39q-11 -13 -20 -13zM144 480q-9 0 -27 21t-18 32t17 31t27 19t26.5 -20.5t16.5 -30.5q0 -10 -22 -39q-11 -13 -20 -13zM334 297v-192q0 -49 13 -67q12 -17 36 -17q5 0 22 4q8 0 8 -8 q-1 -8 -23.5 -17t-42.5 -9q-23 0 -39 11t-34 38q-71 -53 -131 -53q-47 0 -74 24.5t-27 66.5q0 56 51.5 87t173.5 49v61q0 50 -15 70q-27 37 -80 37q-67 0 -67 -56q0 -12 7 -35q3 -12 3 -16q0 -9 -9 -9q-16 0 -44 10q-17 6 -17 21t13 38t29 37q45 38 110 38q37 0 70.5 -14 t50.5 -36q16 -22 16 -63zM267 98v98q-62 -6 -110 -30q-50 -24 -50 -76q0 -33 20 -53t52 -20q50 0 76 33q12 15 12 48z" />
<glyph unicode="&#xe5;" horiz-adv-x="423" d="M203 462q-38 0 -64 21t-26 52q0 30 26 51t64 21q37 0 63 -21t26 -51q0 -31 -26 -52t-63 -21zM203 486q20 0 33.5 14t13.5 34t-13.5 34t-33.5 14t-34 -13.5t-14 -33.5q0 -22 13.5 -35.5t34.5 -13.5zM334 297v-192q0 -49 13 -67q12 -17 36 -17q5 0 22 4q8 0 8 -8 q-1 -8 -23.5 -17t-42.5 -9q-23 0 -39 11t-34 38q-71 -53 -131 -53q-47 0 -74 24.5t-27 66.5q0 56 51.5 87t173.5 49v61q0 50 -15 70q-27 37 -80 37q-67 0 -67 -56q0 -12 7 -35q3 -12 3 -16q0 -9 -9 -9q-16 0 -44 10q-17 6 -17 21t13 38t29 37q45 38 110 38q37 0 70.5 -14 t50.5 -36q16 -22 16 -63zM267 98v98q-62 -6 -110 -30q-50 -24 -50 -76q0 -33 20 -53t52 -20q50 0 76 33q12 15 12 48z" />
<glyph unicode="&#xe6;" horiz-adv-x="649" d="M341 241l-10 -1q0 -62 23 -109q20 -44 57 -69.5t81 -25.5q28 0 60.5 13t54.5 33q6 6 10 6q6 0 6 -7q0 -15 -34 -43q-61 -51 -137 -51q-81 0 -147 80q-82 -80 -165 -80q-46 0 -72.5 24t-26.5 66q0 56 53.5 88.5t170.5 47.5v73q0 45 -20 65q-28 30 -76 30q-29 0 -46 -14.5 t-17 -38.5q0 -12 6 -36q4 -11 4 -16q0 -11 -12 -11q-26 0 -51 15q-9 4 -9 14t8 29t18 31q19 25 54 40.5t73 15.5q83 0 126 -59q58 59 127 59q40 0 76.5 -20.5t60.5 -56.5q10 -16 20 -40t10 -33q0 -11 -12 -15h-43q-19 0 -31.5 -0.5t-31 -1t-38.5 -0.5q-66 -2 -100 -2h-20z M332 267q161 0 185 4q11 2 15 5.5t4 10.5q0 21 -16 48q-31 53 -89 53q-40 0 -69.5 -36t-29.5 -85zM265 95v101q-64 -8 -110 -31q-49 -25 -49 -75q0 -32 20.5 -53t52.5 -21q20 0 41.5 9.5t32.5 23.5q12 13 12 46z" />
<glyph unicode="&#xe7;" horiz-adv-x="399" d="M358 375l-1 -15q0 -3 3 -27q1 -3 1 -10q0 -27 -12 -27q-4 0 -13 15q-16 29 -53 49.5t-72 20.5q-47 0 -77.5 -44t-30.5 -112q0 -81 46.5 -138t111.5 -57q30 0 53 9.5t56 34.5q8 6 11 6q8 0 8 -7q0 -12 -30 -37q-58 -49 -136 -49q-81 0 -133.5 56.5t-52.5 144.5 q0 90 63 156t150 66q42 0 75.5 -11t32.5 -24zM175 -102q0 9 17 19q7 4 14 14q7 9 16 10q7 1 20 -9t20 -23q12 -21 12 -41q0 -35 -30 -60q-36 -31 -61 -31q-10 0 -10 9q0 6 10 10q35 15 35 47q0 27 -30 41q-13 7 -13 14z" />
<glyph unicode="&#xe8;" horiz-adv-x="419" d="M193 485l-61 67q-14 16 -14 22q0 18 19 18q35 0 45 -2q4 -1 6 -4t14 -32q2 -6 9 -19.5t9 -18.5q15 -31 15 -38q0 -11 -8 -11q-6 0 -34 18zM104 243v-20q0 -78 47 -133t113 -55q52 0 115 47q4 4 8 4q6 0 6 -8q0 -15 -39 -45q-63 -46 -130 -46q-78 0 -132.5 61t-54.5 147 t55.5 151t128.5 65q83 0 133 -69q12 -17 24 -45.5t12 -39.5q0 -16 -34 -16q-6 0 -18 0.5t-16 0.5l-34 1h-184zM106 269h165q24 0 31.5 3t7.5 12q0 29 -22 60q-32 45 -83 45q-40 0 -66.5 -32.5t-32.5 -87.5z" />
<glyph unicode="&#xe9;" horiz-adv-x="419" d="M310 552l-61 -67q-26 -18 -33 -18q-8 0 -8 11q0 7 15 38q4 8 10 21t8 17l10 25q4 10 11.5 11.5t43.5 1.5q19 0 19 -18q0 -6 -15 -22zM104 243v-20q0 -78 47 -133t113 -55q52 0 115 47q4 4 8 4q6 0 6 -8q0 -15 -39 -45q-63 -46 -130 -46q-78 0 -132.5 61t-54.5 147 t55.5 151t128.5 65q83 0 133 -69q12 -17 24 -45.5t12 -39.5q0 -16 -34 -16q-6 0 -18 0.5t-16 0.5l-34 1h-184zM106 269h165q24 0 31.5 3t7.5 12q0 29 -22 60q-32 45 -83 45q-40 0 -66.5 -32.5t-32.5 -87.5z" />
<glyph unicode="&#xea;" horiz-adv-x="419" d="M279 481l-52 55q-5 6 -10 8q-3 0 -6 -5q-6 -6 -12 -14q-9 -9 -27 -36q-13 -20 -22 -20q-7 0 -15.5 5t-8.5 10q0 6 15 26q62 76 66 79q6 6 23 6q15 0 23 -4.5t25 -22.5q69 -74 69 -78q0 -7 -13 -13q-26 -11 -34 -11q-7 0 -21 15zM104 243v-20q0 -78 47 -133t113 -55 q52 0 115 47q4 4 8 4q6 0 6 -8q0 -15 -39 -45q-63 -46 -130 -46q-78 0 -132.5 61t-54.5 147t55.5 151t128.5 65q83 0 133 -69q12 -17 24 -45.5t12 -39.5q0 -16 -34 -16q-6 0 -18 0.5t-16 0.5l-34 1h-184zM106 269h165q24 0 31.5 3t7.5 12q0 29 -22 60q-32 45 -83 45 q-40 0 -66.5 -32.5t-32.5 -87.5z" />
<glyph unicode="&#xeb;" horiz-adv-x="419" d="M297 480q-9 0 -27 21t-18 32t17 31t27 19t26.5 -20.5t16.5 -30.5q0 -10 -22 -39q-11 -13 -20 -13zM158 480q-9 0 -27 21t-18 32t17 31t27 19t26.5 -20.5t16.5 -30.5q0 -10 -22 -39q-11 -13 -20 -13zM104 243v-20q0 -78 47 -133t113 -55q52 0 115 47q4 4 8 4q6 0 6 -8 q0 -15 -39 -45q-63 -46 -130 -46q-78 0 -132.5 61t-54.5 147t55.5 151t128.5 65q83 0 133 -69q12 -17 24 -45.5t12 -39.5q0 -16 -34 -16q-6 0 -18 0.5t-16 0.5l-34 1h-184zM106 269h165q24 0 31.5 3t7.5 12q0 29 -22 60q-32 45 -83 45q-40 0 -66.5 -32.5t-32.5 -87.5z" />
<glyph unicode="&#xec;" horiz-adv-x="264" d="M105 485l-61 67q-14 16 -14 22q0 18 19 18q35 0 45 -2q4 -1 6 -4t14 -32q2 -6 9 -19.5t9 -18.5q15 -31 15 -38q0 -11 -8 -11q-6 0 -34 18zM170 329v-249q0 -40 9 -49.5t53 -14.5q17 -2 17 -12q0 -9 -13 -9q-2 0 -32 2q-10 2 -65 2q-18 0 -51 -3q-16 -2 -18 -2 q-13 0 -13 9q0 7 18 13t24 23q4 8 4 38v213q0 41 -8.5 52.5t-37.5 11.5q-12 0 -14 7q-1 4 4 7.5t21 8.5l16 6q8 4 26.5 12t27.5 13l21 11q4 2 5 2q4 0 5 -11.5t1 -80.5z" />
<glyph unicode="&#xed;" horiz-adv-x="264" d="M215 552l-61 -67q-26 -18 -33 -18q-8 0 -8 11q0 7 15 38q4 8 10 21t8 17l10 25q4 10 11 11.5t44 1.5q19 0 19 -18q0 -6 -15 -22zM170 329v-249q0 -40 9 -49.5t53 -14.5q17 -2 17 -12q0 -9 -13 -9q-2 0 -32 2q-10 2 -65 2q-18 0 -51 -3q-16 -2 -18 -2q-13 0 -13 9 q0 7 18 13t24 23q4 8 4 38v213q0 41 -8.5 52.5t-37.5 11.5q-12 0 -14 7q-1 4 4 7.5t21 8.5l16 6q8 4 26.5 12t27.5 13l21 11q4 2 5 2q4 0 5 -11.5t1 -80.5z" />
<glyph unicode="&#xee;" horiz-adv-x="264" d="M191 481l-52 55q-5 6 -10 8q-3 0 -6 -5q-6 -6 -12 -14q-9 -9 -27 -36q-13 -20 -22 -20q-7 0 -15.5 5t-8.5 10q0 6 15 26q62 76 66 79q6 6 23 6q15 0 23 -4.5t25 -22.5q69 -74 69 -78q0 -7 -13 -13q-26 -11 -34 -11q-7 0 -21 15zM170 329v-249q0 -40 9 -49.5t53 -14.5 q17 -2 17 -12q0 -9 -13 -9q-2 0 -32 2q-10 2 -65 2q-18 0 -51 -3q-16 -2 -18 -2q-13 0 -13 9q0 7 18 13t24 23q4 8 4 38v213q0 41 -8.5 52.5t-37.5 11.5q-12 0 -14 7q-1 4 4 7.5t21 8.5l16 6q8 4 26.5 12t27.5 13l21 11q4 2 5 2q4 0 5 -11.5t1 -80.5z" />
<glyph unicode="&#xef;" horiz-adv-x="264" d="M196 480q-9 0 -27 21t-18 32t17 31t27 19t26.5 -20.5t16.5 -30.5q0 -10 -22 -39q-11 -13 -20 -13zM77 480q-9 0 -27 21t-18 32t17 31t27 19t26.5 -20.5t16.5 -30.5q0 -10 -22 -39q-11 -13 -20 -13zM170 329v-249q0 -40 9 -49.5t53 -14.5q17 -2 17 -12q0 -9 -13 -9 q-2 0 -32 2q-10 2 -65 2q-18 0 -51 -3q-16 -2 -18 -2q-13 0 -13 9q0 7 18 13t24 23q4 8 4 38v213q0 41 -8.5 52.5t-37.5 11.5q-12 0 -14 7q-1 4 4 7.5t21 8.5l16 6q8 4 26.5 12t27.5 13l21 11q4 2 5 2q4 0 5 -11.5t1 -80.5z" />
<glyph unicode="&#xf0;" horiz-adv-x="504" d="M320 667l-96 -61q95 -59 150 -135q94 -127 94 -260q0 -93 -49 -149q-64 -75 -171 -75q-91 0 -151 59t-60 148q0 90 61.5 153t148.5 63q68 0 116 -39q-35 120 -169 214l-98 -63q-18 -11 -20 -11q-4 0 -9 6.5t-5 10.5q0 5 19 17l88 56q-43 29 -114 48q-13 1 -13 11 q0 14 13 14q44 0 143 -53l106 67q1 1 10 7q4 3 8 3t8 -6t4 -11t-14 -14zM106 228q0 -95 46 -157.5t117 -62.5q60 0 94.5 44t34.5 121q0 97 -43.5 157.5t-113.5 60.5q-61 0 -98 -45t-37 -118z" />
<glyph unicode="&#xf1;" horiz-adv-x="550" d="M174 493q-4 0 -8 3t-4 5q0 1 1 3l2 4q9 29 31 45t52 16q25 0 64 -13q41 -13 56 -13q23 0 42 20q3 4 6 4q4 0 8.5 -3.5t4.5 -5.5q0 -6 -12 -24q-27 -41 -67 -41q-26 0 -104 22q-12 4 -26 4q-23 0 -39 -22q-4 -4 -7 -4zM64 -3h-2q-10 0 -10 7q0 5 3.5 7t23.5 9q25 9 25 70 v207q0 34 -8.5 47.5t-30.5 12.5l-21 -1q-13 0 -13 9q0 7 12 9q51 14 108 43q7 4 12 4t6.5 -5.5t1.5 -27.5v-56q64 78 137 78q39 0 74 -20.5t55 -54.5q24 -41 24 -123v-117q0 -46 10 -59q11 -13 53 -19q13 -3 13 -10q0 -13 -17 -11l-18 1q-19 3 -67 2l-74 -2q-9 0 -9 9 q0 5 3 6.5t20 6.5q14 4 16.5 14t2.5 60v130q0 64 -24 96q-33 46 -95 46q-51 0 -88 -39q-16 -17 -16 -40v-186q0 -36 2 -47t10 -20q15 -15 57 -18q16 -1 16 -10t-11 -9q-7 0 -25 3q-8 1 -39 1q-86 0 -117 -3z" />
<glyph unicode="&#xf2;" horiz-adv-x="505" d="M226 485l-61 67q-14 16 -14 22q0 18 19 18q35 0 45 -2q4 -1 6 -4t14 -32q2 -6 9 -19.5t9 -18.5q15 -31 15 -38q0 -11 -8 -11q-6 0 -34 18zM37 197q0 47 22.5 93.5t57.5 73.5q60 46 137 46q89 0 151.5 -62t62.5 -150q0 -90 -62.5 -150.5t-155.5 -60.5t-153 59t-60 151z M106 227q0 -94 47 -156.5t117 -62.5q59 0 94 45t35 121q0 95 -44 156t-113 61q-61 0 -98.5 -45t-37.5 -119z" />
<glyph unicode="&#xf3;" horiz-adv-x="505" d="M336 552l-61 -67q-26 -18 -33 -18q-8 0 -8 11q0 7 15 38q4 8 10 21t8 17l10 25q4 10 11.5 11.5t43.5 1.5q19 0 19 -18q0 -6 -15 -22zM37 197q0 47 22.5 93.5t57.5 73.5q60 46 137 46q89 0 151.5 -62t62.5 -150q0 -90 -62.5 -150.5t-155.5 -60.5t-153 59t-60 151zM106 227 q0 -94 47 -156.5t117 -62.5q59 0 94 45t35 121q0 95 -44 156t-113 61q-61 0 -98.5 -45t-37.5 -119z" />
<glyph unicode="&#xf4;" horiz-adv-x="505" d="M308 481l-52 55q-5 6 -10 8q-4 0 -6 -5q-6 -6 -12 -14q-9 -9 -27 -36q-13 -20 -22 -20q-7 0 -15.5 5t-8.5 10q0 6 15 26q62 76 66 79q6 6 23 6q15 0 23 -4.5t25 -22.5q69 -74 69 -78q0 -7 -13 -13q-26 -11 -34 -11q-7 0 -21 15zM37 197q0 47 22.5 93.5t57.5 73.5 q60 46 137 46q89 0 151.5 -62t62.5 -150q0 -90 -62.5 -150.5t-155.5 -60.5t-153 59t-60 151zM106 227q0 -94 47 -156.5t117 -62.5q59 0 94 45t35 121q0 95 -44 156t-113 61q-61 0 -98.5 -45t-37.5 -119z" />
<glyph unicode="&#xf5;" horiz-adv-x="505" d="M151 493q-4 0 -8 3t-4 5q0 1 1 3q2 2 2 4q9 29 31 45t52 16q25 0 64 -13q41 -13 56 -13q23 0 42 20q3 4 6 4q4 0 8.5 -3.5t4.5 -5.5q0 -6 -12 -24q-27 -41 -67 -41q-26 0 -104 22q-12 4 -26 4q-23 0 -39 -22q-4 -4 -7 -4zM37 197q0 47 22.5 93.5t57.5 73.5q60 46 137 46 q89 0 151.5 -62t62.5 -150q0 -90 -62.5 -150.5t-155.5 -60.5t-153 59t-60 151zM106 227q0 -94 47 -156.5t117 -62.5q59 0 94 45t35 121q0 95 -44 156t-113 61q-61 0 -98.5 -45t-37.5 -119z" />
<glyph unicode="&#xf6;" horiz-adv-x="505" d="M327 480q-9 0 -27 21t-18 32t17 31t27 19t26.5 -20.5t16.5 -30.5q0 -10 -22 -39q-11 -13 -20 -13zM188 480q-9 0 -27 21t-18 32t17 31t27 19t26.5 -20.5t16.5 -30.5q0 -10 -22 -39q-11 -13 -20 -13zM37 197q0 47 22.5 93.5t57.5 73.5q60 46 137 46q89 0 151.5 -62 t62.5 -150q0 -90 -62.5 -150.5t-155.5 -60.5t-153 59t-60 151zM106 227q0 -94 47 -156.5t117 -62.5q59 0 94 45t35 121q0 95 -44 156t-113 61q-61 0 -98.5 -45t-37.5 -119z" />
<glyph unicode="&#xf7;" d="M253 436q-11 0 -31.5 23.5t-20.5 35.5t19.5 34t30.5 21t29.5 -23t18.5 -34t-18.5 -34.5t-27.5 -22.5zM151 309l-57 -1q-6 0 -16 -1t-11 -1q-16 0 -16 10q0 4 11 35q4 12 22 12h13q9 0 76.5 -2.5t78.5 -2.5h122l56 -1q20 0 20 -12q0 -7 -12 -23q-11 -13 -14.5 -15.5 t-15.5 -2.5q-11 0 -18 1q-17 0 -36 0.5t-29 1t-13 0.5l-84 1q-8 0 -33.5 0.5t-43.5 0.5zM201 175q0 13 19.5 35t30.5 21t29.5 -23.5t18.5 -34.5q0 -11 -18.5 -34t-27.5 -23q-11 0 -31.5 23.5t-20.5 35.5z" />
<glyph unicode="&#xf8;" horiz-adv-x="510" d="M109 38l-43 -43q-9 -9 -13 -9q-6 0 -11.5 5t-5.5 11q0 5 8 13l44 44q-48 53 -48 135q0 46 23 93.5t60 76.5q59 46 138 46q68 0 135 -43l44 44q13 13 16 13q5 0 10.5 -6t5.5 -12q0 -5 -12 -17l-43 -43q57 -70 57 -146q0 -91 -62 -152t-154 -61q-90 0 -149 51zM135 106 l226 227q-45 61 -115 61q-61 0 -98.5 -45.5t-37.5 -119.5q0 -71 25 -123zM151 80q47 -71 124 -71q59 0 94.5 45.5t35.5 121.5q0 57 -28 130z" />
<glyph unicode="&#xf9;" horiz-adv-x="527" d="M229 485l-61 67q-14 16 -14 22q0 18 19 18q35 0 45 -2q4 -1 6 -4t14 -32q2 -6 9 -19.5t9 -18.5q15 -31 15 -38q0 -11 -8 -11q-6 0 -34 18zM366 42v18q-23 -29 -40 -41q-42 -32 -99 -32q-28 0 -58 11.5t-47 28.5q-43 41 -40 120l1 32v162q0 27 -13 37q-7 7 -35 9 q-12 1 -12 9q0 6 4.5 8t23.5 3h2q42 2 74 9q8 2 11 2q8 0 10.5 -5.5t2.5 -25.5l-2 -234q0 -61 29.5 -96t79.5 -35q52 0 87 37q21 22 21 60v3l-1 216q0 28 -8.5 37.5t-35.5 10.5q-16 0 -16 10q0 8 8.5 10t59.5 4q12 0 38 8q10 2 12 2q10 0 10 -24v-300q0 -47 7 -60t34 -13h8 q3 1 7 1q11 0 11 -8t-7.5 -9.5t-51.5 -3.5q-34 -2 -41 -4q-12 -3 -19 -3q-9 0 -12 9t-3 37z" />
<glyph unicode="&#xfa;" horiz-adv-x="527" d="M340 552l-61 -67q-26 -18 -33 -18q-8 0 -8 11q0 7 15 38q4 8 10 21t8 17l10 25q4 10 11.5 11.5t43.5 1.5q19 0 19 -18q0 -6 -15 -22zM366 42v18q-23 -29 -40 -41q-42 -32 -99 -32q-28 0 -58 11.5t-47 28.5q-43 41 -40 120l1 32v162q0 27 -13 37q-7 7 -35 9q-12 1 -12 9 q0 6 4.5 8t23.5 3h2q42 2 74 9q8 2 11 2q8 0 10.5 -5.5t2.5 -25.5l-2 -234q0 -61 29.5 -96t79.5 -35q52 0 87 37q21 22 21 60v3l-1 216q0 28 -8.5 37.5t-35.5 10.5q-16 0 -16 10q0 8 8.5 10t59.5 4q12 0 38 8q10 2 12 2q10 0 10 -24v-300q0 -47 7 -60t34 -13h8q3 1 7 1 q11 0 11 -8t-7.5 -9.5t-51.5 -3.5q-34 -2 -41 -4q-12 -3 -19 -3q-9 0 -12 9t-3 37z" />
<glyph unicode="&#xfb;" horiz-adv-x="527" d="M315 481l-52 55q-5 6 -10 8q-3 0 -6 -5q-6 -6 -12 -14q-9 -9 -27 -36q-13 -20 -22 -20q-7 0 -15.5 5t-8.5 10q0 6 15 26q62 76 66 79q6 6 23 6q15 0 23 -4.5t25 -22.5q69 -74 69 -78q0 -7 -13 -13q-26 -11 -34 -11q-7 0 -21 15zM366 42v18q-23 -29 -40 -41 q-42 -32 -99 -32q-28 0 -58 11.5t-47 28.5q-43 41 -40 120l1 32v162q0 27 -13 37q-7 7 -35 9q-12 1 -12 9q0 6 4.5 8t23.5 3h2q42 2 74 9q8 2 11 2q8 0 10.5 -5.5t2.5 -25.5l-2 -234q0 -61 29.5 -96t79.5 -35q52 0 87 37q21 22 21 60v3l-1 216q0 28 -8.5 37.5t-35.5 10.5 q-16 0 -16 10q0 8 8.5 10t59.5 4q12 0 38 8q10 2 12 2q10 0 10 -24v-300q0 -47 7 -60t34 -13h8q3 1 7 1q11 0 11 -8t-7.5 -9.5t-51.5 -3.5q-34 -2 -41 -4q-12 -3 -19 -3q-9 0 -12 9t-3 37z" />
<glyph unicode="&#xfc;" horiz-adv-x="527" d="M327 480q-9 0 -27 21t-18 32t17 31t27 19t26.5 -20.5t16.5 -30.5q0 -10 -22 -39q-11 -13 -20 -13zM188 480q-9 0 -27 21t-18 32t17 31t27 19t26.5 -20.5t16.5 -30.5q0 -10 -22 -39q-11 -13 -20 -13zM366 42v18q-23 -29 -40 -41q-42 -32 -99 -32q-28 0 -58 11.5t-47 28.5 q-43 41 -40 120l1 32v162q0 27 -13 37q-7 7 -35 9q-12 1 -12 9q0 6 4.5 8t23.5 3h2q42 2 74 9q8 2 11 2q8 0 10.5 -5.5t2.5 -25.5l-2 -234q0 -61 29.5 -96t79.5 -35q52 0 87 37q21 22 21 60v3l-1 216q0 28 -8.5 37.5t-35.5 10.5q-16 0 -16 10q0 8 8.5 10t59.5 4q12 0 38 8 q10 2 12 2q10 0 10 -24v-300q0 -47 7 -60t34 -13h8q3 1 7 1q11 0 11 -8t-7.5 -9.5t-51.5 -3.5q-34 -2 -41 -4q-12 -3 -19 -3q-9 0 -12 9t-3 37z" />
<glyph unicode="&#xfd;" horiz-adv-x="391" d="M303 552l-61 -67q-26 -18 -33 -18q-8 0 -8 11q0 7 15 38q4 8 10 21t8 17l10 25q4 10 11 11.5t44 1.5q19 0 19 -18q0 -6 -15 -22zM168 41l-122 284q-12 28 -21.5 38.5t-26.5 15.5q-11 3 -11 9q0 11 17 11q1 0 9 -1t14 -1l43 -1q50 -1 70 2l19 1q12 0 12 -10q0 -9 -26 -13 q-29 -4 -29 -23q0 -21 15 -55l96 -228l73 201q12 34 12 58q0 25 -15 38q-7 6 -37 13q-12 3 -12 10q0 9 9 9q12 0 20 -1q7 -1 37 -1q48 0 59 1q9 1 22 1q10 0 10 -8q0 -7 -11 -11q-20 -8 -26.5 -16t-16.5 -34l-173 -487q-8 -25 -12 -29q-4 -3 -37 -3q-22 0 -27.5 1t-5.5 6 q0 4 6 9q35 36 60 81.5t25 74.5q0 16 -19 58z" />
<glyph unicode="&#xfe;" horiz-adv-x="499" d="M80 -78v661q0 46 -9.5 57t-47.5 13q-14 0 -14 7q0 8 12 11q32 8 69 24t42 23q7 5 8 5q9 0 9 -23l-2 -362q72 72 144 72q73 0 122 -55t49 -136q0 -97 -59.5 -164.5t-144.5 -67.5q-47 0 -111 29v-98q0 -54 14.5 -70.5t61.5 -18.5q15 0 15 -10q0 -9 -17 -9q-12 0 -22 1 l-98 1q-13 0 -28 -1q-5 0 -11.5 -0.5t-15.5 -0.5h-8q-10 0 -10 8t13 11q32 6 37 40q2 11 2 53zM147 285v-166q0 -42 20 -63q38 -43 106 -43q61 0 97 42.5t36 114.5q0 86 -42 141t-107 55q-45 0 -77.5 -23.5t-32.5 -57.5z" />
<glyph unicode="&#xff;" horiz-adv-x="391" d="M290 480q-9 0 -27 21t-18 32t17 31t27 19t26.5 -20.5t16.5 -30.5q0 -10 -22 -39q-11 -13 -20 -13zM151 480q-9 0 -27 21t-18 32t17 31t27 19t26.5 -20.5t16.5 -30.5q0 -10 -22 -39q-11 -13 -20 -13zM168 41l-122 284q-12 28 -21.5 38.5t-26.5 15.5q-11 3 -11 9 q0 11 17 11q1 0 9 -1t14 -1l43 -1q50 -1 70 2l19 1q12 0 12 -10q0 -9 -26 -13q-29 -4 -29 -23q0 -21 15 -55l96 -228l73 201q12 34 12 58q0 25 -15 38q-7 6 -37 13q-12 3 -12 10q0 9 9 9q12 0 20 -1q7 -1 37 -1q48 0 59 1q9 1 22 1q10 0 10 -8q0 -7 -11 -11 q-20 -8 -26.5 -16t-16.5 -34l-173 -487q-8 -25 -12 -29q-4 -3 -37 -3q-22 0 -27.5 1t-5.5 6q0 4 6 9q35 36 60 81.5t25 74.5q0 16 -19 58z" />
<glyph unicode="&#x152;" horiz-adv-x="980" d="M600 288v-177q0 -50 13.5 -62.5t68.5 -12.5q197 0 251 84q7 11 14 11t7 -10q0 -39 -44 -86q-40 -44 -92 -44q-20 0 -49 3q-84 7 -167 7q-66 0 -152 -9q-45 -5 -65 -5q-56 0 -113.5 17.5t-97.5 46.5q-62 44 -98 119.5t-36 160.5q0 74 27.5 141.5t76.5 113.5 q45 43 111.5 68.5t131.5 25.5q37 0 90 -6q93 -11 151 -11q199 0 235 6q4 0 13.5 1.5t12.5 1.5q17 0 17 -15q0 -7 -1 -11q-5 -32 -5 -43q-3 -43 -6 -54.5t-13 -11.5q-9 0 -9 11v17q0 31 -19 46t-61 17q-93 3 -150 3q-27 0 -34.5 -11t-7.5 -51v-163q0 -31 2 -37q4 -9 17 -9 q3 0 14 0.5t32.5 1t39.5 0.5q65 2 83.5 5t28.5 14q9 9 16 42q4 12 12 12q4 0 7 -4t3 -8q-8 -84 -6 -118l5 -58q0 -4 -3.5 -7t-6.5 -3q-7 0 -10.5 7.5t-11.5 39.5q-6 22 -25 27q-25 9 -87 9q-2 0 -18 -2l-15 -1l-53 2q-14 0 -21 -9q-3 -4 -3 -22zM525 148v360q0 42 -5 62 t-19 36q-39 44 -131 44q-117 0 -185 -76.5t-68 -208.5q0 -154 90 -253q86 -97 206 -97q58 0 85 32.5t27 100.5z" />
<glyph unicode="&#x153;" horiz-adv-x="782" d="M652 244h-183q0 -73 26 -122q21 -41 56 -63.5t76 -22.5q26 0 59.5 13t53.5 31q6 6 10 6q6 0 6 -8q0 -11 -29 -37q-61 -54 -137 -54q-100 0 -155 90q-69 -90 -184 -90q-94 0 -154 58.5t-60 149.5t63 153.5t155 62.5q116 0 180 -95q56 94 151 94q69 0 112 -45 q22 -23 39 -56t17 -53q0 -14 -27 -14q-1 0 -9.5 0.5t-14.5 0.5zM105 227q0 -94 47 -157t117 -63q61 0 96 44.5t35 122.5q0 96 -44.5 156.5t-114.5 60.5q-61 0 -98.5 -45.5t-37.5 -118.5zM471 271l144 -1q10 -1 22 -1q37 0 37 16q0 30 -25 64q-28 40 -81 40q-38 0 -65.5 -34 t-31.5 -84z" />
<glyph unicode="&#x178;" horiz-adv-x="585" d="M416 740q-10 0 -28.5 22t-18.5 34t18.5 32.5t28.5 19.5t27.5 -21.5t17.5 -31.5q0 -12 -24 -41q-11 -14 -21 -14zM237 740q-10 0 -28.5 22t-18.5 34q0 11 18.5 32t28.5 20t27.5 -21.5t17.5 -32.5q0 -13 -24 -40q-11 -14 -21 -14zM339 276v-160q0 -69 8.5 -83t54.5 -19 q15 -2 15 -11q0 -11 -17 -11q-4 0 -26 2q-16 3 -74 5q-11 1 -47 -0.5t-39 -2.5q-16 -2 -19 -2q-11 0 -11 9q0 10 16 12q44 7 54 24.5t10 86.5v146q0 31 -4.5 45.5t-21.5 41.5l-136 217q-27 43 -46.5 57.5t-61.5 20.5q-14 1 -14 9q0 11 19 11q5 0 21 -2q39 -3 74 -3 q70 0 84 2q24 2 26 2q14 0 14 -10q0 -7 -11 -10q-33 -11 -33 -34q0 -7 1.5 -11.5t8.5 -17t25 -41.5l101 -161q11 -17 16 -17t14 14l71 107q39 60 48.5 79t9.5 34q0 17 -14 28t-47 18q-12 3 -12 11q0 9 11 9q9 0 26 -3q18 -3 65 -3q43 0 67 2q22 2 26 2q13 0 13 -9 q0 -8 -12 -11q-30 -9 -47.5 -27t-56.5 -76l-119 -177q-22 -33 -26 -44.5t-4 -48.5z" />
<glyph unicode="&#x2c6;" d="M292 481l-52 55q-5 6 -10 8q-4 0 -6 -5q-6 -6 -12 -14q-9 -9 -27 -36q-13 -20 -22 -20q-7 0 -15.5 5t-8.5 10q0 6 15 26q62 76 66 79q6 6 23 6q15 0 23 -4.5t25 -22.5q69 -74 69 -78q0 -7 -13 -13q-26 -11 -34 -11q-7 0 -21 15z" />
<glyph unicode="&#x2dc;" d="M128 493q-4 0 -8 3t-4 5q0 1 1 3l2 4q9 29 31 45t52 16q25 0 64 -13q41 -13 56 -13q23 0 42 20q3 4 6 4q4 0 8.5 -3.5t4.5 -5.5q0 -6 -12 -24q-27 -41 -67 -41q-26 0 -104 22q-12 4 -26 4q-23 0 -39 -22q-4 -4 -7 -4z" />
<glyph unicode="&#x2000;" horiz-adv-x="437" />
<glyph unicode="&#x2001;" horiz-adv-x="875" />
<glyph unicode="&#x2002;" horiz-adv-x="437" />
<glyph unicode="&#x2003;" horiz-adv-x="875" />
<glyph unicode="&#x2004;" horiz-adv-x="291" />
<glyph unicode="&#x2005;" horiz-adv-x="218" />
<glyph unicode="&#x2006;" horiz-adv-x="145" />
<glyph unicode="&#x2007;" horiz-adv-x="145" />
<glyph unicode="&#x2008;" horiz-adv-x="109" />
<glyph unicode="&#x2009;" horiz-adv-x="175" />
<glyph unicode="&#x200a;" horiz-adv-x="48" />
<glyph unicode="&#x2010;" horiz-adv-x="193" d="M13 213l135 46q24 8 34 13q1 0 3 1t3 1q5 0 5 -22q0 -28 -2 -35t-13 -11q-25 -8 -143 -49q-12 -3 -18 -8q-7 -3 -11 -3q-6 0 -6 15q0 45 13 52z" />
<glyph unicode="&#x2011;" horiz-adv-x="193" d="M13 213l135 46q24 8 34 13q1 0 3 1t3 1q5 0 5 -22q0 -28 -2 -35t-13 -11q-25 -8 -143 -49q-12 -3 -18 -8q-7 -3 -11 -3q-6 0 -6 15q0 45 13 52z" />
<glyph unicode="&#x2012;" horiz-adv-x="193" d="M13 213l135 46q24 8 34 13q1 0 3 1t3 1q5 0 5 -22q0 -28 -2 -35t-13 -11q-25 -8 -143 -49q-12 -3 -18 -8q-7 -3 -11 -3q-6 0 -6 15q0 45 13 52z" />
<glyph unicode="&#x2013;" d="M70 180v54h360v-54h-360z" />
<glyph unicode="&#x2014;" horiz-adv-x="597" d="M0 180v54h597v-54h-597z" />
<glyph unicode="&#x2018;" horiz-adv-x="240" d="M130 461q-23 0 -44 33.5t-21 71.5q0 59 43 112q36 45 60 45q9 0 9 -8q0 -4 -8 -11q-18 -11 -32 -37t-14 -46q0 -53 51 -84q14 -8 14 -16q0 -9 -9 -16q-21 -19 -28 -28q-14 -16 -21 -16z" />
<glyph unicode="&#x2019;" horiz-adv-x="240" d="M72 461q-9 0 -9 8q0 4 8 11q17 11 31.5 37t14.5 46q0 55 -51 84q-14 8 -14 16t9 17q21 18 28 27q14 16 21 16q13 0 32 -19q33 -34 33 -86q0 -58 -43 -112q-37 -45 -60 -45z" />
<glyph unicode="&#x201a;" horiz-adv-x="240" d="M52 53q0 8 9 17q19 17 28 27q14 16 21 16q13 0 32 -19q33 -34 33 -86q0 -58 -43 -112q-37 -45 -60 -45q-9 0 -9 8q0 4 8 11q17 11 31.5 37t14.5 46q0 55 -51 84q-14 8 -14 16z" />
<glyph unicode="&#x201c;" horiz-adv-x="404" d="M294 461q-23 0 -44 33.5t-21 71.5q0 59 43 112q35 45 60 45q9 0 9 -8q0 -4 -8 -11q-17 -11 -31.5 -37t-14.5 -46q0 -53 51 -84q14 -8 14 -16q0 -9 -9 -16q-21 -19 -28 -28q-14 -16 -21 -16zM130 461q-23 0 -44 33.5t-21 71.5q0 59 43 112q36 45 60 45q9 0 9 -8 q0 -4 -8 -11q-18 -11 -32 -37t-14 -46q0 -53 51 -84q14 -8 14 -16q0 -9 -9 -16q-21 -19 -28 -28q-14 -16 -21 -16z" />
<glyph unicode="&#x201d;" horiz-adv-x="404" d="M236 461q-9 0 -9 8q0 4 8 11q17 11 31.5 37t14.5 46q0 55 -51 84q-14 8 -14 16t9 17q21 18 28 27q14 16 21 16q15 0 32 -19q33 -34 33 -86q0 -58 -43 -112q-37 -45 -60 -45zM72 461q-9 0 -9 8q0 4 8 11q17 11 31.5 37t14.5 46q0 55 -51 84q-14 8 -14 16t9 17q21 18 28 27 q14 16 21 16q13 0 32 -19q33 -34 33 -86q0 -58 -43 -112q-37 -45 -60 -45z" />
<glyph unicode="&#x201e;" horiz-adv-x="404" d="M216 52q0 8 9 17q19 17 28 27q14 16 21 16q15 0 32 -19q33 -35 33 -86q0 -58 -43 -112q-37 -45 -60 -45q-9 0 -9 8q0 4 8 11q18 11 32 37t14 46q0 30 -19 58q-8 12 -32 26q-14 8 -14 16zM52 52q0 8 9 17q21 18 28 27q14 16 21 16q13 0 32 -19q33 -35 33 -86 q0 -58 -43 -112q-37 -45 -60 -45q-9 0 -9 8q0 4 8 11q17 11 31.5 37t14.5 46q0 31 -19 58q-9 13 -32 26q-14 8 -14 16z" />
<glyph unicode="&#x2022;" horiz-adv-x="667" d="M335 200q-58 0 -98.5 40.5t-40.5 97.5q0 58 40.5 98.5t99.5 40.5q56 0 96.5 -41t40.5 -98t-40.5 -97.5t-97.5 -40.5z" />
<glyph unicode="&#x2026;" horiz-adv-x="729" d="M544 51q0 7 17 17q14 9 29 29q11 18 20 18q8 0 19 -18q5 -12 25 -25q19 -14 19 -23q0 -7 -18 -19q-21 -15 -33 -36q-5 -8 -14 -8q-8 0 -21 18q-9 15 -26 26t-17 21zM301 51q0 7 17 17q14 9 29 29q11 18 20 18q8 0 19 -18q5 -12 25 -25q19 -14 19 -23q0 -7 -18 -19 q-21 -15 -33 -36q-5 -8 -14 -8q-7 0 -21 18q-9 15 -26 26t-17 21zM58 51q0 7 17 17q14 9 29 29q11 18 20 18q8 0 19 -18q5 -12 25 -25q19 -14 19 -23q0 -7 -18 -19q-21 -15 -33 -36q-5 -8 -14 -8q-8 0 -21 18q-9 15 -26 26t-17 21z" />
<glyph unicode="&#x202f;" horiz-adv-x="175" />
<glyph unicode="&#x2039;" horiz-adv-x="220" d="M113 90q-22 33 -56 67q-26 26 -24 40q1 7 5 14t29 38q43 55 60 95q7 14 16 14q12 0 12 -14q0 -16 -22 -67q-27 -62 -27 -78q0 -13 22 -53q16 -32 25 -53q9 -24 13 -28q7 -14 7 -19q0 -4 -4.5 -8t-9.5 -4q-7 0 -12.5 7t-33.5 49z" />
<glyph unicode="&#x203a;" horiz-adv-x="220" d="M47 46q0 5 7 19q10 19 13 28q13 31 25 53q22 40 22 54q0 15 -27 78q-22 52 -22 66t12 14q9 0 16 -14q25 -52 83 -125q9 -11 11 -23t-25 -39q-34 -36 -74 -96q-18 -27 -27 -27q-5 0 -9.5 4t-4.5 8z" />
<glyph unicode="&#x205f;" horiz-adv-x="218" />
<glyph unicode="&#x20ac;" horiz-adv-x="771" d="M33 281l15 36h53v9q0 13 1 27h-69l15 36h58q24 133 118 212t229 79q102 0 187 -46q30 -17 36 -17q3 0 7 4q11 8 15 8q7 0 10 -19l16 -117q1 -6 1 -12q0 -10 -9 -10q-6 0 -17 20q-91 161 -249 161q-118 0 -188 -69.5t-78 -193.5h412l-15 -36h-398q3 -33 3 -36h379l-15 -36 h-359q22 -121 96.5 -191.5t180.5 -70.5q86 0 157 47q63 41 85 87q9 18 12 22t8 4q8 0 8 -9q0 -3 -2 -17l-12 -59l-1 -9q-1 -9 -5.5 -13.5t-21.5 -14.5q-112 -70 -240 -70q-149 0 -241 76t-111 218h-71z" />
<glyph unicode="&#x2122;" horiz-adv-x="887" d="M478 420l-1 -62q0 -27 7.5 -39.5t24.5 -15.5q20 -3 20 -11q0 -10 -13 -10q-1 0 -31 2q-5 0 -12 0.5t-10.5 1t-5.5 0.5q-23 0 -36 -3q-4 -1 -10 -1q-11 0 -11 9q0 7 9 10q16 4 23 11.5t10 24.5q2 14 6.5 98t4.5 117q0 47 -12.5 69t-42.5 29q-11 1 -11 9q0 10 10 10 q5 0 10 -1l47 1q6 1 12 1q13 0 22 -20l135 -285l138 291q5 10 7.5 12.5t7.5 2.5q6 0 14 -1h9q24 0 28 1h9q8 0 8 -9q0 -5 -3 -7t-17 -6q-24 -6 -23 -56l1 -68l6 -149q2 -50 6.5 -59.5t27.5 -13.5q18 -1 18 -10t-14 -9q-3 0 -29 2q-7 1 -23 1l-50 -2q-4 -1 -11 -1 q-11 0 -11 9q0 6 9 9q16 4 21 13t5 30q0 29 -1 47l-7 162q-16 -28 -18 -32q-41 -84 -84 -175l-20 -42q-7 -15 -15 -15t-16 16l-8 15l-104 221zM190 286l-41 -1q-4 0 -8 -0.5t-7 -0.5h-3q-13 0 -13 9q0 7 12 9q19 3 25 7.5t8 18.5q1 4 1 31v254q0 14 -2 16.5t-11 2.5h-74 q-22 0 -30.5 -8t-14.5 -32q-3 -13 -11 -13t-8 12q0 3 3 20q4 17 4 32q1 15 4.5 19.5t14.5 4.5h299q19 0 22.5 -4.5t3.5 -26.5q0 -13 1 -18q2 -12 2 -14q0 -12 -10 -12q-6 0 -9 11q-4 19 -11 24t-29 5h-79q-11 0 -13 -2.5t-2 -13.5v-255q0 -35 5.5 -45t28.5 -14q13 -3 13 -10 q0 -9 -11 -9q-2 0 -14 2z" />
<glyph unicode="&#x25fc;" horiz-adv-x="400" d="M0 400h400v-400h-400v400z" />
</font>
</defs>
</svg>
