<?xml version="1.0" standalone="no"?>
<!DOCTYPE svg PUBLIC "-//W3C//DTD SVG 1.1//EN" "http://www.w3.org/Graphics/SVG/1.1/DTD/svg11.dtd" >
<svg xmlns="http://www.w3.org/2000/svg">
<metadata></metadata>
<defs>
<font id="goudy_oldstyle_fsitalic" horiz-adv-x="500" >
<font-face units-per-em="1000" ascent="726" descent="-274" />
<missing-glyph horiz-adv-x="250" />
<glyph unicode="&#xfb01;" horiz-adv-x="473" d="M177 360l-29 -231q-16 -128 -25 -170t-28 -68q-18 -26 -44.5 -42t-52.5 -16q-14 0 -14 16q0 45 8 61q3 8 9 8q8 0 9 -12q5 -34 26 -34q13 0 20.5 16.5t12.5 58.5l44 355q3 25 8 58h-65q-15 0 -19.5 2.5t-4.5 11.5q0 19 27 19h68q20 108 62 176q31 51 75 81.5t87 30.5 q22 0 41.5 -7.5t19.5 -15.5q0 -15 -10.5 -39t-17.5 -24q-3 0 -10 10q-24 34 -60 34q-94 0 -130 -233l-2 -13h147q14 0 50 6q8 2 12 2q13 0 13 -16v-6l-28 -134q-20 -92 -20 -153q0 -30 15 -30q10 0 22.5 12t20.5 29q5 12 11 12q8 0 8 -9q0 -31 -36.5 -70.5t-65.5 -39.5 q-14 0 -23 22t-9 58q0 38 15 124l20 116q3 15 3 26q1 12 -8.5 15t-47.5 3h-104z" />
<glyph unicode="&#xfb02;" horiz-adv-x="455" d="M72 -32l42 340l4 27q0 1 0.5 5t1.5 9.5t1 10.5h-65q-15 0 -19.5 2.5t-4.5 10.5q0 12 5.5 16t22.5 4h66l10 47q22 111 83 181.5t136 70.5q13 0 31 -3q4 -1 10 -1q4 0 23 5q3 1 8 1q9 0 9 -13q0 -11 -4 -35l-63 -416q-18 -117 -18 -148q0 -25 16 -25q27 0 62 49q9 13 15 13 q8 0 8 -8q0 -15 -23 -47q-20 -29 -47 -47.5t-49 -18.5q-37 0 -37 67q0 34 14 137l60 407q2 14 2 16q0 11 -14.5 18t-36.5 7q-46 0 -74 -38q-21 -27 -39.5 -84t-24.5 -116l-2 -19h72q15 0 19.5 -2.5t4.5 -11.5q0 -11 -5.5 -15t-22.5 -4h-72l-36 -297q-13 -111 -36 -157 t-64 -62q-28 -11 -42 -11q-20 0 -20 18q0 24 7 45t15 21q7 0 10 -13q7 -33 28 -33q12 0 19 21t14 76z" />
<glyph unicode="&#xfb03;" horiz-adv-x="630" d="M71 -28l38 307q4 38 12 81h-65q-15 0 -19.5 2.5t-4.5 10.5q0 12 5.5 16t22.5 4h67q22 110 75 171q67 81 156 81q30 0 68 -15q6 -3 12 -3q8 0 26 14q53 40 99 40q22 0 42 -7.5t20 -15.5q0 -15 -10.5 -39t-17.5 -24q-3 0 -11 10q-23 34 -60 34q-94 0 -130 -233l-2 -13h148 q14 0 49 6q8 2 12 2q13 0 13 -16v-6l-28 -134q-20 -98 -20 -153q0 -30 15 -30q10 0 23 12t21 29q5 12 11 12q8 0 8 -9q0 -31 -36.5 -70t-65.5 -39q-15 0 -24 22t-9 57q0 34 15 124l20 116q3 15 3 26q0 12 -9 15t-47 3h-103l-29 -231q-16 -126 -25.5 -169t-28.5 -69 q-18 -26 -44.5 -42t-52.5 -16q-14 0 -14 16q0 45 8 61q3 8 9 8q8 0 9 -12q5 -34 26 -34q13 0 20.5 16.5t12.5 58.5l44 355q3 25 8 58h-157l-40 -322q-15 -122 -51 -162q-38 -43 -87 -43q-21 0 -21 21q0 16 8 45q5 19 15 19q7 0 8 -15q2 -13 10 -23t15 -10q26 0 38 102z M179 393h160l6 29q6 28 20.5 69.5t22.5 53.5q7 10 7 17q0 17 -23.5 31.5t-50.5 14.5q-61 0 -101 -79q-30 -59 -41 -136z" />
<glyph unicode="&#xfb04;" horiz-adv-x="668" d="M71 -28l38 307q4 38 12 81h-65q-15 0 -19.5 2.5t-4.5 10.5q0 12 5.5 16t22.5 4h67q22 109 75 171q67 81 155 81q27 0 57 -15q6 -3 10 -3q9 0 28 16q32 28 56 38.5t57 10.5q15 0 33 -3q5 -1 10 -1q4 0 23 5q3 1 8 1q9 0 9 -14q0 -9 -4 -34l-63 -416q-18 -120 -18 -148 q0 -26 16 -26q28 0 62 49q10 14 15 14q8 0 8 -8q0 -12 -23 -47q-21 -30 -47.5 -48.5t-48.5 -18.5q-37 0 -37 67q0 44 14 138l63 424q0 11 -15.5 18t-40.5 7q-40 0 -70 -38q-21 -28 -39 -84.5t-25 -116.5l-2 -19h72q15 0 19.5 -2.5t4.5 -11.5q0 -11 -6 -15t-22 -4h-72 l-36 -297q-10 -77 -15.5 -103t-19.5 -54q-16 -31 -47 -52t-60 -21q-20 0 -20 18q0 25 7 45.5t15 20.5q7 0 10 -13q5 -33 28 -33q22 0 34 97l41 340l4 27q1 3 3 25h-157l-40 -322q-15 -122 -51 -162q-38 -43 -87 -43q-21 0 -21 21q0 16 8 45q5 19 15 19q7 0 8 -15 q2 -13 10 -23t15 -10q26 0 38 102zM179 393h159l2 7q2 6 3 10.5t2 11t2 11.5q7 37 13 55.5t26 63.5q2 8 2 9q0 18 -21 32.5t-46 14.5q-61 0 -101 -79q-30 -59 -41 -136z" />
<glyph horiz-adv-x="0" />
<glyph horiz-adv-x="333" />
<glyph unicode=" "  horiz-adv-x="250" />
<glyph unicode="&#x09;" horiz-adv-x="250" />
<glyph unicode="&#xa0;" horiz-adv-x="250" />
<glyph unicode="!" horiz-adv-x="229" d="M195 599l-68 -393q-3 -15 -11 -15q-5 0 -8.5 5t-1.5 10l1 1l18 393q1 40 37 40q34 0 34 -25q0 -10 -1 -16zM79 80l15 16q9 9 14 9t8.5 -3t18.5 -22q13 -13 17 -16q7 -7 7 -11q0 -5 -9 -13q-29 -23 -40 -37q-6 -10 -13 -10q-5 0 -11 10q-12 19 -27 33q-9 8 -9 14 q0 8 12 16q16 12 17 14z" />
<glyph unicode="&#x22;" horiz-adv-x="279" d="M283 571l-40 -150q-5 -15 -14 -15t-9 15l-3 158q0 34 3 46q10 35 42 35q30 0 30 -37q0 -19 -9 -52zM156 571l-39 -150q-5 -15 -14 -15t-9 15l-3 151q0 31 1 41q2 21 14 34t30 13q30 0 30 -37q0 -12 -10 -52z" />
<glyph unicode="#" horiz-adv-x="600" d="M206 215l-35 -170q-5 -26 -12.5 -35.5t-23.5 -9.5q-9 0 -15 6t-6 14q0 5 4 24l36 171h-72q-24 0 -31.5 4t-7.5 15q0 15 16 25q7 4 33 4h70l32 152h-71q-24 0 -31.5 4t-7.5 15q0 15 16 25q7 4 33 4h69l33 159q5 26 13 35.5t24 9.5q22 0 22 -20q0 -3 -2 -13q0 -3 -1 -7 q-1 -3 -1 -4l-33 -160h152l33 159q5 26 12.5 35.5t23.5 9.5q22 0 22 -20q0 -9 -4 -25l-33 -159h69q23 0 31 -4t8 -15q0 -16 -17 -25q-6 -4 -32 -4h-67l-31 -152h68q23 0 31 -4t8 -15q0 -16 -17 -25q-6 -4 -33 -4h-68l-34 -170q-5 -26 -13 -35.5t-24 -9.5q-23 0 -23 20 q0 5 4 24l35 171h-152zM217 263h152l30 152h-152z" />
<glyph unicode="$" d="M189 -99l14 115q-52 7 -83 24q-27 15 -48 38.5t-21 39.5q0 17 11.5 42.5t19.5 25.5t12 -15q19 -65 43 -93t69 -35l35 295l-22 10q-117 53 -117 152q0 69 49.5 114.5t127.5 47.5l5 43q1 14 5 18.5t12 4.5t12.5 -3.5t3.5 -10.5l-6 -54q50 -7 91 -36q42 -31 42 -51 q0 -15 -9.5 -31.5t-17.5 -16.5q-9 0 -16 14q-27 69 -94 89l-28 -232l34 -16q68 -31 95 -67q35 -46 35 -105q0 -84 -57.5 -137.5t-151.5 -56.5l-12 -104q-1 -14 -4.5 -18.5t-12.5 -4.5q-7 0 -12 4.5t-4 9.5zM230 419l19 -9l27 224h-11q-47 0 -82 -32t-35 -75q0 -31 22 -60.5 t60 -47.5zM237 41q64 4 105.5 45.5t41.5 100.5q0 40 -24 74t-64 52l-25 11z" />
<glyph unicode="%" horiz-adv-x="712" d="M611 637l-431 -620q-11 -16 -16.5 -20t-17.5 -4q-17 0 -17 10q0 3 5 9l436 630q12 18 32 18q16 0 16 -9q0 -5 -7 -14zM177 343q-49 0 -79 35t-30 92q0 75 45 130.5t106 55.5q50 0 80 -33.5t30 -89.5q0 -76 -46 -133t-106 -57zM180 364q46 0 70 55q29 61 29 123 q0 94 -60 94q-42 0 -71.5 -51t-29.5 -124q0 -45 16.5 -71t45.5 -26zM419 126q0 75 45 130.5t106 55.5q51 0 80.5 -33.5t29.5 -89.5q0 -76 -45.5 -133.5t-106.5 -57.5q-49 0 -79 35.5t-30 92.5zM469 116q0 -45 16.5 -71t45.5 -26q46 0 70 55q29 61 29 123q0 95 -60 95 q-42 0 -71.5 -51.5t-29.5 -124.5z" />
<glyph unicode="&#x26;" horiz-adv-x="731" d="M469 392l70 30q162 69 162 159q0 29 -19 49t-46 20q-20 0 -35 -15.5t-15 -35.5q0 -18 23 -22q27 -5 27 -19q0 -16 -13.5 -29t-29.5 -13q-24 0 -38.5 17.5t-14.5 46.5q0 38 29.5 67t68.5 29q45 0 74.5 -32t29.5 -81q0 -72 -59 -129q-23 -23 -105 -70q-2 -2 -33 -19 q31 -20 43 -42t12 -57q0 -103 -91.5 -179.5t-214.5 -76.5q-114 0 -182.5 58.5t-68.5 156.5q0 93 65 163q25 26 76 61q-7 35 -7 56q0 79 56 136t133 57q48 0 77.5 -22.5t29.5 -59.5q0 -28 -19 -48.5t-44 -20.5q-20 0 -20 14q0 6 6 16q8 13 8 23q0 19 -16.5 31t-42.5 12 q-52 0 -93 -45.5t-41 -104.5q0 -8 3 -29q30 15 68 15q37 0 59.5 -18t22.5 -47q0 -28 -20 -46.5t-52 -18.5q-62 0 -98 70q-34 -27 -48 -51q-27 -48 -27 -99q0 -89 63 -153t151 -64q85 0 150.5 58t65.5 132q0 38 -24.5 64t-59.5 26q-29 0 -51.5 -22.5t-22.5 -52.5 q0 -19 11.5 -32t27.5 -13q14 0 23 16q5 9 11 9q11 0 11 -14q0 -18 -15 -30.5t-36 -12.5q-32 0 -55.5 29t-23.5 69q0 80 124 134zM279 364q14 0 24 10.5t10 24.5q0 30 -36 30q-22 0 -55 -15l1 -2q18 -48 56 -48z" />
<glyph unicode="'" horiz-adv-x="153" d="M156 571l-39 -150q-5 -15 -14 -15t-9 15l-3 151q0 31 1 41q2 21 14 34t30 13q30 0 30 -37q0 -12 -10 -52z" />
<glyph unicode="(" horiz-adv-x="265" d="M135 -59q-38 71 -61 160.5t-23 162.5q0 102 42 201t120 181q45 48 61 48q13 0 13 -11q0 -6 -15 -17q-65 -45 -107.5 -178.5t-42.5 -290.5q0 -204 67 -287q8 -10 8 -15q0 -9 -10 -9q-22 0 -52 55z" />
<glyph unicode=")" horiz-adv-x="265" d="M17 -86q65 47 107.5 179t42.5 288q0 203 -67 289q-8 10 -8 15q0 9 10 9q24 0 58 -67q35 -72 56.5 -156.5t21.5 -155.5q0 -100 -43 -201.5t-119 -180.5q-46 -47 -61 -47q-13 0 -13 11q0 7 15 17z" />
<glyph unicode="*" horiz-adv-x="381" d="M231 497l-55 -68q-15 -18 -19 -18q-10 0 -24 14.5t-14 24.5q0 7 10 14l67 46q11 9 11 11q0 6 -15 11l-73 21q-26 7 -26 18q0 12 11 30t18 18q6 0 19 -9l67 -54q7 -5 9 -5q2 4 5 11l-6 85v12q0 15 24 15q39 0 39 -18q0 -7 -4 -16l-25 -82q-2 -4 -2 -6q0 -5 4 -5q6 0 9 3 l79 35q10 5 18 5q7 0 13.5 -15.5t6.5 -32.5q0 -16 -31 -17l-76 -3q-17 0 -17 -6q0 -4 8 -14l54 -61q6 -7 6 -14q0 -8 -16 -19.5t-28 -11.5q-8 0 -16 22l-26 71q-2 8 -4 8h-1z" />
<glyph unicode="+" d="M290 302l4 -130q1 -6 1 -14q0 -16 -11 -19q-17 -5 -27 -10q-6 -3 -7 -3q-12 0 -10 25l1 18q2 38 2 49q0 20 -1 42l-1 42l-100 1q-8 0 -32 -2l-22 -1q-19 -2 -19 11q0 8 11 34q4 10 20 10h12q3 0 11 -0.5t25 -0.5t36 -1q4 0 11.5 -0.5t21.5 -1t25 -0.5q0 61 -3 118 q-1 7 -1 17t3.5 15.5t18.5 18.5q8 7 18 7t11.5 -10.5t1.5 -69.5v-97l94 1q60 0 71 -1.5t11 -9.5q0 -11 -11 -31q-5 -11 -26 -11q-13 0 -20 1q-31 1 -51 1.5t-26.5 1t-10.5 0.5h-31z" />
<glyph unicode="," horiz-adv-x="226" d="M46 36q-9 4 -9 10q0 8 18 28q10 10 12 14q12 17 19 17q12 2 31 -24q24 -31 24 -74q0 -63 -53 -121q-35 -39 -52 -39q-7 0 -7 8q0 6 18 24q17 16 29 41.5t12 46.5q0 46 -42 69z" />
<glyph unicode="-" horiz-adv-x="153" d="M7 150q-9 0 -9 18q0 25 8.5 32t46.5 16q43 11 80 27q12 7 18 6q7 -1 7 -15q0 -22 -6.5 -31t-24.5 -14q-35 -7 -108 -36q-6 -3 -12 -3z" />
<glyph unicode="." horiz-adv-x="226" d="M70 80l15 16q9 9 14 9t8.5 -3t18.5 -22q13 -13 17 -16q7 -7 7 -11q0 -5 -9 -13q-29 -23 -40 -37q-6 -10 -13 -10q-5 0 -11 10q-12 19 -27 33q-9 8 -9 14q0 8 12 16q16 12 17 14z" />
<glyph unicode="/" horiz-adv-x="494" d="M-39 -75l537 772q8 11 19 11q24 0 24 -8q0 -2 -22 -34l-544 -781q-8 -12 -12.5 -14.5t-14.5 -2.5q-20 0 -20 8q0 2 33 49z" />
<glyph unicode="0" d="M231 -7q-78 0 -124.5 77.5t-46.5 205.5q0 144 66 266q64 118 171 118q85 0 132.5 -68.5t47.5 -191.5q0 -66 -20 -144t-53 -139q-30 -57 -76.5 -90.5t-96.5 -33.5zM266 55q57 0 96 66q47 83 47 207q0 125 -39.5 205.5t-101.5 80.5t-106 -86t-44 -206q0 -114 42 -190.5 t106 -76.5z" />
<glyph unicode="1" d="M339 522l-50 -406q-2 -24 -2 -35q0 -28 12 -39t43 -13q30 -1 30 -17q0 -15 -19 -15q-7 0 -30 2q-31 3 -70 3q-40 0 -95 -4q-4 -1 -9 -1q-18 0 -18 14q0 16 25 17q36 1 48 19t19 77l45 376q4 36 4 43q0 25 -21 25q-11 0 -35 -9q-9 -4 -18 -4q-11 0 -11 12q0 10 7.5 15 t53.5 25l37 17q19 9 45 32q14 12 21 12q11 0 11 -13q0 -5 -6 -31q-8 -37 -17 -102z" />
<glyph unicode="2" d="M418 99l-61 -87q-8 -11 -10.5 -13t-8.5 -2q-4 0 -24 2q-25 5 -111 5q-98 0 -121 -5q-13 -3 -21 -3q-7 0 -12.5 4t-5.5 9q0 9 18 30l89 108q23 28 67.5 96t63.5 104q53 104 53 176q0 37 -21 58.5t-57 21.5q-41 0 -77 -21q-9 -5 -48 -39q-8 -5 -15 -5q-4 0 -8 4t-4 8 q0 11 17.5 31t43.5 39q52 41 118 41q58 0 96.5 -33.5t38.5 -83.5q0 -59 -48 -146q-42 -76 -97 -149l-109 -143q-12 -15 -12 -23q0 -10 19.5 -12.5t92.5 -2.5q49 0 75 9.5t51 36.5q14 15 23 15q15 0 15 -11q0 -5 -10 -19z" />
<glyph unicode="3" d="M234 345l-22 -1q-5 0 -10 -1l-6 -1q-11 0 -11 12q0 11 18 18q31 12 56 34q72 62 72 126q0 31 -20.5 51t-52.5 20q-31 0 -59 -17q-7 -4 -42 -35q-9 -7 -16 -7q-5 0 -10 4t-5 9q0 16 34 45q65 59 133 59q52 0 82.5 -27t30.5 -73q0 -41 -24 -78t-85 -89q57 -10 80 -27 q42 -31 42 -100q0 -110 -77 -192t-181 -82q-41 0 -82 19.5t-41 38.5q0 6 5 11t11 5q8 0 17 -6q53 -27 90 -27q70 0 123 62.5t53 143.5q0 49 -28 78t-75 27z" />
<glyph unicode="4" d="M68 204q-26 0 -26 15q0 10 11 26.5t79 104.5q63 82 215 261q36 42 43.5 49t16.5 7q13 0 13 -11l-1 -11q-12 -52 -17 -93l-35 -288h16q26 0 48 21q16 15 26 15q11 0 11 -10q0 -4 -1 -6l-26 -67q-3 -8 -8 -10.5t-21 -2.5h-53l-28 -235q-1 -12 -5.5 -16.5t-18.5 -8.5 q-1 -1 -21 -6q-10 -3 -18 -3q-15 0 -15 17q0 6 12 49q4 14 7 40l20 163h-224zM116 264h183l33 270q-70 -68 -216 -270z" />
<glyph unicode="5" d="M236 542l-36 -110q45 6 61 6q81 0 127.5 -44t46.5 -120q0 -109 -82 -195t-186 -86q-46 0 -103 20q-29 11 -29 26q0 16 16 16q8 0 21 -5q49 -19 86 -19q79 0 137 66t58 155q0 53 -34 86.5t-88 33.5q-29 0 -45 -4q-15 -3 -20 -3q-8 0 -14 5.5t-6 12.5q0 8 3 17l76 228 q5 16 12.5 21t25.5 5h153q22 0 28 2t23 15q11 9 20 9q14 0 14 -11q0 -6 -5 -13l-42 -66q-9 -13 -41 -13h-137q-21 0 -26.5 -5t-13.5 -30z" />
<glyph unicode="6" d="M57 211q0 95 49 193t136 177q54 48 134 83q49 20 67 20q17 0 17 -15q0 -13 -23 -20q-137 -43 -213 -166q-17 -27 -51 -100q40 26 67 36t60 10q70 0 113 -50.5t43 -132.5q0 -104 -65.5 -178.5t-158.5 -74.5q-78 0 -126.5 60.5t-48.5 157.5zM138 213q0 -78 33 -128.5 t84 -50.5q54 0 89.5 51t35.5 128q0 73 -32.5 119.5t-83.5 46.5q-55 0 -90.5 -46.5t-35.5 -119.5z" />
<glyph unicode="7" d="M410 450l-68 -135q-38 -76 -62.5 -153t-24.5 -121q0 -29 7 -61q1 -3 1 -9q0 -11 -12 -15q-7 -4 -28 -8.5t-29 -4.5q-29 0 -29 45q0 107 80 248l90 157q41 71 55.5 103t27.5 80h-169q-40 0 -59.5 -12.5t-36.5 -49.5q-8 -17 -18 -17q-15 0 -15 15q0 8 3 17l34 108 q5 17 21 17q1 0 4 -0.5t9 -1t12 -0.5q43 -5 109 -5q68 0 113 5q11 2 25 2q23 0 23 -22q0 -21 -20 -78t-43 -104z" />
<glyph unicode="8" d="M57 159q0 120 135 192q-41 37 -55 60.5t-14 57.5q0 76 57 133.5t132 57.5q64 0 107 -37t43 -93q0 -64 -46 -113q-26 -29 -79 -52q61 -37 84 -71t23 -84q0 -89 -63 -153t-150 -64q-76 0 -125 46.5t-49 119.5zM251 410l49 -26q50 14 73 41q33 36 33 90q0 48 -28 80t-71 32 q-49 0 -85.5 -35.5t-36.5 -82.5q0 -30 18 -56.5t48 -42.5zM306 282l-85 48q-45 -20 -69 -50q-39 -48 -39 -108q0 -62 36 -102.5t92 -40.5q57 0 98 42t41 101q0 68 -74 110z" />
<glyph unicode="9" d="M73 -15q0 12 23 19q140 48 214 166q21 35 50 101q-40 -27 -67 -37t-60 -10q-70 0 -110 46q-46 56 -46 137q0 104 66 178.5t159 74.5q78 0 126.5 -61t48.5 -159q0 -94 -49 -191.5t-136 -176.5q-54 -48 -135 -83q-48 -20 -67 -20q-7 0 -12 4.5t-5 11.5zM270 274 q55 0 90.5 47t35.5 119q0 79 -33 129t-84 50q-55 0 -90.5 -51t-35.5 -128q0 -73 32.5 -119.5t84.5 -46.5z" />
<glyph unicode=":" horiz-adv-x="243" d="M105 365l15 16q9 9 14 9t8.5 -3t18.5 -22q8 -10 17 -16q7 -7 7 -11q0 -6 -9 -13q-29 -23 -40 -37q-6 -10 -12 -10t-12 10q-11 18 -27 33q-9 8 -9 14q0 8 12 16q16 12 17 14zM87 80l15 16q8 9 14 9q5 0 8.5 -3t18.5 -22q5 -6 16 -16q8 -7 8 -12q0 -4 -27 -27 q-8 -6 -22 -22q-6 -10 -13 -10q-5 0 -11 10q-10 16 -27 33q-9 8 -9 14q0 8 12 16q15 11 17 14z" />
<glyph unicode=";" horiz-adv-x="226" d="M76 365l15 16q9 9 14 9q6 0 27 -25q14 -13 17 -16q7 -7 7 -11q0 -6 -9 -13q-28 -22 -39 -37q-8 -10 -14 -10q-5 0 -12 10q-11 19 -26 33q-9 8 -9 13q0 9 12 17zM46 36q-9 4 -9 10q0 7 18 28q10 10 12 14q11 16 19 17q12 2 31 -24q24 -31 24 -74q0 -63 -53 -121 q-35 -39 -52 -39q-7 0 -7 8q0 6 18 24q17 16 29 41.5t12 45.5q0 47 -42 70z" />
<glyph unicode="&#x3c;" d="M44 335v6l412 267v-32l-327 -214l327 -218v-83z" />
<glyph unicode="=" d="M167 362l-57 -1q-6 0 -16 -1t-11 -1q-16 0 -16 10q0 4 11 35q4 12 22 12h13q9 0 76.5 -2.5t78.5 -2.5h122l56 -1q20 0 20 -12q0 -7 -12 -23q-10 -13 -14 -15.5t-16 -2.5q-11 0 -18 1q-17 0 -36 0.5t-29 1t-13 0.5l-84 1q-8 0 -33.5 0.5t-43.5 0.5zM167 242l-57 -1 q-6 0 -16 -1t-11 -1q-16 0 -16 10q0 4 11 35q4 12 22 12h13q10 0 76 -2.5t79 -2.5h122l56 -1q20 0 20 -12q0 -6 -12 -22q-10 -14 -14 -16t-16 -2q-6 0 -49 1q-62 2 -114 2q-21 0 -48.5 0.5t-45.5 0.5z" />
<glyph unicode="&#x3e;" d="M44 61v32l327 214l-327 217v84l412 -274v-6z" />
<glyph unicode="?" horiz-adv-x="284" d="M237 431l-50 -64q-57 -73 -57 -122q0 -6 2 -18q2 -10 2 -13q0 -6 -7 -6q-8 0 -15 17t-7 38q0 48 40 115l43 73q28 49 28 78q0 28 -24.5 51t-53.5 23q-10 0 -15 -2.5t-26 -17.5q-4 -4 -9 -4q-7 0 -7 7q0 16 32 35t60 19q44 0 78.5 -32t34.5 -73q0 -40 -49 -104zM84 80 l15 16q9 9 14 9t8.5 -3t18.5 -22q13 -13 17 -16q7 -7 7 -11q0 -6 -10 -13q-23 -18 -39 -37q-6 -10 -13 -10q-5 0 -11 10q-12 19 -27 33q-9 8 -9 14q0 8 12 16q16 12 17 14z" />
<glyph unicode="@" horiz-adv-x="749" d="M585 -22l9 -32q-107 -46 -231 -46q-165 0 -253 97q-74 80 -74 200q0 104 57 195.5t153 146t205 54.5q124 0 202 -71t78 -184q0 -125 -92 -212q-73 -71 -142 -71q-54 0 -54 64q0 8 3 32q-89 -95 -168 -95q-30 0 -47.5 19t-17.5 52q0 79 74 179q87 115 179 115q20 0 48 -9 q11 -3 16 -3q10 0 34 24q8 8 14 8t6 -7q0 -4 -10 -31q-72 -197 -72 -273q0 -39 26 -39q24 0 53 22t51 58q48 74 48 166q0 101 -64 162.5t-168 61.5q-141 0 -242.5 -111t-101.5 -265q0 -101 55 -168q70 -85 208 -85q113 0 218 46zM276 153q0 -24 12 -37.5t34 -13.5 q47 0 98 55q32 36 41 68q19 61 42 125q6 15 6 24q0 10 -14.5 17.5t-33.5 7.5q-29 0 -62.5 -25t-61.5 -67q-26 -40 -43.5 -84t-17.5 -70z" />
<glyph unicode="A" horiz-adv-x="636" d="M-8 -3q-15 -1 -15 10q0 6 5 8.5t29 10.5q17 5 26.5 18t34.5 62l280 547q8 17 19 17q10 0 15 -17l159 -509q23 -74 35 -98q12 -16 39 -25q14 -4 14 -12q0 -12 -21 -12q-6 0 -12 1q-36 4 -63 4q-2 0 -66 -4l-15 -1q-18 -2 -18 10q0 7 23 13q22 5 30 13.5t7 26.5 q-2 23 -8 40l-34 107q-8 26 -13 30.5t-27 4.5h-201q-23 0 -29.5 -2.5t-12.5 -14.5l-62 -125q-15 -28 -15 -49q0 -14 10 -20.5t40 -12.5q16 -4 16 -13q0 -8 -15 -8q-6 0 -12 1q-35 4 -62 4q-14 0 -34.5 -2t-29.5 -2zM335 542l-122 -236q-7 -13 -7 -16q0 -4 3 -5t19 -1h169 q30 0 30 12q0 3 -3 12l-75 235q-1 10 -7 10q-2 0 -7 -11z" />
<glyph unicode="B" horiz-adv-x="581" d="M112 90l58 475q2 22 2 30q0 43 -46 51q-28 6 -28 14q0 10 14 10q8 0 22 -3q23 -4 41 -4q13 0 80 5q34 3 76 3q104 0 154 -40q49 -41 49 -108q0 -50 -29.5 -91.5t-84.5 -66.5q-12 -5 -12 -10q0 -4 13 -8q51 -14 83 -54.5t32 -92.5q0 -89 -80 -152q-36 -28 -76.5 -39.5 t-107.5 -11.5q-19 0 -53 2q-17 1 -34.5 2t-27 1.5t-11.5 0.5q-14 0 -39 -3t-41 -3q-18 0 -18 9q0 5 3 7.5t14 5.5q27 8 34.5 20t12.5 51zM245 373l63 -5q5 -1 16 -1q62 0 100 38.5t38 101.5q0 56 -35 93q-39 42 -115 42q-43 0 -54.5 -9t-15.5 -48l-21 -171q-2 -14 -2 -24 q0 -7 1.5 -10t6.5 -4.5t18 -2.5zM208 310l-26 -215q-1 -9 -2 -16t-1.5 -9t-0.5 -3.5v-2.5q0 -23 21 -31.5t76 -8.5q48 0 78 11t58 39q48 48 48 119q0 65 -44 108q-21 21 -44 30t-64 12l-61 5h-9q-18 0 -22 -5.5t-7 -32.5z" />
<glyph unicode="C" horiz-adv-x="656" d="M644 605v-46q0 -17 7 -73q1 -7 1 -19q0 -17 -10 -17q-11 0 -17 24q-19 66 -61 104q-80 70 -179 70q-111 0 -182 -88t-71 -225q0 -138 69 -227t176 -89q72 0 137 43t85 102q10 30 21 30t11 -19q0 -18 -7 -36q-2 -7 -4.5 -15.5t-3.5 -12.5l-2 -4q0 -4 -3 -22 q-2 -13 -9.5 -19.5t-34.5 -21.5q-97 -54 -205 -54q-141 0 -222.5 86t-81.5 234q0 161 93.5 264t238.5 103q52 0 110 -17.5t99 -45.5q8 -5 13 -5q2 0 13 9q3 4 9 4q10 0 10 -17z" />
<glyph unicode="D" horiz-adv-x="689" d="M112 90l58 475q2 22 2 30q0 44 -46 52q-28 5 -28 14q0 10 15 10q9 0 39 -5q20 -3 41 -3q18 0 70 3q51 4 105 4q134 0 212 -61q94 -76 94 -204q0 -110 -57 -210t-150 -153q-80 -45 -214 -45q-49 0 -85 3q-30 3 -43 3q-11 0 -29 -3q-21 -3 -31 -3q-17 0 -17 9q0 8 17 13 q27 8 34.5 20t12.5 51zM241 575l-60 -488q-2 -22 -2 -27q0 -21 13.5 -28t54.5 -7q78 0 126.5 14.5t91.5 49.5q57 47 94.5 138t37.5 182q0 62 -29 115t-79 83q-57 33 -152 33q-59 0 -75 -10.5t-21 -54.5z" />
<glyph unicode="E" horiz-adv-x="576" d="M180 89v-11q0 -24 15.5 -31.5t64.5 -7.5q114 0 180 21q26 8 50.5 25t34.5 33q12 18 20 18q9 0 9 -10q0 -17 -17 -48t-39 -53q-16 -17 -35 -22.5t-59 -5.5q-26 0 -85 3q-47 3 -94 3q-50 0 -92 -3t-67 -3q-19 0 -19 10q0 7 17 12q27 8 34.5 20t12.5 51l58 475q2 22 2 29 q0 44 -46 52q-28 5 -28 14q0 10 18 10q6 0 36 -2q52 -4 184 -4q119 0 184 5q16 2 40 2q13 0 13 -12l-1 -48l2 -74q0 -16 -11 -16q-12 0 -13 20q-4 54 -31 70t-114 16h-68q-2 0 -9.5 0.5t-22 1t-29.5 0.5q-19 0 -25 -6t-8 -26l-26 -213q-1 -9 -1 -10q0 -7 3.5 -9t17.5 -2h137 q35 0 53.5 14t27.5 46q3 12 11 12q9 0 9 -14q0 -8 -6 -46q-8 -42 -10 -86q-2 -36 -4.5 -46.5t-9.5 -10.5t-8.5 5t-2.5 30q-1 54 -76 54h-117q-22 0 -27 -3t-7 -19z" />
<glyph unicode="F" horiz-adv-x="505" d="M205 287l-22 -185q-2 -20 -2 -29q0 -44 45 -52q28 -5 28 -14q0 -10 -17 -10q-3 0 -24 2q-29 3 -58 3q-35 0 -82 -4q-3 -1 -8 -1q-17 0 -17 10q0 7 17 12q27 8 34.5 20t12.5 51l58 475q2 22 2 31q0 42 -46 51q-28 5 -28 13q0 11 16 11q5 0 33 -2q45 -5 167 -5q121 0 163 5 q28 2 34 2q12 0 12 -16v-5q0 -6 -0.5 -15t-0.5 -13q0 -30 5 -80q1 -4 1 -10q0 -13 -10 -13q-9 0 -11 20q-6 51 -36 71t-101 22q-39 0 -59 2q-12 1 -28 1q-20 0 -28.5 -9t-11.5 -35l-25 -202q-1 -7 -1 -13q0 -15 19 -15h124q40 0 57 9.5t24 36.5q4 14 11 14q10 0 8 -10 q-10 -74 -13 -107q-3 -57 -4.5 -66.5t-8.5 -9.5q-10 0 -10 21q-1 40 -14 55t-48 15h-121q-21 0 -27.5 -5.5t-8.5 -26.5z" />
<glyph unicode="G" horiz-adv-x="710" d="M646 573l5 -88q1 -25 -10 -25q-9 0 -13 16q-15 58 -57 95q-84 76 -200 76q-142 0 -199 -113q-43 -88 -43 -191q0 -112 56 -206q32 -55 88.5 -86t123.5 -31q106 0 138 70q25 57 25 161q0 38 -11 48.5t-56 14.5q-16 2 -16 10t7 10t70 2q20 0 113 5q14 2 14 -9q0 -8 -21 -14 q-18 -4 -23 -18q-6 -15 -14.5 -92t-8.5 -114q0 -14 3 -26q2 -8 2 -11q0 -8 -13 -11q-27 -5 -56 -17q-99 -39 -168 -39q-120 0 -206 63q-57 41 -88 111.5t-31 158.5q0 155 94 254.5t239 99.5q66 0 135 -26q49 -19 68 -31q11 -6 17 -6t11 7q9 9 15 9q9 0 10 -13v-44z" />
<glyph unicode="H" horiz-adv-x="741" d="M208 308l-25 -206q-2 -20 -2 -29q0 -44 45 -52q28 -6 28 -14q0 -10 -17 -10q-3 0 -25 2q-28 3 -59 3q-32 0 -79 -4q-4 -1 -9 -1q-17 0 -17 10q0 7 17 12q27 8 34.5 20t12.5 51l58 475q2 22 2 30q0 43 -46 51q-28 6 -28 14q0 10 17 10q5 0 25 -2q25 -3 59 -3q38 0 58 2 q24 3 30 3q18 0 18 -10q0 -4 -3 -6t-15 -6q-27 -8 -34 -19.5t-12 -51.5l-23 -184l-1 -12q-1 -8 3.5 -11.5t13.5 -3.5h311q17 0 21.5 3.5t5.5 17.5l22 178q2 20 2 29q0 44 -45 52q-28 5 -28 14q0 10 17 10q4 0 24 -2q26 -3 59 -3q40 0 59 2q7 0 14 1l10.5 1.5t4.5 0.5 q18 0 18 -9q0 -5 -2.5 -7t-14.5 -6q-27 -8 -34 -19.5t-12 -51.5l-59 -475q-2 -22 -2 -29q0 -43 46 -52q28 -5 28 -14q0 -10 -17 -10q-3 0 -24 2q-30 3 -59 3q-36 0 -81 -4q-4 -1 -9 -1q-17 0 -17 10q0 4 3 6t15 6q27 7 34 19t12 52l25 202l1 16q1 9 -4 12.5t-18 3.5h-312 q-13 0 -16 -2t-4 -14z" />
<glyph unicode="I" horiz-adv-x="317" d="M241 577l-58 -475q-2 -20 -2 -29q0 -44 45 -52q28 -6 28 -14q0 -10 -15 -10q-6 0 -26 2q-25 3 -59 3t-81 -4q-3 -1 -8 -1q-17 0 -17 9q0 8 17 13q27 8 34.5 20t12.5 51l58 475q2 22 2 30q0 43 -46 51q-28 6 -28 14q0 10 17 10q3 0 24 -2q21 -3 59 -3q41 0 59 2q7 0 14 1 t11 1.5t5 0.5q18 0 18 -9q0 -5 -3 -7t-15 -6q-27 -8 -34 -19.5t-12 -51.5z" />
<glyph unicode="J" horiz-adv-x="293" d="M237 577l-44 -363q-17 -144 -80 -213q-25 -28 -55 -44.5t-56 -16.5q-19 0 -32 7.5t-13 17.5t6 32.5t11 29.5q5 8 11 8q9 0 17 -21q12 -29 36 -29q33 0 52 46q15 38 27 136l49 398q2 22 2 30q0 43 -46 51q-28 6 -28 14q0 10 17 10q10 0 25 -2q32 -3 59 -3q39 0 58 2 q7 0 14.5 1t11.5 1.5t5 0.5q17 0 17 -10q0 -7 -17 -12q-27 -8 -34.5 -19.5t-12.5 -51.5z" />
<glyph unicode="K" horiz-adv-x="669" d="M203 278l-21 -176q-2 -22 -2 -29q0 -44 45 -52q28 -6 28 -14q0 -10 -17 -10q-3 0 -24 2q-30 3 -59 3q-34 0 -81 -4q-3 -1 -8 -1q-17 0 -17 10q0 7 17 12q27 8 34.5 20t12.5 51l58 475q2 22 2 29q0 44 -46 52q-28 5 -28 14q0 10 17 10q3 0 24 -2q22 -3 59 -3q41 0 59 2 q7 0 14 1t11 1.5t5 0.5q18 0 18 -9q0 -5 -3 -7t-15 -6q-27 -8 -34 -19.5t-12 -51.5l-24 -201q-1 -3 -1 -9q0 -13 6 -13q5 0 18 9l49 38q83 61 104 80l84 69q66 50 66 75q0 18 -26 23q-16 4 -16 11q0 11 17 11q4 0 26 -2q22 -3 62 -3q42 0 61 2q7 0 14.5 1t11.5 1.5t5 0.5 q15 0 15 -11q0 -8 -13 -12q-36 -7 -66 -24t-83 -59l-239 -187q-16 -13 -16 -18q0 -7 9 -17l200 -242q34 -41 60.5 -56t74.5 -23q20 -3 20 -13q0 -11 -11 -11q-5 0 -21 2q-21 3 -49 3q-32 0 -65 -5h-4q-16 0 -37 26l-225 280q-11 13 -15 13q-5 0 -15 -8q-11 -9 -14 -30z" />
<glyph unicode="L" horiz-adv-x="543" d="M241 577l-60 -487q-1 -8 -1 -20q0 -30 88 -30q124 0 182 24q24 10 35.5 20t35.5 41q5 7 12 7q9 0 9 -10q0 -13 -12.5 -41t-25.5 -45q-18 -23 -39.5 -31t-61.5 -8q-51 0 -111 3q-78 3 -137 3q-39 0 -64 -4q-22 -2 -26 -2q-17 0 -17 9q0 8 17 13q27 8 34.5 20t12.5 51 l58 475q2 22 2 30q0 43 -46 51q-28 6 -28 14q0 10 17 10q10 0 25 -2q31 -3 59 -3q39 0 58 2q7 0 14 1t11 1.5t5 0.5q18 0 18 -10q0 -4 -3 -6t-15 -6q-27 -8 -34 -19.5t-12 -51.5z" />
<glyph unicode="M" horiz-adv-x="847" d="M197 444l-57 -333q-4 -28 -4 -37q0 -23 11.5 -34.5t37.5 -14.5q33 -3 33 -15q0 -13 -21 -13q-6 0 -12 1q-32 4 -63 4q-33 0 -66 -4q-7 -1 -16 -1q-19 0 -19 11q0 10 26 16q20 5 27.5 11.5t14.5 22.5q6 22 19 88l32 166q9 43 16.5 107.5t7.5 88.5q0 57 -21 96t-52 39 q-12 0 -28 -2h-5q-11 0 -11 8q0 9 14 15t36 6q84 0 94 -5q10 -4 18 -23l75 -173l40 -96q31 -78 41 -99l59 -137q6 -15 8 -15q4 0 15 24l158 323q28 56 43 89q6 12 17 36t15 32l13 28q6 12 22 12h29l44 2q19 2 19 -9q0 -4 -4 -6t-27 -10t-31 -30t-9 -81l-6 -430l-1 -5 q0 -38 11.5 -54.5t41.5 -21.5q29 -5 29 -15q0 -9 -16 -9q-4 0 -13 1q-40 4 -71 4q-37 0 -82 -4q-4 -1 -8 -1q-19 0 -19 11q0 7 16 11q26 7 32 19.5t7 51.5l6 368v2q-2 14 -6 14q-7 0 -25 -38l-203 -420q-6 -13 -14 -13t-17 21l-186 426q-6 11 -9 11t-6 -17z" />
<glyph unicode="N" horiz-adv-x="711" d="M203 488l-45 -369q-4 -36 -4 -44q0 -24 11.5 -36.5t38.5 -16.5q24 -3 24 -12q0 -13 -22 -13q-6 0 -13 1q-36 4 -66 4q-31 0 -75 -4q-3 -1 -7 -1q-12 0 -12 9q0 8 21 16q34 13 42.5 31t20.5 100l45 308q6 46 6 78q0 41 -26.5 72t-62.5 31q-4 0 -14 -2t-12 -2q-9 0 -9 8 t16 16t31 7q45 -3 78 -3q21 0 30 -14l112 -158q88 -129 118 -178l108 -172q3 -4 5 -7.5t3.5 -5t2 -2.5t2.5 -1l1 -1h2q4 0 5.5 6.5t8.5 47.5q24 147 32 218q18 141 18 189q0 27 -11.5 41t-38.5 18q-26 4 -26 13q0 10 19 10q6 0 12 -1q28 -4 61 -4q32 0 48 2q21 3 27 3 q18 0 18 -12q0 -7 -18 -10q-31 -5 -40.5 -27t-18.5 -110q-23 -226 -63 -444q-10 -53 -13 -61.5t-14 -8.5q-8 0 -15 11l-112 177l-60 92q-59 91 -70 106l-81 117q-5 9 -9 9q-7 0 -9 -21z" />
<glyph unicode="O" horiz-adv-x="738" d="M56 299q0 158 102 268t247 110q135 0 223 -92t88 -232q0 -134 -79 -240q-91 -123 -265 -123q-145 0 -230.5 83.5t-85.5 225.5zM133 316q0 -130 69.5 -213.5t176.5 -83.5q64 0 116.5 32.5t85.5 92.5q54 97 54 219q0 142 -74 214q-34 34 -80 53.5t-92 19.5 q-109 0 -182.5 -95.5t-73.5 -238.5z" />
<glyph unicode="P" d="M239 560l-56 -458q-2 -22 -2 -29q0 -44 52 -52q31 -5 31 -14q0 -10 -26 -10q-7 0 -14 1q-40 4 -71 4q-32 0 -79 -4q-4 -1 -9 -1q-17 0 -17 9q0 8 17 13q27 8 34.5 20t12.5 51l58 475q2 22 2 30q0 44 -46 52q-28 5 -28 14q0 10 15 10t38 -4q24 -3 55 -3q40 0 84 3 q38 3 64 3q72 0 117 -44t45 -114q0 -73 -46 -130t-115 -70q-19 -4 -53 -4q-70 0 -70 15q0 6 13 6h7q7 0 17.5 -0.5t13.5 -0.5q66 0 112 50t46 122q0 77 -70 117q-41 23 -80 23q-28 0 -36.5 -13.5t-15.5 -66.5z" />
<glyph unicode="Q" horiz-adv-x="745" d="M289 -33l-82 52q-29 19 -52 19q-28 0 -48.5 -24.5t-20.5 -58.5q0 -25 13 -50q9 -20 9 -22q0 -7 -10 -7q-15 0 -28.5 30.5t-13.5 63.5q0 84 76 114q-44 56 -60 101t-16 110q0 163 100.5 272.5t249.5 109.5q135 0 222 -91.5t87 -232.5q0 -144 -84 -245q-66 -80 -154 -104 q-29 -8 -96 -13q77 -50 148.5 -81.5t108.5 -31.5q35 0 59 37q7 10 10 10q6 0 6 -7q0 -30 -39.5 -61.5t-76.5 -31.5q-46 0 -117 33t-191 109zM133 322q0 -134 68 -218.5t175 -84.5q67 0 125 37t88 99q47 101 47 211q0 129 -66 206q-32 35 -81 56.5t-98 21.5 q-111 0 -184.5 -93.5t-73.5 -234.5z" />
<glyph unicode="R" horiz-adv-x="580" d="M211 307l-25 -205q-2 -20 -2 -29q0 -44 45 -52q28 -6 28 -14q0 -10 -17 -10q-3 0 -24 2q-28 3 -58 3q-37 0 -82 -4q-3 -1 -8 -1q-17 0 -17 10q0 7 17 12q27 8 34.5 20t12.5 51l58 475q2 22 2 30q0 44 -46 52q-28 5 -28 13q0 11 14 11q6 0 29 -5q17 -3 28 -3q24 0 97 6 q40 2 64 2q95 0 137 -29q53 -39 53 -110q0 -76 -56 -132q-17 -17 -28.5 -23.5t-48.5 -22.5q-14 -6 -14 -14q0 -23 76 -204q29 -68 50 -93t51 -25h6q3 1 6 1q7 0 7 -5q0 -8 -20.5 -14.5t-47.5 -6.5q-39 0 -63 19t-39 61l-85 234q-7 21 -12 24.5t-28 3.5q-53 0 -59 -6 q-5 -5 -7 -22zM245 586l-21 -174q-2 -18 -2 -22q0 -16 15.5 -20.5t74.5 -4.5q72 0 103 42q33 42 33 108q0 59 -34.5 93.5t-95.5 34.5q-41 0 -54.5 -11t-18.5 -46z" />
<glyph unicode="S" horiz-adv-x="440" d="M211 428l113 -117q76 -77 76 -159q0 -72 -59.5 -117t-154.5 -45q-99 0 -123 20q-11 9 -21.5 46t-10.5 65q0 17 11 17q8 0 12 -13q19 -50 60.5 -79t95.5 -29q56 0 92 32t36 81q0 27 -13 51.5t-48 62.5l-111 120q-49 53 -68 90.5t-19 82.5q0 61 42 100.5t107 39.5 q39 0 121 -27q6 -2 7 -2q5 0 16 8q5 4 10 4q8 0 10 -7t2 -37q0 -24 2 -34q9 -59 9 -64q0 -14 -13 -14q-12 0 -18 22q-16 56 -59 91t-95 35q-34 0 -57.5 -24t-23.5 -58q0 -67 72 -142z" />
<glyph unicode="T" horiz-adv-x="575" d="M380 592l-59 -490q-2 -22 -2 -29q0 -23 12 -35t38 -17q30 -5 30 -13q0 -11 -23 -11q-7 0 -14 1q-41 4 -71 4q-32 0 -80 -4q-4 -1 -8 -1q-24 0 -24 10q0 7 19 12q30 8 38 20t13 51l62 502v6q0 10 -4 13.5t-17 3.5h-106q-86 0 -105 -59q-9 -29 -20 -29q-5 0 -9.5 6.5 t-4.5 13.5q0 16 16 56q9 26 12 40q4 16 10.5 22t19.5 6q17 0 47 -3q65 -5 202 -5q152 0 205 5q34 2 37 2q14 0 20 -7t5 -24l-1 -30q0 -48 1 -53v-11q0 -22 -12 -22q-13 0 -14 25q-3 38 -17 52.5t-47 14.5h-127q-13 0 -16.5 -3.5t-5.5 -19.5z" />
<glyph unicode="U" horiz-adv-x="722" d="M682 577l-42 -283q-21 -144 -80 -214q-76 -90 -229 -90q-74 0 -127.5 22.5t-77.5 63.5q-23 39 -23 113q0 27 3 57l29 331q3 29 3 32q0 18 -8 26t-33 15q-8 3 -8 8q0 12 20 12q6 0 13 -1q27 -4 57 -4q29 0 68 4q3 1 7 1q17 0 17 -10q0 -7 -17 -12q-27 -8 -34.5 -19.5 t-12.5 -51.5l-14 -116q-21 -174 -21 -268q0 -81 45 -125t128 -44t147 43t85 113q32 108 55 309l9 76q0 5 1.5 16t1.5 14q0 43 -46 51q-28 6 -28 14q0 10 16 10q5 0 11 -1q35 -4 59 -4q29 0 68 4q3 1 7 1q17 0 17 -9q0 -8 -18 -13q-27 -8 -34.5 -19.5t-13.5 -51.5z" />
<glyph unicode="V" horiz-adv-x="652" d="M280 13l-154 561q-10 38 -22.5 52t-42.5 22q-17 4 -17 12q0 10 17 10q4 0 24 -2q21 -3 56 -3t70 4q7 1 19 1q21 0 21 -11q0 -8 -19 -11q-32 -6 -32 -41q0 -28 33.5 -157.5t73.5 -254.5q18 -57 21.5 -66.5t8.5 -9.5q11 0 87 145q55 103 135 274q26 56 26 74q0 32 -41 35 q-26 1 -26 13q0 10 16 10q3 0 23 -2q21 -3 56 -3q23 0 57 2q27 3 29 3q17 0 17 -11q0 -7 -20 -10q-27 -5 -45.5 -29t-60.5 -114q-37 -77 -118 -229t-126 -226q-36 -61 -51 -61q-9 0 -15 23z" />
<glyph unicode="W" horiz-adv-x="890" d="M261 21l-146 567q-8 31 -18 42.5t-35 16.5q-18 1 -18 11q0 12 18 12q5 0 25 -2q31 -3 58 -3q21 0 57 2l13 2h8q3 1 7 1q12 0 12 -10q0 -8 -19 -11q-35 -4 -35 -44q0 -16 16 -81l97 -384q7 -29 12 -29t14 17l7 12q9 16 10 17l91 165l-65 251q-18 68 -58 74q-24 3 -24 12 q0 11 16 11q5 0 24 -2q28 -3 56 -3q39 0 56 2q7 0 13.5 1t10 1.5t4.5 0.5q14 0 14 -10q0 -7 -17 -10q-28 -6 -28 -42q0 -20 20 -99l25 -98l57 113q33 66 33 92q0 14 -11.5 23.5t-28.5 10.5q-20 1 -20 10q0 10 15 10q5 0 22 -2q23 -3 53 -3q34 0 50 2q12 2 13 2h6q3 1 7 1 q12 0 12 -10q0 -7 -21 -11q-19 -4 -32.5 -21.5t-50.5 -88.5l-92 -176l28 -103q3 -12 38 -122l6 -19q3 -8 6 -8q4 0 14 16.5t63 114.5q50 91 138 277q37 77 37 93q0 33 -44 35q-26 0 -26 11q0 12 15 12q9 0 23 -2q30 -3 55 -3q39 0 57 2q7 0 13.5 1t10 1.5t4.5 0.5 q15 0 15 -12q0 -9 -16 -10q-31 -4 -50.5 -31t-77.5 -146q-117 -238 -238 -452q-16 -29 -26 -29q-8 0 -15 25l-14 47q-20 62 -37 122l-26 92l-86 -157q-9 -17 -26 -44l-33 -57q-14 -25 -25 -25q-8 0 -16 28z" />
<glyph unicode="X" horiz-adv-x="669" d="M344 304l-110 -154q-50 -69 -50 -94q0 -14 14 -25t36 -14q23 -2 23 -10q0 -10 -13 -10q-7 0 -29 2q-30 3 -65 3q-40 0 -89 -4q-3 -1 -9 -1q-14 0 -14 9q0 7 12 11q60 19 136 124l144 198l-62 150q-30 72 -59.5 104.5t-64.5 32.5q-32 0 -52 -21.5t-20 -55.5q0 -30 10 -48 q5 -8 22 -11q15 -1 15 -13q0 -7 -5.5 -12.5t-12.5 -5.5q-22 0 -39 29t-17 67q0 53 32 86t83 33q29 0 59 -13t48 -34q32 -38 70 -131l38 -94l112 152q32 44 32 65q0 25 -37 29q-19 3 -19 13q0 9 12 9q6 0 15 -1q36 -4 68 -4q27 0 79 5q3 1 8 1q13 0 13 -9q0 -8 -18 -12 q-35 -9 -64.5 -40t-122.5 -158l-63 -86l60 -149q44 -111 80 -156q28 -35 81 -35q22 0 36 10q9 8 14 8q10 0 10 -10q0 -16 -28.5 -26.5t-74.5 -10.5q-51 0 -76.5 14.5t-47.5 55.5q-12 23 -64 149z" />
<glyph unicode="Y" horiz-adv-x="562" d="M334 261l-19 -159q-2 -20 -2 -29q0 -44 45 -52q28 -5 28 -14q0 -10 -15 -10q-6 0 -26 2q-24 3 -58 3t-79 -4q-3 -1 -8 -1q-17 0 -17 10q0 7 17 12q27 8 34 19.5t12 51.5l22 182q2 14 2 20q0 12 -17 46l-114 237q-21 44 -36.5 58t-43.5 16q-21 1 -21 11t16 10q5 0 27 -2 q33 -3 63 -3q42 0 63 2q26 3 33 3q16 0 16 -10q0 -8 -18 -11q-31 -3 -31 -29q0 -21 16 -54l92 -202q7 -16 11 -16q5 0 34 41q7 9 104 160q30 45 30 68q0 26 -43 29q-23 1 -23 13q0 11 17 11q5 0 23 -2q24 -3 55 -3q34 0 52 2q18 3 27 3q12 0 12 -10q0 -9 -17 -13 q-25 -6 -39 -21t-54 -79q-5 -8 -19.5 -29.5t-22.5 -33.5q-36 -52 -48 -71q-32 -50 -46 -67q-19 -24 -24.5 -37.5t-9.5 -47.5z" />
<glyph unicode="Z" horiz-adv-x="531" d="M107 0l-48 -3q-20 -2 -20 8q0 9 18 28q18 18 56 82q10 18 83 121q81 114 147 218l62 96q19 28 19 37t-13 9l-88 5q-54 4 -88 4q-65 0 -105 -27t-40 -72q0 -19 5 -27t25 -20q6 -4 6 -8q0 -11 -19 -11q-41 0 -41 62q0 61 40 107q52 62 146 62q20 0 25 -1l131 -9 q14 -1 24.5 -2t14.5 -1.5t7 -0.5h6q10 0 26 3q5 1 9.5 1.5t6.5 1t3 0.5q11 0 11 -9q0 -8 -25 -45l-350 -522q-7 -12 -7 -16q0 -7 21 -7h251q70 0 70 28q0 11 -21 15q-30 5 -30 32q0 14 12 25t28 11q20 0 32.5 -15.5t12.5 -40.5q0 -54 -58 -99q-33 -24 -102 -24q-11 0 -169 8 q-18 0 -74 -4z" />
<glyph unicode="[" horiz-adv-x="250" d="M33 -88l92 755q1 15 5 17.5t23 3.5l125 5l3 1q5 1 10 -3.5t5 -11.5q0 -19 -22 -19h-59q-17 0 -25 -7t-10 -26l-82 -674q-1 -6 -1 -10q-1 -12 6 -17.5t22 -5.5h59q18 0 18 -14q0 -7 -6.5 -14t-12.5 -6h-4l-124 5q-16 1 -19.5 2.5t-3.5 8.5t1 10z" />
<glyph unicode="\" horiz-adv-x="495" d="M433 -115l-257 781q-9 26 -9 31q0 11 24 11q11 0 15 -11l266 -811q2 -6 2 -8q0 -11 -18 -11q-12 0 -15.5 3t-7.5 15z" />
<glyph unicode="]" horiz-adv-x="250" d="M0 -80h59q17 0 24.5 7t9.5 26l83 674q1 5 1 10q1 12 -6 17.5t-22 5.5h-59q-18 0 -18 14q0 7 6.5 14t12.5 6l4 -1l124 -5q16 -1 19.5 -2t3.5 -8t-1 -10l-92 -756q-1 -14 -5 -16.5t-23 -3.5l-125 -5l-3 -1q-5 -1 -10 3.5t-5 11.5q0 19 22 19z" />
<glyph unicode="^" d="M-23 288l274 412h6l266 -412h-31l-214 327l-218 -327h-83z" />
<glyph unicode="_" d="M0 -87h500v-35h-500v35z" />
<glyph unicode="`" horiz-adv-x="450" d="M245 464l-69 44q-29 18 -29 39q0 15 10.5 26t24.5 11q18 0 32 -21l51 -82q7 -10 7 -16q0 -10 -8 -10q-6 0 -19 9z" />
<glyph unicode="a" horiz-adv-x="452" d="M24 90q0 109 75 207.5t158 98.5q27 0 55 -9q11 -4 18 -4q15 0 36 34q11 16 17 16q5 0 5 -8q0 -9 -7 -37q-42 -179 -42 -276q0 -53 18 -53q11 0 26 15.5t24 35.5q7 16 14 16q9 0 9 -10q0 -32 -39 -75t-67 -43q-24 0 -35 46q-4 17 -10 60q-85 -111 -172 -111q-37 0 -60 27 t-23 70zM86 113q0 -33 17 -52t47 -19q51 0 100 62q30 40 35 76q8 59 27 139q4 20 4 25q0 12 -18 22t-39 10q-60 0 -110 -73q-27 -38 -45 -93t-18 -97z" />
<glyph unicode="b" horiz-adv-x="421" d="M186 676l-46 -375q31 48 64 69q46 31 94 31q44 0 72 -33.5t28 -87.5q0 -94 -65 -184q-35 -48 -80.5 -75.5t-91.5 -27.5q-45 0 -76 23q-27 20 -27 62q0 22 3 46l61 494q2 18 2 25q0 18 -26 18h-23q-19 0 -19 9q0 8 7.5 9.5t52.5 5.5q32 3 38 5q14 3 23 3t9 -11v-6z M125 186l-9 -75q-2 -22 -2 -32q0 -60 59 -60q61 0 113.5 71t52.5 153q0 50 -22 79t-61 29q-52 0 -87 -44t-44 -121z" />
<glyph unicode="c" horiz-adv-x="346" d="M286 317l-29 30q-22 24 -50 24q-50 0 -84.5 -55t-34.5 -137q0 -65 28.5 -101t80.5 -36q30 0 53.5 10.5t55.5 39.5q2 4 8 4t6 -6q0 -16 -26 -40q-57 -57 -139 -57q-59 0 -92 39.5t-33 109.5q0 101 63 179.5t143 78.5q39 0 68.5 -18t29.5 -41q0 -13 -9 -23t-21 -10 q-10 0 -18 9z" />
<glyph unicode="d" horiz-adv-x="432" d="M392 676l-65 -532q-4 -31 -4 -50q0 -42 23 -42q15 0 28.5 12.5t33.5 43.5q5 8 10 8q7 0 7 -8q0 -9 -9.5 -29.5t-19.5 -33.5q-39 -47 -76 -47q-26 0 -37 15.5t-16 58.5q0 3 -2 23q-55 -102 -139 -102q-47 0 -73.5 33.5t-26.5 91.5q0 103 66 190t144 87q28 0 63 -17l30 240 q2 22 2 25q0 18 -26 18h-24q-19 0 -19 9q0 8 7.5 9.5t53.5 5.5q38 4 38 5q15 3 23 3q11 0 9 -11q0 -4 -1 -6zM293 323v13q0 40 -58 40q-50 0 -93 -58q-25 -33 -42 -84.5t-17 -95.5q0 -43 20 -70t52 -27q52 0 89 53q25 36 33 104z" />
<glyph unicode="e" horiz-adv-x="349" d="M27 132q0 99 65.5 183.5t142.5 84.5q37 0 60.5 -20t23.5 -52q0 -45 -47.5 -82t-118.5 -47q-38 -5 -68 -5q-2 -24 -2 -31q0 -53 32.5 -87.5t81.5 -34.5q60 0 97 37q11 11 14 11q7 0 7 -9q0 -19 -42 -49q-53 -38 -114 -38q-62 0 -97 37t-35 102zM87 211q19 0 43 3 q54 7 93 40.5t39 73.5q0 46 -46 46q-45 0 -87 -57q-29 -39 -42 -106z" />
<glyph unicode="f" horiz-adv-x="264" d="M72 -27l27 223q7 59 22 164h-64q-15 0 -19.5 2.5t-4.5 11.5q0 11 5.5 15t21.5 4h66q19 115 59 187q31 54 60 77t66 23q20 0 27.5 -4.5t7.5 -16.5q0 -61 -12 -61q-4 0 -19 18q-20 20 -45 20q-28 0 -48.5 -55t-40.5 -188h73q14 0 18.5 -2.5t4.5 -10.5q0 -12 -5.5 -16 t-21.5 -4h-74l-44 -363q-10 -81 -47 -120q-41 -44 -82 -44q-10 0 -17.5 6t-7.5 14q0 15 12 51q4 14 12 14q5 0 8 -11q2 -15 9.5 -25t15.5 -10q14 0 22 21.5t15 79.5z" />
<glyph unicode="g" horiz-adv-x="353" d="M159 44l77 -25q92 -29 92 -94q0 -43 -40.5 -69t-107.5 -26q-84 0 -138 33q-45 28 -45 80q0 37 23 60.5t64 28.5q-16 20 -16 48q0 29 25 50q5 5 5 7t-4 6q-36 46 -36 102q0 63 38.5 109t91.5 46q15 0 49 -8q30 -8 45 -8q23 0 63 16q7 3 13 3q8 0 14 -7t6 -15 q0 -13 -11.5 -21.5t-28.5 -8.5q-22 0 -60 14q26 -51 26 -91q0 -65 -38.5 -111t-93.5 -46q-20 0 -43 8q-10 2 -11 2q-8 0 -14.5 -8.5t-6.5 -19.5q0 -35 62 -55zM174 138q34 0 56.5 39.5t22.5 98.5q0 47 -18.5 76.5t-47.5 29.5q-33 0 -54.5 -39.5t-21.5 -100.5q0 -49 17 -76.5 t46 -27.5zM209 -32l-63 24q-36 14 -52 27q-25 -6 -39.5 -23.5t-14.5 -42.5q0 -45 37 -73.5t96 -28.5q47 0 75.5 16t28.5 42q0 34 -68 59z" />
<glyph unicode="h" horiz-adv-x="450" d="M50 11v10l74 597q2 22 2 26q0 17 -26 17h-25q-19 0 -19 9q0 8 8 9.5t54 5.5q34 4 38 5q15 3 23 3q9 0 9 -12q0 -3 -1 -5l-44 -364q40 47 71.5 67t66.5 20q37 0 58.5 -27.5t20.5 -73.5l-1 -32l-14 -123q-2 -15 -2 -41q0 -44 22 -44q14 0 31 14t30 36q6 10 12 10q8 0 8 -9 q0 -27 -32 -65q-39 -47 -84 -47q-43 0 -43 91q0 27 1 43l11 163q1 26 -11 40.5t-34 14.5q-48 0 -86 -40q-30 -33 -37 -92l-24 -196q-2 -14 -8 -19t-21 -5q-28 0 -28 14z" />
<glyph unicode="i" horiz-adv-x="245" d="M182 519l-13 -16q-6 -7 -10 -7q-5 0 -10 9q-8 16 -18 32q-5 6 -5 10q0 6 18 25l14 16q6 9 11 9t9 -9l10 -18l11 -16q4 -5 4 -9q0 -5 -7 -12q-9 -8 -14 -14zM176 380l-28 -135q-20 -100 -20 -153q0 -30 16 -30q22 0 43 41q5 12 11 12q8 0 8 -9q0 -31 -36.5 -70t-65.5 -39 q-15 0 -24 22t-9 59t15 122l21 122q2 14 2 23q0 12 -6 16t-23 4h-26q-21 0 -21 8t8.5 10t58.5 6q39 2 41 4q15 3 25 3t10 -11v-5z" />
<glyph unicode="j" horiz-adv-x="230" d="M187 570l12 -16q4 -5 4 -9q0 -5 -7 -12q-13 -12 -27 -30q-6 -7 -10 -7q-5 0 -10 9q-8 16 -18 32q-5 6 -5 10q0 6 18 25l14 16q6 9 11 9t9 -9zM71 -53l46 375q2 16 2 25q0 18 -26 18h-24q-19 0 -19 8t7.5 10t53.5 6q38 2 38 4q15 3 23 3q9 0 9 -11v-5l-49 -392 q-10 -79 -48 -119t-78 -40q-17 0 -23 6t-7 22l-2 19q-1 5 -1 13q0 14 9 14t19 -14q20 -26 34 -26q26 0 36 84z" />
<glyph unicode="k" horiz-adv-x="421" d="M50 12v9l74 597q2 24 2 26q0 17 -26 17h-24q-20 0 -20 9q0 8 8 9.5t54 5.5q34 4 38 5q14 3 22 3q12 0 10 -11q0 -4 -1 -6l-56 -459q-1 -8 -1 -11q0 -6 4 -6q2 0 36 23q93 66 116 129q10 29 18.5 38t24.5 9q13 0 20.5 -8t7.5 -22q0 -45 -127 -134q-5 -5 -5 -6q0 -3 17 -26 l13 -21l54 -96q11 -21 23 -21q11 0 25 11.5t24 29.5t17 18q8 0 8 -10q0 -33 -31 -75t-55 -42q-23 0 -41 32l-86 153q-8 14 -14 14q-15 0 -41 -21q-14 -10 -16 -31l-15 -123q-2 -14 -8 -19t-22 -5q-27 0 -27 15z" />
<glyph unicode="l" horiz-adv-x="226" d="M189 676l-70 -566q-2 -20 -2 -26q0 -28 18 -28q17 0 35.5 16.5t32.5 44.5q6 10 11 10q10 0 10 -10q0 -9 -14 -33t-28 -40q-45 -48 -80 -48q-19 0 -30 21.5t-11 58.5q0 21 3 44l61 498q3 22 3 25q0 10 -6 14t-22 4h-24q-20 0 -20 9q0 8 8 9.5t55 5.5q38 4 38 5q14 3 23 3 t9 -12v-5z" />
<glyph unicode="m" horiz-adv-x="675" d="M161 186l-20 -165q-1 -14 -8 -19t-25 -5q-25 0 -25 16q0 2 1 8l29 233q2 20 2 28q0 46 -21 46q-22 0 -41 -43q-3 -11 -9 -11q-8 0 -8 15q0 31 28 68.5t51 37.5q24 0 33 -29q6 -17 7 -69q31 45 63 65q52 34 95 34q29 0 44.5 -21.5t15.5 -60.5q0 -10 -1 -17q31 46 69 73 t73 27t55 -29t20 -78q0 -10 -2 -36l-14 -175q-2 -22 18 -22q24 0 48 38q6 8 11 8q10 0 10 -12q0 -17 -33 -54q-37 -40 -74 -40t-37 66q0 7 2 35l11 156q1 9 1 26q0 35 -13.5 55t-38.5 20q-36 0 -64.5 -51t-38.5 -134l-18 -149q-1 -14 -8 -19t-25 -5q-25 0 -25 16q0 2 1 8 l27 217q3 23 3 42q0 35 -15.5 55t-43.5 20q-38 0 -70 -49.5t-40 -119.5z" />
<glyph unicode="n" horiz-adv-x="469" d="M159 169l-18 -148q-1 -14 -8 -19t-25 -5q-25 0 -25 16q0 2 1 8l16 126q14 111 14 135q0 47 -21 47q-9 0 -20 -11.5t-17 -27.5q-6 -18 -14 -18q-10 0 -10 14q0 34 29.5 71.5t55.5 37.5q17 0 28 -21t11 -54q0 -11 -1 -20q34 45 67 65q50 31 87 31q32 0 52 -30.5t20 -78.5 q0 -34 -3 -70l-11 -127v-9q0 -25 15 -25q24 0 46 32q10 15 18 15t8 -10q0 -25 -40.5 -61t-68.5 -36q-35 0 -35 62q0 12 2 42l12 150q1 8 1 22q0 38 -14.5 60.5t-38.5 22.5q-41 0 -72 -50.5t-41 -135.5z" />
<glyph unicode="o" horiz-adv-x="399" d="M32 155q0 51 19 102.5t50 86.5q50 56 125 56q66 0 104.5 -43.5t38.5 -117.5q0 -44 -16 -92.5t-41 -81.5q-25 -32 -63.5 -52t-76.5 -20q-61 0 -100.5 46t-39.5 116zM180 20q57 0 89 69q35 78 35 157q0 62 -19.5 96t-56.5 34q-55 0 -92.5 -63t-37.5 -156q0 -66 21 -101.5 t61 -35.5z" />
<glyph unicode="p" horiz-adv-x="437" d="M59 -86l53 437q-23 -7 -53 -18q-8 -2 -9 -2q-4 0 -4 4q0 16 17 21l52 20l3 19q12 75 24.5 99t43.5 24q11 0 11 -10q0 -4 -6 -22q-9 -27 -12 -53l-5 -44q49 8 73 8q75 0 119 -36t44 -97q0 -59 -30.5 -119.5t-78.5 -96.5q-60 -45 -124 -45q-19 0 -25 1q-14 2 -15 2 q-7 0 -9 -3.5t-4 -20.5l-10 -73l-1 -17q-1 -23 21 -32q5 -2 42 -7q15 -1 15 -10q0 -13 -19 -13q-8 0 -31 3q-26 2 -45 2q-12 0 -19 -0.5t-16.5 -1.5t-20.5 -2l-14 -1q-20 -2 -20 13q0 9 13 12q22 4 28.5 14t11.5 45zM133 53q-1 -13 10.5 -19t34.5 -6q68 0 121 71 q44 58 44 149q0 57 -34 88t-97 31q-15 0 -42 -4l-36 -293z" />
<glyph unicode="q" horiz-adv-x="437" d="M274 -90l26 211q-41 -62 -73 -84q-52 -38 -107 -38q-42 0 -68.5 29.5t-26.5 76.5q0 103 81 199.5t167 96.5q30 0 54 -11q10 -5 13 -5q10 0 18 17l21 42q8 15 15 15q9 0 9 -9q0 -6 -3 -15q-5 -14 -10 -48l-60 -483q-1 -7 -1 -20q0 -18 8 -23.5t40 -8.5q17 -2 17 -11 q0 -11 -14 -11q-5 0 -24 2q-26 3 -57 3q-45 0 -57 -2l-14 -2h-7q-4 -1 -8 -1q-11 0 -11 10q0 5 4 7.5t22 7.5q24 7 33.5 18.5t12.5 36.5zM316 246l5 44q3 24 3 39q0 19 -19 33t-45 14q-60 0 -111 -70q-26 -35 -43 -83.5t-17 -88.5q0 -42 19 -66.5t52 -24.5q60 0 112 76 q35 51 44 127z" />
<glyph unicode="r" horiz-adv-x="292" d="M160 135l-14 -114q-2 -14 -8 -19t-22 -5q-28 0 -28 14q0 3 1 10l24 191q2 12 2 36q0 74 -34 74q-14 0 -25.5 -15.5t-16.5 -39.5q-3 -19 -11 -19q-12 0 -12 24q0 45 21 76q11 17 30 31t30 14q9 0 20 -10t17 -24q8 -17 20 -63q53 100 112 100q14 0 24.5 -6.5t10.5 -16.5 q0 -7 -3 -15l-10 -37q-4 -17 -15 -17q-6 0 -10 11q-11 27 -34 27q-28 0 -44 -63q-16 -68 -25 -144z" />
<glyph unicode="s" horiz-adv-x="290" d="M142 271l69 -75q33 -35 33 -83q0 -51 -38.5 -85.5t-96.5 -34.5q-42 0 -72 17.5t-30 42.5q0 13 8.5 22t21.5 9q11 0 18 -7t23 -35q14 -24 40 -24q29 0 50.5 18t21.5 43q0 39 -40 81l-54 56q-38 39 -38 83q0 47 32 74t89 27q37 0 57.5 -12t20.5 -34q0 -13 -8.5 -21.5 t-21.5 -8.5q-10 0 -15.5 4.5t-20.5 26.5t-41 22q-19 0 -30.5 -12.5t-11.5 -33.5q0 -22 34 -60z" />
<glyph unicode="t" horiz-adv-x="281" d="M159 335l-25 -197q-2 -12 -2 -29q0 -23 12 -39t29 -16q31 0 66 36q9 10 15 10q8 0 8 -8q0 -27 -45.5 -61.5t-80.5 -34.5q-27 0 -44.5 26t-17.5 65q0 13 4 51l23 187l1 3q0 2 0.5 6.5t0.5 8.5q1 2 1 6q0 11 -17 11h-27q-11 0 -11 9t20 19q50 24 85 79q8 13 17 13 q10 0 10 -8q0 -6 -3 -15q-12 -45 -12 -56q0 -10 20 -10h4l67 2q16 0 16 -13q0 -22 -25 -20l-58 2l-7 1q-12 1 -17 -4.5t-7 -23.5z" />
<glyph unicode="u" horiz-adv-x="473" d="M308 168l4 32q-52 -80 -88 -122q-28 -33 -64 -56t-58 -23q-15 0 -24 17t-9 45q0 37 12 97l19 101q7 40 7 52q0 20 -11 20q-9 0 -22 -14t-20 -33q-8 -17 -16 -17q-9 0 -9 12q0 39 33.5 78.5t66.5 39.5q17 0 27.5 -17.5t10.5 -45.5q0 -21 -2 -31l-28 -168q-7 -47 -7 -61 q0 -20 15 -20q17 0 53.5 38t71.5 91q53 82 80 181q4 18 10 23.5t19 5.5q26 0 26 -20q0 -4 -2 -12l-24 -113q-24 -116 -24 -163q0 -25 20 -25q28 0 57 54q6 12 14 12q10 0 10 -11q0 -36 -45 -77t-85 -41q-14 0 -23 14t-9 37q0 38 14 120z" />
<glyph unicode="v" horiz-adv-x="391" d="M176 297l-16 -132q-2 -16 -2 -26q0 -86 41 -86q47 0 92.5 79t45.5 162q0 21 -14 57q-4 11 -4 16q0 11 8.5 19t19.5 8q29 0 29 -46q0 -54 -19 -120t-48 -112q-31 -48 -76 -85.5t-72 -37.5q-23 0 -39.5 35t-15.5 81q0 19 -2.5 24t-12.5 6q-64 9 -64 95q0 57 35.5 109.5 t73.5 52.5q42 0 42 -72q0 -3 -2 -27zM110 220l4 32q6 37 6 49q0 25 -12 25q-16 0 -37.5 -37.5t-21.5 -65.5q0 -23 11 -40t26 -17q11 0 15.5 10t8.5 44z" />
<glyph unicode="w" horiz-adv-x="606" d="M170 266l-10 -86q-2 -22 -2 -34q0 -40 9.5 -67.5t23.5 -27.5q22 0 51.5 34.5t50.5 84.5q33 77 50 198q4 24 18 24q20 0 27 -3t7 -13q0 -5 -5 -40q-17 -113 -17 -178q0 -47 11.5 -79t27.5 -32q41 0 90.5 84.5t49.5 155.5q0 30 -12 62q-4 11 -4 16q0 11 10 20t23 9 q21 0 21 -45q0 -86 -45 -185q-36 -79 -88 -125q-53 -46 -81 -46q-25 0 -40 44q-15 42 -16 132q-42 -81 -65 -109q-54 -67 -97 -67q-41 0 -51 91q-2 19 -3 49q0 9 -10 9q-30 0 -49 25.5t-19 64.5q0 56 35 110t72 54q18 0 28.5 -24.5t10.5 -65.5q0 -26 -2 -40zM86 172 q12 0 16.5 8t6.5 36q5 42 5 73t-12 32q-14 1 -31 -33t-17 -63q0 -23 9 -38t23 -15z" />
<glyph unicode="x" horiz-adv-x="370" d="M174 160l-18 -33q-32 -59 -41 -73t-29 -33q-30 -28 -63 -28q-14 0 -23.5 8.5t-9.5 21.5q0 14 9.5 23.5t22.5 9.5q6 0 29 -7q2 -1 6 -1q27 0 70 79l36 66l-32 81q-14 37 -21 46.5t-20 9.5q-14 0 -21.5 -10t-13.5 -37q-2 -10 -12 -10q-9 0 -9 16q0 42 21 74.5t49 32.5 q26 0 52 -40q18 -27 43 -98l22 41q23 44 52 70.5t54 26.5q14 0 24 -9.5t10 -22.5t-7.5 -21t-19.5 -8q-4 0 -19 4q-14 2 -15 2q-15 0 -33.5 -19t-32.5 -48l-22 -46q1 -2 2 -4.5t1.5 -4l1 -3t1.5 -2.5v-1l17 -50q29 -81 51 -113q16 -22 40 -22q5 0 21 3h4q12 0 12 -10 t-19 -16.5t-46 -6.5q-47 0 -67 17.5t-36 72.5z" />
<glyph unicode="y" horiz-adv-x="353" d="M214 199l31 -74q30 94 30 165q0 20 -11 44q-10 20 -10 32q0 30 25 30q16 0 26 -16.5t10 -43.5q0 -35 -18 -121t-38 -144q-37 -110 -83 -175q-21 -30 -51.5 -48t-58.5 -18q-25 0 -43 14.5t-18 34.5q0 12 7 20t18 8q12 0 31 -13q21 -14 34 -14q31 0 64 44q51 69 51 110 q0 20 -20.5 77.5t-46.5 111.5q-50 103 -82 103q-18 0 -28 -13.5t-17 -45.5q-2 -8 -9 -8q-9 0 -9 22q0 25 11 58q20 54 60 54q31 0 69 -51t76 -143z" />
<glyph unicode="z" horiz-adv-x="356" d="M324 332l-195 -239q45 -31 65.5 -52.5t44.5 -62.5q17 -29 25 -37.5t19 -8.5q18 0 28 26q9 23 23 23q9 0 15 -6.5t6 -15.5q0 -18 -26.5 -35.5t-54.5 -17.5q-31 0 -57 21q-14 12 -43 45q-55 65 -80 65q-14 0 -33 -28q-8 -12 -18 -12q-14 0 -14 13q0 9 17 26l29 33l173 211 q-33 6 -49.5 13t-46.5 26q-33 21 -48 21q-12 0 -20.5 -10.5t-8.5 -24.5q0 -15 15 -31q6 -6 6 -11q0 -9 -9 -9q-12 0 -24.5 21.5t-12.5 42.5q0 32 21 55t49 23q20 0 71 -25q68 -33 94 -33q11 0 16 6.5t11 31.5q5 17 19 17q7 0 12.5 -5.5t5.5 -12.5q0 -12 -25 -43z" />
<glyph unicode="{" horiz-adv-x="257" d="M169 -113h-31q-42 0 -66 26t-24 71q0 19 3 40l16 135q4 42 4 43q0 43 -41 77q-7 6 -7 10q0 5 10 12q34 26 47.5 50.5t18.5 69.5l17 135q7 62 31 93q34 44 90 44h31q29 0 29 -10q0 -6 -8 -9t-39 -8q-63 -17 -76 -125l-16 -132q-9 -78 -63 -110q-8 -6 -8 -9t15 -16 q28 -25 28 -79q0 -17 -1 -24l-17 -132q-3 -29 -3 -50q0 -37 18.5 -56.5t59.5 -25.5q14 -2 14 -8q0 -7 -6.5 -9.5t-25.5 -2.5z" />
<glyph unicode="|" d="M229 -167v834h42v-834h-42z" />
<glyph unicode="}" horiz-adv-x="257" d="M45 -113h-31q-29 0 -29 10q0 6 8 9t39 8q34 10 51.5 39.5t24.5 85.5l16 132q9 77 62 110q9 6 9 9t-15 16q-28 25 -28 79q0 17 1 24l16 132q4 40 4 50q0 37 -18.5 56t-59.5 26q-14 2 -14 9q0 11 32 11h31q41 0 65.5 -25.5t24.5 -69.5q0 -20 -3 -42l-16 -135q-4 -42 -4 -43 q0 -19 11.5 -41t29.5 -36q7 -7 7 -10q0 -5 -10 -12q-35 -26 -48.5 -51t-18.5 -69l-16 -135q-7 -60 -32 -93q-34 -44 -89 -44z" />
<glyph unicode="~" horiz-adv-x="667" d="M132 616l-12 8q60 93 138 93q29 0 94 -22q55 -18 79 -18q58 0 104 57l12 -8q-26 -41 -63 -66.5t-73 -25.5q-21 0 -66 15q-84 28 -118 28q-27 0 -46 -12t-49 -49z" />
<glyph unicode="&#xa1;" horiz-adv-x="229" d="M138 415q-5 0 -8.5 3t-18.5 22q-6 7 -17 16q-7 7 -7 11q0 5 9 13q27 22 40 37q8 10 13 10t11 -10q11 -18 27 -33q9 -8 9 -14q0 -8 -12 -16q-14 -11 -32 -30q-9 -9 -14 -9zM51 -79l68 393q3 15 11 15q12 0 10 -15v-1l-19 -393q-1 -40 -37 -40q-34 0 -34 25q0 10 1 16z" />
<glyph unicode="&#xa2;" d="M227 67l11 93q-58 2 -89.5 41t-31.5 107q0 88 48.5 160.5t119.5 92.5l8 67q1 10 13 10q16 0 16 -14v-3l-7 -56q5 1 10 1q37 0 66.5 -18t29.5 -40q0 -13 -9 -22.5t-21 -9.5q-8 0 -18 8l-28 30q-15 17 -33 23l-39 -330q6 -1 13 -1q22 0 47.5 10t41.5 25q21 19 27 19 q5 0 5 -4q0 -9 -15 -27t-33 -31q-39 -29 -92 -36l-11 -93q-1 -14 -14 -14q-15 0 -15 12zM244 213l39 326q-49 -10 -78.5 -63t-29.5 -131q0 -103 69 -132z" />
<glyph unicode="&#xa3;" d="M332 328h-95q6 -36 6 -60q0 -65 -31 -115.5t-113 -116.5q85 25 118 25q19 0 32 -5.5t78 -40.5q23 -12 46 -12q18 0 30 5.5t45 29.5q5 5 13 5q6 0 6 -5q0 -16 -41 -49q-50 -40 -100 -40q-26 0 -64 19q-85 42 -130 42q-55 0 -95 -18q-12 -5 -15 -5q-11 0 -11 9 q0 6 6.5 12.5t37.5 28.5q66 47 91.5 83.5t25.5 83.5q0 38 -21 124h-89q-17 0 -17 13q0 17 20 17h79q-6 37 -6 68q0 103 69 177t166 74q61 0 103.5 -31.5t42.5 -75.5q0 -24 -14.5 -39t-37.5 -15q-41 0 -41 46q0 6 3 28q1 3 1 9q0 22 -19.5 35.5t-51.5 13.5q-34 0 -65.5 -15 t-51.5 -40q-29 -39 -29 -100q0 -49 19 -135h103q17 0 17 -13q0 -17 -20 -17z" />
<glyph unicode="&#xa4;" d="M139 181l-55 -54q-14 -14 -18 -14q-6 0 -11.5 6t-5.5 11q0 4 12 16l56 56q-49 59 -49 131q0 73 49 131l-58 57q-11 11 -11 15t7 11t11 7q3 0 12 -9l60 -60q58 49 130 49q74 0 131 -49l58 57q12 12 15 12q4 0 11 -7t7 -11q0 -3 -9 -12l-60 -61q48 -58 48 -130t-49 -130 l55 -55q14 -14 14 -18q0 -5 -6 -11t-11 -6q-4 0 -16 12l-57 57q-58 -49 -130 -49q-73 0 -130 48zM268 179q64 0 109 45.5t45 108.5t-44.5 108.5t-106.5 45.5q-65 0 -110.5 -44.5t-45.5 -108.5t45 -109.5t108 -45.5z" />
<glyph unicode="&#xa5;" d="M281 175l-9 -75q-2 -20 -2 -29q0 -22 10.5 -34t34.5 -17q27 -5 27 -13q0 -10 -16 -10q-6 0 -38 4q-10 1 -42 1q-30 0 -79 -4q-3 -1 -8 -1q-17 0 -17 9q0 5 3 7t14 5q26 8 33.5 20t12.5 50l10 87h-101q-17 0 -17 13q0 17 20 17h102l8 61l1 19q0 5 -3 17h-123q-16 0 -16 13 q0 17 20 17h105l-98 232q-18 44 -29 57t-33 16q-17 3 -17 10q0 10 14 10q8 0 13 -1q27 -4 62 -4q33 0 75 4q8 1 17 1q16 0 16 -10q0 -8 -18 -11q-30 -3 -30 -28q0 -15 15 -54l78 -197q6 -16 10 -16q6 0 19 22l102 175q27 46 27 66q0 28 -42 30q-22 1 -22 12t15 11q9 0 14 -1 q29 -4 63 -4q41 0 64 4q6 1 14 1q12 0 12 -10q0 -8 -17 -12q-23 -5 -38 -21t-45 -65l-112 -185l-16 -24l-5 -8h110q17 0 17 -13q0 -17 -20 -17h-124q-9 -24 -11 -46l-6 -51h102q17 0 17 -13q0 -17 -21 -17h-102z" />
<glyph unicode="&#xa6;" d="M229 337v330h42v-330h-42zM229 153h42l1 -320h-43v320z" />
<glyph unicode="&#xa7;" d="M13 -24q0 22 11 50.5t19 28.5q9 0 13 -22q5 -29 17 -48q18 -29 51.5 -46.5t71.5 -17.5q64 0 111 33.5t47 80.5q0 34 -31 51q-13 8 -109 49q-81 36 -111 62q-48 45 -48 104q0 82 83 156q-27 36 -27 75q0 63 55 104t139 41q76 0 126 -34q16 -11 28.5 -24.5t12.5 -20.5 q0 -4 -6 -16q-2 -3 -9 -19q-13 -32 -24 -32q-7 0 -10 15q-17 103 -120 103q-51 0 -89 -27t-38 -64q0 -26 24 -48q13 -12 29.5 -20.5t90.5 -39.5q86 -37 119 -72t33 -89q0 -77 -75 -165q24 -37 24 -66q0 -66 -68 -118.5t-153 -52.5q-92 0 -161 53q-26 21 -26 36zM142 273 q18 -16 98 -51q70 -30 92 -42t47 -33q40 51 40 99q0 36 -25.5 60t-94.5 54q-101 44 -140 75q-45 -39 -45 -93q0 -44 28 -69z" />
<glyph unicode="&#xa8;" d="M382 541l12 -16q4 -7 4 -10q0 -4 -7 -11q-16 -17 -27 -30q-6 -7 -10 -7q-6 0 -10 9q-6 12 -18 32q-5 6 -5 10q0 5 18 25q4 3 14 16q6 8 11 8q4 0 9 -9zM238 490l-13 -16q-6 -7 -10 -7q-5 0 -10 9q-12 24 -18 32q-5 6 -5 10q0 5 18 25q2 0 14 16q6 8 11 8t9 -9l9 -17 l12 -16q4 -7 4 -10q0 -4 -7 -11z" />
<glyph unicode="&#xa9;" horiz-adv-x="773" d="M58 326q0 68 30 136.5t80 116.5q107 101 249 101q140 0 237.5 -97t97.5 -237q0 -147 -106 -253t-253 -106q-142 0 -238.5 98t-96.5 241zM95 327q0 -128 86 -215.5t213 -87.5q131 0 226 94.5t95 225.5q0 125 -87 212t-213 87q-130 0 -225 -94t-95 -222zM553 199l-2 -12 q-1 -9 -6 -14t-22 -14q-58 -32 -126 -32q-86 0 -136 52t-50 141q0 95 57.5 157t145.5 62q68 0 128 -37q3 -3 5 -3q1 0 5 5q3 3 8 3q7 0 8.5 -5.5t1.5 -35.5q0 -2 0.5 -7.5t1.5 -16t2 -19.5q1 -4 1 -11q0 -15 -11 -15q-9 0 -13 17q-12 37 -36 59q-46 41 -105 41 q-64 0 -105 -50t-41 -129q0 -80 40.5 -131.5t103.5 -51.5q42 0 79 23.5t49 58.5q7 21 17 21t10 -15q0 -11 -4 -22q-6 -16 -6 -19z" />
<glyph unicode="&#xaa;" horiz-adv-x="301" d="M100 263q-25 0 -40.5 17t-15.5 44q0 67 47.5 125t101.5 58q19 0 36 -6q8 -2 10 -2q7 0 19 18q9 12 14 12q6 0 6 -8q0 -5 -4 -22q-25 -98 -25 -161q0 -30 9 -30q13 0 28 28q6 12 12 12q9 0 9 -9q0 -20 -25.5 -47t-44.5 -27q-24 0 -31 59q-52 -61 -106 -61zM128 299 q25 0 50.5 24.5t29.5 53.5q5 33 17 82q2 10 2 13q0 5 -10.5 10.5t-22.5 5.5q-37 0 -70.5 -48.5t-33.5 -101.5q0 -39 38 -39z" />
<glyph unicode="&#xab;" horiz-adv-x="334" d="M171 157q-20 24 -20 36q0 15 30 42q44 42 87 96q21 27 30 27q12 0 12 -11q0 -6 -9 -20q-24 -34 -50 -80t-26 -53t16.5 -57t26.5 -72q5 -12 5 -18q0 -5 -5 -9t-10 -4q-7 0 -11.5 7t-27.5 49q-17 31 -48 67zM102 90q-17 31 -48 67q-20 24 -20 37q0 14 30 41q41 37 87 96 q21 27 30 27q12 0 12 -11q0 -6 -9 -20q-24 -35 -50 -80.5t-26 -52.5t16.5 -56.5t26.5 -72.5q5 -12 5 -18q0 -5 -5 -9t-10 -4q-7 0 -12 7t-27 49z" />
<glyph unicode="&#xac;" d="M37 233v34h426v-267h-77v233h-349z" />
<glyph unicode="&#xad;" horiz-adv-x="153" d="M7 150q-9 0 -9 18q0 25 8.5 32t46.5 16q43 11 80 27q12 7 18 6q7 -1 7 -15q0 -22 -6.5 -31t-24.5 -14q-35 -7 -108 -36q-6 -3 -12 -3z" />
<glyph unicode="&#xae;" horiz-adv-x="773" d="M58 326q0 68 30 136.5t80 116.5q107 101 249 101q140 0 237.5 -97t97.5 -237q0 -147 -106 -253t-253 -106q-142 0 -238.5 98t-96.5 241zM95 327q0 -128 86 -215.5t213 -87.5q131 0 226 94.5t95 225.5q0 125 -87 212t-213 87q-130 0 -225 -94t-95 -222zM263 132h-5 q-14 0 -14 9q0 8 14 12t17.5 9.5t6.5 28.5l34 279q1 6 1 17q0 23 -25 27q-19 4 -19 12q0 10 13 10q1 0 3.5 -0.5t7 -1t7.5 -0.5q7 -2 18 -2t56 3q11 1 39 1q63 0 88 -21q29 -24 29 -65q0 -35 -23 -65.5t-59 -42.5q-6 -1 -6 -4t1 -5l6 -16q39 -104 57.5 -134.5t41.5 -29.5 q12 0 12 -6q0 -17 -45 -17q-46 0 -65 49l-51 138q-4 11 -6.5 13t-13.5 2h-7q-4 0 -7.5 -0.5t-5.5 -1.5h-2h-4q-5 0 -7 -2t-3 -9l-14 -121q-2 -14 -2 -17q-1 -21 25 -27q20 -4 20 -11q0 -11 -14 -11q-6 0 -16 1q-14 2 -36 2q-16 0 -47 -3zM354 368q-1 -7 8.5 -9t43.5 -2 q35 0 55 22t20 61q0 33 -20 52t-54 19q-23 0 -30.5 -5t-9.5 -23z" />
<glyph unicode="&#xaf;" d="M191 493q-15 0 -15 9q0 2 11 27q4 9 17 9q1 0 34 -1q15 0 29 -0.5t20.5 -1t7.5 -0.5l71 1q26 0 32.5 -1.5t6.5 -8.5q0 -14 -10 -24.5t-23 -10.5h-8q-10 0 -59 1.5t-73 1.5q-19 0 -29 -1h-12z" />
<glyph unicode="&#xb0;" horiz-adv-x="347" d="M215 399q-55 0 -94 39.5t-39 95.5q0 55 39.5 94t95.5 39q54 0 93 -39.5t39 -94.5t-39.5 -94.5t-94.5 -39.5zM215 443q37 0 63.5 26.5t26.5 63.5q0 36 -26.5 62.5t-61.5 26.5q-38 0 -64.5 -26t-26.5 -63t26 -63.5t63 -26.5z" />
<glyph unicode="&#xb1;" d="M291 302l3 -130q1 -6 1 -15q0 -11 -3 -14t-18 -7q-7 -2 -20 -8q-3 -2 -4 -2q-12 0 -10 23q2 37 2 70q0 18 -1 83l-100 1q-10 0 -32 -2l-22 -1q-19 -1 -19 11q0 9 10 34q5 10 21 10h13q30 0 71 -2q4 0 11.5 -0.5t21.5 -1t25 -0.5v42q0 2 -0.5 13t-1.5 28t-1 35v14 q0 13 2 16.5t12 13.5q15 14 25 14q12 0 12 -18q2 -140 1 -159l94 1q60 0 71 -1.5t11 -10.5q0 -12 -11 -30q-4 -11 -26 -11q-2 0 -9.5 0.5t-11.5 0.5q-54 3 -87 3h-30zM168 22l-57 -1q-6 0 -16 -1t-11 -1q-16 0 -16 10q0 3 4 13l11 30q5 4 18 4h12q4 0 13 -0.5t29.5 -1.5 t50.5 -1q59 -1 140.5 -2t100.5 -1q20 0 20 -12q0 -7 -12 -22q-11 -13 -14.5 -15.5t-15.5 -2.5q-1 0 -2.5 0.5t-6.5 1t-14 0.5t-28 0.5t-45 0.5h-84q-12 0 -37.5 0.5t-39.5 0.5z" />
<glyph unicode="&#xb2;" horiz-adv-x="332" d="M298 327l-38 -51q-8 -11 -15 -11q-2 0 -16 2q-30 3 -67 3q-51 0 -78 -3q-12 -2 -14 -2q-14 0 -14 10q0 7 12 20l56 64q14 16 42 57t38 60q32 58 32 100q0 46 -47 46q-21 0 -34.5 -5.5t-40.5 -27.5q-4 -4 -11 -4q-11 0 -11 10q0 12 27 35q41 33 88 33q39 0 64 -20.5 t25 -52.5q0 -66 -90 -175l-69 -84q-6 -9 -6 -11q0 -6 68 -6q31 0 45.5 5t30.5 21q11 10 18 10q12 0 12 -10q0 -2 -7 -13z" />
<glyph unicode="&#xb3;" horiz-adv-x="332" d="M134 263q-28 0 -54.5 12t-26.5 24q0 5 4.5 9.5t9.5 4.5q7 0 12 -4q34 -15 56 -15q42 0 74 35.5t32 81.5q0 28 -17 44t-46 16q-12 0 -13 -1q-6 -1 -11 -1q-10 0 -10 10t14 14q31 11 54 37.5t23 52.5q0 17 -12 28t-31 11q-17 0 -27 -5t-34 -24q-7 -5 -13 -5q-4 0 -8 3.5 t-4 7.5q0 10 22 29q42 35 86 35q34 0 54.5 -16.5t20.5 -45.5q0 -45 -64 -96q40 -8 57 -26t17 -52q0 -66 -49 -115t-116 -49z" />
<glyph unicode="&#xb4;" horiz-adv-x="475" d="M351 512l-81 -48q-14 -9 -20 -9q-10 0 -10 10q0 8 11 20l52 70q22 29 40 29q15 0 25.5 -9.5t10.5 -23.5q0 -23 -28 -39z" />
<glyph unicode="&#xb5;" d="M121 9l-12 -131q-3 -38 -36 -38q-35 0 -35 24q0 6 2 18l75 377q7 33 7 52q0 20 -12 20q-9 0 -21.5 -14t-20.5 -33q-7 -17 -15 -17q-10 0 -10 12q0 39 33.5 78.5t67.5 39.5q17 0 27.5 -17.5t10.5 -46.5q0 -13 -3 -30l-27 -168q-8 -50 -8 -60q0 -21 15 -21q17 0 53.5 38 t71.5 91q54 85 80 181q5 18 10.5 23.5t18.5 5.5q26 0 26 -19q0 -9 -1 -13l-25 -113q-24 -113 -24 -163q0 -25 20 -25q27 0 57 54q8 12 14 12q10 0 10 -11q0 -36 -45.5 -77t-84.5 -41q-14 0 -23 14t-9 37q0 42 14 120l4 32q-61 -93 -108 -136.5t-97 -54.5z" />
<glyph unicode="&#xb6;" d="M314 609l-86 -704q-1 -13 -8 -17t-28 -4q-30 0 -53 -2q-20 -2 -27 -2q-15 0 -15 9q0 10 17 13q37 6 50 26t21 81l45 359q0 6 -9 9l-36 -2q-17 0 -55 19q-32 17 -50.5 49t-18.5 72q0 61 36 107q39 50 123 50q4 0 24 -2q39 -4 54 -4l42 2q40 2 77 2.5t54 1t22 1.5q6 1 14 1 q4 0 7.5 -3t3.5 -6q0 -6 -6.5 -10t-35.5 -14q-22 -11 -32.5 -36.5t-17.5 -80.5l-58 -479q-7 -58 -7 -68q0 -36 19 -57q10 -10 38 -15q20 -3 20 -11q0 -5 -5.5 -9t-12.5 -4q-2 0 -18 2q-22 2 -39 2q-18 0 -28 -1h-12q-17 0 -23.5 3.5t-5.5 11.5l87 710q2 13 -6 19t-26 6 q-32 0 -35 -25z" />
<glyph unicode="&#xb7;" horiz-adv-x="226" d="M91 251l15 16q9 9 14 9t8.5 -3t18.5 -22q13 -13 17 -16q7 -7 7 -11q0 -6 -9 -13q-29 -23 -40 -37q-6 -10 -13 -10q-5 0 -11 10q-12 19 -27 33q-9 8 -9 14q0 8 12 16q16 12 17 14z" />
<glyph unicode="&#xb8;" d="M253 0l-18 -66q31 -5 48.5 -20.5t17.5 -38.5q0 -24 -19 -40.5t-47 -16.5q-37 0 -64 26q-20 17 -20 25q0 5 5 5q2 0 7 -3q27 -24 55 -24q14 0 24 10.5t10 23.5q0 23 -38 38l21 81h18z" />
<glyph unicode="&#xb9;" horiz-adv-x="332" d="M126 265q-14 0 -14 11q0 13 19 14q22 1 28 10t10 43l27 222q2 14 2 25q0 12 -11 12q-3 0 -21 -5q-6 -3 -12 -3q-10 0 -10 10q0 8 5 11.5t36 16.5l23 10q15 7 28 18q10 8 15 8q10 0 10 -11q0 -4 -3 -19q-1 -4 -7 -30q-1 -2 -1.5 -8t-0.5 -9l-2 -13l-29 -239q-2 -18 -2 -21 q0 -27 32 -28q22 0 22 -12q0 -13 -17 -13l-3 1q-4 0 -11 0.5t-15 0.5q-7 1 -32 1q-29 0 -43 -1l-11 -1l-6 -1h-6z" />
<glyph unicode="&#xba;" horiz-adv-x="268" d="M142 263q-41 0 -67 28t-26 71q0 61 36.5 104t88.5 43q43 0 68.5 -27t25.5 -72q0 -60 -37 -103.5t-89 -43.5zM146 286q35 0 53 38q21 42 21 90q0 74 -46 74q-33 0 -55 -35t-22 -88q0 -79 49 -79z" />
<glyph unicode="&#xbb;" horiz-adv-x="334" d="M143 45q0 6 9 20q25 36 50.5 81t25.5 52t-17 57t-26 72q-5 12 -5 18q0 5 5 9t11 4t10.5 -7t27.5 -49q17 -31 48 -67q20 -24 20 -36q0 -15 -30 -42q-45 -43 -87 -96q-21 -27 -30 -27q-12 0 -12 11zM38 34q-12 0 -12 11q0 6 9 20q25 36 50.5 81t25.5 52t-17 57t-26 72 q-5 12 -5 18q0 5 5 9t11 4t11 -7t27 -49q17 -31 48 -67q20 -24 20 -36q0 -15 -30 -42q-45 -43 -87 -96q-21 -27 -30 -27z" />
<glyph unicode="&#xbc;" horiz-adv-x="776" d="M126 265q-14 0 -14 11q0 13 19 14q22 1 28 10t10 43l27 222q2 14 2 25q0 12 -11 12q-3 0 -21 -5q-6 -3 -12 -3q-10 0 -10 10q0 8 5 11.5t36 16.5l23 10q15 7 28 18q10 8 15 8q10 0 10 -11q0 -4 -3 -19q-1 -4 -7 -30q-1 -2 -1.5 -8t-0.5 -9l-31 -252q-2 -18 -2 -21 q0 -27 32 -28q22 0 22 -12q0 -13 -17 -13l-3 1q-4 0 -11 0.5t-15 0.5q-7 1 -32 1q-29 0 -43 -1l-11 -1zM641 636l-428 -619q-11 -16 -16.5 -20t-17.5 -4q-17 0 -17 10q0 3 5 9l433 630q12 18 31 18q17 0 17 -9q0 -5 -7 -15zM627 120h-140q-20 0 -20 12q0 11 25 40l32 40 q36 45 134 154q23 26 28 30t12 4q11 0 11 -10q0 -3 -6 -33q0 -1 -1 -5t-1.5 -11t-1.5 -12l-21 -170h7q11 0 17.5 4t20.5 18q1 3 8 3q11 0 11 -9q0 -3 -1 -5l-16 -40q-4 -10 -22 -10h-30l-12 -101q-1 -12 -13 -16q-18 -7 -26 -7q-13 0 -13 13q0 4 7 30q3 11 4 23zM523 159 h109l20 155q-40 -39 -129 -155z" />
<glyph unicode="&#xbd;" horiz-adv-x="776" d="M126 265q-14 0 -14 11q0 13 19 14q22 1 28 10t10 43l27 222q2 14 2 25q0 12 -11 12q-3 0 -21 -5q-6 -3 -12 -3q-10 0 -10 10q0 8 5 11.5t36 16.5l23 10q15 7 28 18q10 8 15 8q10 0 10 -11q0 -4 -3 -19q-1 -4 -7 -30q-1 -2 -1.5 -8t-0.5 -9l-31 -252q-2 -18 -2 -21 q0 -27 32 -28q22 0 22 -12q0 -13 -17 -13l-3 1q-4 0 -11 0.5t-15 0.5q-7 1 -32 1q-29 0 -43 -1l-11 -1zM641 636l-428 -619q-11 -16 -16.5 -20t-17.5 -4q-17 0 -17 10q0 3 5 9l433 630q12 18 31 18q17 0 17 -9q0 -5 -7 -15zM496 -1l-14 -1q-14 0 -14 10q0 6 12 20l56 64 q14 15 42 56.5t38 60.5q32 59 32 100q0 46 -47 46q-21 0 -34 -6t-41 -28q-6 -4 -11 -4q-11 0 -11 10q0 12 27 35q40 34 89 34q38 0 63 -20.5t25 -52.5q0 -65 -90 -175l-68 -84q-7 -8 -7 -11q0 -7 68 -7q31 0 45.5 5t30.5 22q11 10 18 10q12 0 12 -10q0 -3 -7 -13l-38 -51 q-8 -11 -15 -11q-9 0 -16 1q-24 3 -67 3q-64 0 -78 -3z" />
<glyph unicode="&#xbe;" horiz-adv-x="776" d="M134 263q-28 0 -54.5 12t-26.5 24q0 5 4.5 9.5t9.5 4.5q7 0 12 -4q34 -15 56 -15q42 0 74 35.5t32 81.5q0 28 -17 44t-46 16q-12 0 -13 -1q-6 -1 -11 -1q-10 0 -10 10t14 14q31 11 54 37.5t23 52.5q0 17 -12 28t-31 11q-17 0 -27 -5t-34 -24q-7 -5 -13 -5q-4 0 -8 3.5 t-4 7.5q0 10 22 29q42 35 86 35q34 0 54.5 -16.5t20.5 -45.5q0 -45 -64 -96q40 -8 57 -26t17 -52q0 -66 -49 -115t-116 -49zM640 636l-427 -619q-11 -16 -17 -20t-17 -4q-17 0 -17 10q0 4 4 9l434 630q12 18 31 18q17 0 17 -9q0 -2 -8 -15zM627 120h-141q-19 0 -19 12 q0 11 25 40l32 40q38 47 134 154q23 26 28 30t12 4q11 0 11 -10v-1.5t-0.5 -2.5t-1 -5t-2 -9.5t-2.5 -14.5l-5 -28l-20 -170h6q12 0 18.5 4t20.5 18q1 3 8 3q5 0 8.5 -2.5t2.5 -6.5l-1 -5l-16 -40q-4 -10 -23 -10h-29l-12 -101q-1 -12 -14 -16q-17 -7 -26 -7q-13 0 -13 13 q0 4 8 30q3 17 4 23zM522 159h110l20 155q-40 -37 -130 -155z" />
<glyph unicode="&#xbf;" horiz-adv-x="284" d="M188 415q-5 0 -8.5 3t-18.5 22q-6 7 -17 16q-7 7 -7 11q0 5 9 13q27 22 40 37q8 10 13 10t11 -10q13 -20 27 -33q9 -8 9 -14q0 -8 -12 -16q-11 -8 -32 -30q-9 -9 -14 -9zM156 142l-42 -73q-29 -50 -29 -78t24.5 -51t53.5 -23q10 0 15 2.5t26 17.5q4 4 9 4q7 0 7 -7 q0 -12 -25 -30q-31 -24 -67 -24q-44 0 -78.5 32t-34.5 73t49 104l50 64q57 73 57 122q0 6 -2 18t-2 13q0 6 7 6q8 0 15 -17.5t7 -39.5q0 -43 -40 -113z" />
<glyph unicode="&#xc0;" horiz-adv-x="636" d="M298 769q-24 8 -33.5 17t-9.5 25q0 17 11 28.5t27 11.5q15 0 31 -15l76 -69q12 -11 12 -18q0 -9 -11 -9t-18 3zM-8 -3q-15 -1 -15 10q0 6 5 8.5t29 10.5q17 5 26.5 18t34.5 62l280 547q8 17 19 17q10 0 15 -17l159 -509q23 -74 35 -98q12 -16 39 -25q14 -4 14 -12 q0 -12 -21 -12q-6 0 -12 1q-36 4 -63 4q-2 0 -66 -4l-15 -1q-18 -2 -18 10q0 7 23 13q22 5 30 13.5t7 26.5q-2 23 -8 40l-34 107q-8 26 -13 30.5t-27 4.5h-201q-23 0 -29.5 -2.5t-12.5 -14.5l-62 -125q-15 -28 -15 -49q0 -14 10 -20.5t40 -12.5q16 -4 16 -13q0 -8 -15 -8 q-6 0 -12 1q-35 4 -62 4q-14 0 -34.5 -2t-29.5 -2zM335 542l-122 -236q-7 -13 -7 -16q0 -4 3 -5t19 -1h169q30 0 30 12q0 3 -3 12l-75 235q-1 10 -7 10q-2 0 -7 -11z" />
<glyph unicode="&#xc1;" horiz-adv-x="636" d="M480 763l-91 -20q-15 -3 -19 -3q-11 0 -11 10q0 7 16 20l70 55q24 18 39 18q14 0 25.5 -12.5t11.5 -28.5q0 -30 -41 -39zM-8 -3q-15 -1 -15 10q0 6 5 8.5t29 10.5q17 5 26.5 18t34.5 62l280 547q8 17 19 17q10 0 15 -17l159 -509q23 -74 35 -98q12 -16 39 -25 q14 -4 14 -12q0 -12 -21 -12q-6 0 -12 1q-36 4 -63 4q-2 0 -66 -4l-15 -1q-18 -2 -18 10q0 7 23 13q22 5 30 13.5t7 26.5q-2 23 -8 40l-34 107q-8 26 -13 30.5t-27 4.5h-201q-23 0 -29.5 -2.5t-12.5 -14.5l-62 -125q-15 -28 -15 -49q0 -14 10 -20.5t40 -12.5q16 -4 16 -13 q0 -8 -15 -8q-6 0 -12 1q-35 4 -62 4q-14 0 -34.5 -2t-29.5 -2zM335 542l-122 -236q-7 -13 -7 -16q0 -4 3 -5t19 -1h169q30 0 30 12q0 3 -3 12l-75 235q-1 10 -7 10q-2 0 -7 -11z" />
<glyph unicode="&#xc2;" horiz-adv-x="636" d="M395 787l-121 -50q-6 -3 -12 -3q-8 0 -8 8q0 4 8 11l144 103l80 -106q4 -4 4 -9q0 -7 -7 -7q-3 0 -9 3zM-8 -3q-15 -1 -15 10q0 6 5 8.5t29 10.5q17 5 26.5 18t34.5 62l280 547q8 17 19 17q10 0 15 -17l159 -509q23 -74 35 -98q12 -16 39 -25q14 -4 14 -12q0 -12 -21 -12 q-6 0 -12 1q-36 4 -63 4q-2 0 -66 -4l-15 -1q-18 -2 -18 10q0 7 23 13q22 5 30 13.5t7 26.5q-2 23 -8 40l-34 107q-8 26 -13 30.5t-27 4.5h-201q-23 0 -29.5 -2.5t-12.5 -14.5l-62 -125q-15 -28 -15 -49q0 -14 10 -20.5t40 -12.5q16 -4 16 -13q0 -8 -15 -8q-6 0 -12 1 q-35 4 -62 4q-14 0 -34.5 -2t-29.5 -2zM335 542l-122 -236q-7 -13 -7 -16q0 -4 3 -5t19 -1h169q30 0 30 12q0 3 -3 12l-75 235q-1 10 -7 10q-2 0 -7 -11z" />
<glyph unicode="&#xc3;" horiz-adv-x="636" d="M285 745q-8 0 -8 8q0 11 21 35q33 39 66 39q16 0 41 -14q22 -11 41 -11q21 0 42 18q14 11 17 11q7 0 7 -8q0 -15 -26 -44q-28 -34 -61 -34q-18 0 -47 16q-24 13 -41 13q-20 0 -38 -20q-9 -9 -14 -9zM-8 -3q-15 -1 -15 10q0 6 5 8.5t29 10.5q17 5 26.5 18t34.5 62l280 547 q8 17 19 17q10 0 15 -17l159 -509q23 -74 35 -98q12 -16 39 -25q14 -4 14 -12q0 -12 -21 -12q-6 0 -12 1q-36 4 -63 4q-2 0 -66 -4l-15 -1q-18 -2 -18 10q0 7 23 13q22 5 30 13.5t7 26.5q-2 23 -8 40l-34 107q-8 26 -13 30.5t-27 4.5h-201q-23 0 -29.5 -2.5t-12.5 -14.5 l-62 -125q-15 -28 -15 -49q0 -14 10 -20.5t40 -12.5q16 -4 16 -13q0 -8 -15 -8q-6 0 -12 1q-35 4 -62 4q-14 0 -34.5 -2t-29.5 -2zM335 542l-122 -236q-7 -13 -7 -16q0 -4 3 -5t19 -1h169q30 0 30 12q0 3 -3 12l-75 235q-1 10 -7 10q-2 0 -7 -11z" />
<glyph unicode="&#xc4;" horiz-adv-x="636" d="M497 820l12 -17q5 -8 5 -11q0 -4 -8 -12q-16 -16 -28 -32q-7 -8 -11 -8q-6 0 -12 10q-13 27 -19 34q-5 8 -5 11q0 6 20 27l14 18q7 9 12 9t10 -9zM331 820l12 -17q5 -8 5 -11q0 -4 -8 -12q-15 -15 -28 -32q-7 -8 -11 -8q-6 0 -12 10q-9 21 -19 34q-5 8 -5 11q0 6 20 27 l14 18q7 9 12 9t10 -9zM-8 -3q-15 -1 -15 10q0 6 5 8.5t29 10.5q17 5 26.5 18t34.5 62l280 547q8 17 19 17q10 0 15 -17l159 -509q23 -74 35 -98q12 -16 39 -25q14 -4 14 -12q0 -12 -21 -12q-6 0 -12 1q-36 4 -63 4q-2 0 -66 -4l-15 -1q-18 -2 -18 10q0 7 23 13 q22 5 30 13.5t7 26.5q-2 23 -8 40l-34 107q-8 26 -13 30.5t-27 4.5h-201q-23 0 -29.5 -2.5t-12.5 -14.5l-62 -125q-15 -28 -15 -49q0 -14 10 -20.5t40 -12.5q16 -4 16 -13q0 -8 -15 -8q-6 0 -12 1q-35 4 -62 4q-14 0 -34.5 -2t-29.5 -2zM335 542l-122 -236q-7 -13 -7 -16 q0 -4 3 -5t19 -1h169q30 0 30 12q0 3 -3 12l-75 235q-1 10 -7 10q-2 0 -7 -11z" />
<glyph unicode="&#xc5;" horiz-adv-x="636" d="M376 723q-38 0 -64 21t-26 52q0 30 26 51t64 21q37 0 63 -21t26 -51q0 -31 -26 -52t-63 -21zM376 747q20 0 33.5 14t13.5 34t-13.5 34t-33.5 14t-34 -13.5t-14 -33.5q0 -22 13.5 -35.5t34.5 -13.5zM-8 -3q-15 -1 -15 10q0 6 5 8.5t29 10.5q17 5 26.5 18t34.5 62l280 547 q8 17 19 17q10 0 15 -17l159 -509q23 -74 35 -98q12 -16 39 -25q14 -4 14 -12q0 -12 -21 -12q-6 0 -12 1q-36 4 -63 4q-2 0 -66 -4l-15 -1q-18 -2 -18 10q0 7 23 13q22 5 30 13.5t7 26.5q-2 23 -8 40l-34 107q-8 26 -13 30.5t-27 4.5h-201q-23 0 -29.5 -2.5t-12.5 -14.5 l-62 -125q-15 -28 -15 -49q0 -14 10 -20.5t40 -12.5q16 -4 16 -13q0 -8 -15 -8q-6 0 -12 1q-35 4 -62 4q-14 0 -34.5 -2t-29.5 -2zM335 542l-122 -236q-7 -13 -7 -16q0 -4 3 -5t19 -1h169q30 0 30 12q0 3 -3 12l-75 235q-1 10 -7 10q-2 0 -7 -11z" />
<glyph unicode="&#xc6;" horiz-adv-x="927" d="M-6 -2l-16 -1q-14 -2 -14 9q0 9 17 15q22 7 36 18.5t42 46.5l140 174q40 50 163 195l133 155q8 10 8 18q0 13 -32 19q-19 3 -19 12q0 12 19 12q24 0 42 -2q65 -5 173 -5q132 0 184 5q34 2 40 2q13 0 13 -12l-1 -48l2 -74q0 -16 -11 -16t-13 20q-2 22 -4.5 34.5t-12 23.5 t-19.5 15.5t-35.5 8t-51.5 4t-75 0.5h-27q-12 0 -23.5 0.5t-19 1t-8.5 0.5q-17 0 -22.5 -6t-7.5 -26l-26 -213q-1 -7 -2 -10v-1q0 -7 3.5 -8.5t18.5 -1.5h136q35 0 54 14t27 46q3 12 11 12q9 0 9 -13q0 -10 -6 -46q-7 -40 -7 -46q0 -1 -2 -41q-1 -57 -15 -57q-7 0 -8 4.5 t-3 30.5q-3 54 -76 54h-117q-22 0 -27 -3t-7 -19l-25 -210q-1 -4 -1 -11q0 -24 15 -31.5t64 -7.5q116 0 181 21q25 7 49.5 24t35.5 33q12 18 20 18q9 0 9 -10q0 -17 -17 -47.5t-39 -52.5q-17 -17 -35.5 -22.5t-58.5 -5.5q-4 0 -15 0.5t-32.5 1.5t-37.5 2q-27 2 -118 2 q-72 0 -94 -3q-30 -3 -43 -3q-17 0 -17 10q0 7 17 12q27 8 34.5 20t12.5 51l17 139v6q0 7 -3 8.5t-14 1.5h-203q-20 0 -26.5 -3.5t-20.5 -21.5l-96 -117q-23 -29 -23 -48q0 -28 38 -34q23 -4 23 -14t-16 -10q-7 0 -13 1q-33 4 -64 4q-3 0 -67 -4zM495 557l-206 -243 q-10 -12 -10 -15q0 -5 13 -5h178q12 0 15 3t4 17l30 243q1 6 -1.5 11t-4.5 5q-5 0 -18 -16z" />
<glyph unicode="&#xc7;" horiz-adv-x="656" d="M316 -86l28 76q-85 4 -151 42q-64 38 -99.5 111t-35.5 167q0 161 93.5 264t238.5 103q52 0 110 -17.5t99 -45.5q8 -5 13 -5q2 0 13 9q3 4 9 4q10 0 10 -17v-46q0 -17 7 -73q1 -7 1 -19q0 -17 -10 -17q-11 0 -17 24q-19 66 -61 104q-80 70 -179 70q-111 0 -182 -88 t-71 -225q0 -138 69 -227t176 -89q72 0 137.5 42.5t84.5 102.5q10 30 21 30t11 -20q0 -14 -17 -67q0 -4 -3 -22q-2 -13 -12 -21.5t-48 -28.5q-87 -45 -187 -45l-21 -59q68 -8 68 -57q0 -29 -24 -48.5t-58 -19.5q-28 0 -55.5 18t-27.5 36q0 9 6 9q4 0 9 -4q31 -22 53 -22 q13 0 23.5 11.5t10.5 24.5q0 22 -32 35z" />
<glyph unicode="&#xc8;" horiz-adv-x="576" d="M288 769q-24 8 -33.5 17t-9.5 25q0 17 11 28.5t27 11.5q15 0 31 -15l76 -69q12 -11 12 -18q0 -9 -11 -9t-18 3zM180 89v-11q0 -24 15.5 -31.5t64.5 -7.5q114 0 180 21q26 8 50.5 25t34.5 33q12 18 20 18q9 0 9 -10q0 -17 -17 -48t-39 -53q-16 -17 -35 -22.5t-59 -5.5 q-26 0 -85 3q-47 3 -94 3q-50 0 -92 -3t-67 -3q-19 0 -19 10q0 7 17 12q27 8 34.5 20t12.5 51l58 475q2 22 2 29q0 44 -46 52q-28 5 -28 14q0 10 18 10q6 0 36 -2q52 -4 184 -4q119 0 184 5q16 2 40 2q13 0 13 -12l-1 -48l2 -74q0 -16 -11 -16q-12 0 -13 20q-4 54 -31 70 t-114 16h-68q-2 0 -9.5 0.5t-22 1t-29.5 0.5q-19 0 -25 -6t-8 -26l-26 -213q-1 -9 -1 -10q0 -7 3.5 -9t17.5 -2h137q35 0 53.5 14t27.5 46q3 12 11 12q9 0 9 -14q0 -8 -6 -46q-8 -42 -10 -86q-2 -36 -4.5 -46.5t-9.5 -10.5t-8.5 5t-2.5 30q-1 54 -76 54h-117q-22 0 -27 -3 t-7 -19z" />
<glyph unicode="&#xc9;" horiz-adv-x="576" d="M460 763l-91 -20q-15 -3 -19 -3q-11 0 -11 10q0 7 16 20l70 55q24 18 39 18q14 0 25.5 -12.5t11.5 -28.5q0 -30 -41 -39zM180 89v-11q0 -24 15.5 -31.5t64.5 -7.5q114 0 180 21q26 8 50.5 25t34.5 33q12 18 20 18q9 0 9 -10q0 -17 -17 -48t-39 -53q-16 -17 -35 -22.5 t-59 -5.5q-26 0 -85 3q-47 3 -94 3q-50 0 -92 -3t-67 -3q-19 0 -19 10q0 7 17 12q27 8 34.5 20t12.5 51l58 475q2 22 2 29q0 44 -46 52q-28 5 -28 14q0 10 18 10q6 0 36 -2q52 -4 184 -4q119 0 184 5q16 2 40 2q13 0 13 -12l-1 -48l2 -74q0 -16 -11 -16q-12 0 -13 20 q-4 54 -31 70t-114 16h-68q-2 0 -9.5 0.5t-22 1t-29.5 0.5q-19 0 -25 -6t-8 -26l-26 -213q-1 -9 -1 -10q0 -7 3.5 -9t17.5 -2h137q35 0 53.5 14t27.5 46q3 12 11 12q9 0 9 -14q0 -8 -6 -46q-8 -42 -10 -86q-2 -36 -4.5 -46.5t-9.5 -10.5t-8.5 5t-2.5 30q-1 54 -76 54h-117 q-22 0 -27 -3t-7 -19z" />
<glyph unicode="&#xca;" horiz-adv-x="576" d="M405 787l-121 -50q-6 -3 -12 -3q-8 0 -8 8q0 4 8 11l144 103l80 -106q4 -4 4 -9q0 -7 -7 -7q-3 0 -9 3zM180 89v-11q0 -24 15.5 -31.5t64.5 -7.5q114 0 180 21q26 8 50.5 25t34.5 33q12 18 20 18q9 0 9 -10q0 -17 -17 -48t-39 -53q-16 -17 -35 -22.5t-59 -5.5 q-26 0 -85 3q-47 3 -94 3q-50 0 -92 -3t-67 -3q-19 0 -19 10q0 7 17 12q27 8 34.5 20t12.5 51l58 475q2 22 2 29q0 44 -46 52q-28 5 -28 14q0 10 18 10q6 0 36 -2q52 -4 184 -4q119 0 184 5q16 2 40 2q13 0 13 -12l-1 -48l2 -74q0 -16 -11 -16q-12 0 -13 20q-4 54 -31 70 t-114 16h-68q-2 0 -9.5 0.5t-22 1t-29.5 0.5q-19 0 -25 -6t-8 -26l-26 -213q-1 -9 -1 -10q0 -7 3.5 -9t17.5 -2h137q35 0 53.5 14t27.5 46q3 12 11 12q9 0 9 -14q0 -8 -6 -46q-8 -42 -10 -86q-2 -36 -4.5 -46.5t-9.5 -10.5t-8.5 5t-2.5 30q-1 54 -76 54h-117q-22 0 -27 -3 t-7 -19z" />
<glyph unicode="&#xcb;" horiz-adv-x="576" d="M492 780l-14 -15q-8 -8 -14 -17q-7 -8 -11 -8q-6 0 -12 10q-13 27 -19 34q-5 8 -5 11q0 6 20 27l14 18q7 9 12 9t10 -9q10 -18 10 -20l12 -17q5 -6 5 -11t-8 -12zM317 820l12 -17q5 -6 5 -11t-8 -12q-16 -16 -28 -32q-5 -8 -11 -8t-12 10q-11 23 -19 34q-5 8 -5 11 q0 6 20 27l14 18q7 9 12 9t10 -9q10 -18 10 -20zM180 89v-11q0 -24 15.5 -31.5t64.5 -7.5q114 0 180 21q26 8 50.5 25t34.5 33q12 18 20 18q9 0 9 -10q0 -17 -17 -48t-39 -53q-16 -17 -35 -22.5t-59 -5.5q-26 0 -85 3q-47 3 -94 3q-50 0 -92 -3t-67 -3q-19 0 -19 10 q0 7 17 12q27 8 34.5 20t12.5 51l58 475q2 22 2 29q0 44 -46 52q-28 5 -28 14q0 10 18 10q6 0 36 -2q52 -4 184 -4q119 0 184 5q16 2 40 2q13 0 13 -12l-1 -48l2 -74q0 -16 -11 -16q-12 0 -13 20q-4 54 -31 70t-114 16h-68q-2 0 -9.5 0.5t-22 1t-29.5 0.5q-19 0 -25 -6 t-8 -26l-26 -213q-1 -9 -1 -10q0 -7 3.5 -9t17.5 -2h137q35 0 53.5 14t27.5 46q3 12 11 12q9 0 9 -14q0 -8 -6 -46q-8 -42 -10 -86q-2 -36 -4.5 -46.5t-9.5 -10.5t-8.5 5t-2.5 30q-1 54 -76 54h-117q-22 0 -27 -3t-7 -19z" />
<glyph unicode="&#xcc;" horiz-adv-x="317" d="M241 743l-85 26q-24 8 -33.5 17t-9.5 25q0 17 11 28.5t27 11.5q15 0 31 -15l76 -69q12 -11 12 -18q0 -9 -11 -9t-18 3zM241 577l-58 -475q-2 -20 -2 -29q0 -44 45 -52q28 -6 28 -14q0 -10 -15 -10q-6 0 -26 2q-25 3 -59 3t-81 -4q-3 -1 -8 -1q-17 0 -17 9q0 8 17 13 q27 8 34.5 20t12.5 51l58 475q2 22 2 30q0 43 -46 51q-28 6 -28 14q0 10 17 10q3 0 24 -2q21 -3 59 -3q41 0 59 2q7 0 14 1t11 1.5t5 0.5q18 0 18 -9q0 -5 -3 -7t-15 -6q-27 -8 -34 -19.5t-12 -51.5z" />
<glyph unicode="&#xcd;" horiz-adv-x="317" d="M318 763l-91 -20q-15 -3 -19 -3q-11 0 -11 10q0 7 16 20l70 55q24 18 39 18q14 0 25.5 -12.5t11.5 -28.5q0 -30 -41 -39zM241 577l-58 -475q-2 -20 -2 -29q0 -44 45 -52q28 -6 28 -14q0 -10 -15 -10q-6 0 -26 2q-25 3 -59 3t-81 -4q-3 -1 -8 -1q-17 0 -17 9q0 8 17 13 q27 8 34.5 20t12.5 51l58 475q2 22 2 30q0 43 -46 51q-28 6 -28 14q0 10 17 10q3 0 24 -2q21 -3 59 -3q41 0 59 2q7 0 14 1t11 1.5t5 0.5q18 0 18 -9q0 -5 -3 -7t-15 -6q-27 -8 -34 -19.5t-12 -51.5z" />
<glyph unicode="&#xce;" horiz-adv-x="317" d="M236 787l-121 -50q-6 -3 -12 -3q-8 0 -8 8q0 4 8 11l144 103l80 -106q4 -4 4 -9q0 -7 -7 -7q-3 0 -9 3zM241 577l-58 -475q-2 -20 -2 -29q0 -44 45 -52q28 -6 28 -14q0 -10 -15 -10q-6 0 -26 2q-25 3 -59 3t-81 -4q-3 -1 -8 -1q-17 0 -17 9q0 8 17 13q27 8 34.5 20 t12.5 51l58 475q2 22 2 30q0 43 -46 51q-28 6 -28 14q0 10 17 10q3 0 24 -2q21 -3 59 -3q41 0 59 2q7 0 14 1t11 1.5t5 0.5q18 0 18 -9q0 -5 -3 -7t-15 -6q-27 -8 -34 -19.5t-12 -51.5z" />
<glyph unicode="&#xcf;" horiz-adv-x="317" d="M329 780l-14 -15q-8 -8 -14 -17q-7 -8 -11 -8q-6 0 -12 10q-13 27 -19 34q-5 8 -5 11q0 6 20 27l14 18q8 9 12 9q6 0 10 -9q10 -18 10 -20l12 -17q5 -6 5 -11t-8 -12zM188 820l12 -17q5 -6 5 -11t-8 -12q-16 -16 -28 -32q-5 -8 -11 -8t-12 10q-11 23 -19 34q-5 8 -5 11 q0 6 20 27l14 18q8 9 12 9q6 0 10 -9q10 -18 10 -20zM241 577l-58 -475q-2 -20 -2 -29q0 -44 45 -52q28 -6 28 -14q0 -10 -15 -10q-6 0 -26 2q-25 3 -59 3t-81 -4q-3 -1 -8 -1q-17 0 -17 9q0 8 17 13q27 8 34.5 20t12.5 51l58 475q2 22 2 30q0 43 -46 51q-28 6 -28 14 q0 10 17 10q3 0 24 -2q21 -3 59 -3q41 0 59 2q7 0 14 1t11 1.5t5 0.5q18 0 18 -9q0 -5 -3 -7t-15 -6q-27 -8 -34 -19.5t-12 -51.5z" />
<glyph unicode="&#xd0;" horiz-adv-x="674" d="M135 362l25 203q2 22 2 30q0 44 -46 52q-28 5 -28 14q0 10 15 10q9 0 39 -5q19 -3 41 -3q18 0 70 3q51 4 105 4q135 0 212 -61q94 -73 94 -203q0 -111 -57 -211t-150 -153q-80 -45 -214 -45q-49 0 -85 3q-30 3 -43 3q-11 0 -29 -3q-21 -3 -31 -3q-17 0 -17 9q0 5 3 7.5 t14 5.5q27 8 34.5 20t12.5 51l29 242h-64q-14 0 -18.5 2.5t-4.5 9.5q0 10 5.5 14t21.5 4h64zM201 332l-30 -245q-2 -22 -2 -27q0 -21 13.5 -28t54.5 -7q78 0 126.5 14.5t91.5 49.5q57 47 94.5 138t37.5 182q0 62 -29 115t-79 83q-57 33 -152 33q-59 0 -75 -10.5t-21 -54.5 l-26 -213h176q14 0 18.5 -2.5t4.5 -9.5q0 -10 -5.5 -14t-21.5 -4h-176z" />
<glyph unicode="&#xd1;" horiz-adv-x="711" d="M343 745q-8 0 -8 8q0 11 21 35q33 39 66 39q16 0 41 -14q22 -11 41 -11q21 0 42 18q14 11 17 11q7 0 7 -8q0 -15 -26 -44q-28 -34 -61 -34q-18 0 -47 16q-24 13 -41 13q-20 0 -38 -20q-9 -9 -14 -9zM203 488l-45 -369q-4 -36 -4 -44q0 -24 11.5 -36.5t38.5 -16.5 q24 -3 24 -12q0 -13 -22 -13q-6 0 -13 1q-36 4 -66 4q-31 0 -75 -4q-3 -1 -7 -1q-12 0 -12 9q0 8 21 16q34 13 42.5 31t20.5 100l45 308q6 46 6 78q0 41 -26.5 72t-62.5 31q-4 0 -14 -2t-12 -2q-9 0 -9 8t16 16t31 7q45 -3 78 -3q21 0 30 -14l112 -158q88 -129 118 -178 l108 -172q3 -4 5 -7.5t3.5 -5t2 -2.5t2.5 -1l1 -1h2q4 0 5.5 6.5t8.5 47.5q24 147 32 218q18 141 18 189q0 27 -11.5 41t-38.5 18q-26 4 -26 13q0 10 19 10q6 0 12 -1q28 -4 61 -4q32 0 48 2q21 3 27 3q18 0 18 -12q0 -7 -18 -10q-31 -5 -40.5 -27t-18.5 -110 q-23 -226 -63 -444q-10 -53 -13 -61.5t-14 -8.5q-8 0 -15 11l-112 177l-60 92q-59 91 -70 106l-81 117q-5 9 -9 9q-7 0 -9 -21z" />
<glyph unicode="&#xd2;" horiz-adv-x="738" d="M359 769q-24 8 -33.5 17t-9.5 25q0 17 11 28.5t27 11.5q15 0 31 -15l76 -69q12 -11 12 -18q0 -9 -11 -9q-10 0 -18 3zM56 299q0 158 102 268t247 110q135 0 223 -92t88 -232q0 -134 -79 -240q-91 -123 -265 -123q-145 0 -230.5 83.5t-85.5 225.5zM133 316 q0 -130 69.5 -213.5t176.5 -83.5q64 0 116.5 32.5t85.5 92.5q54 97 54 219q0 142 -74 214q-34 34 -80 53.5t-92 19.5q-109 0 -182.5 -95.5t-73.5 -238.5z" />
<glyph unicode="&#xd3;" horiz-adv-x="738" d="M522 763l-91 -20q-15 -3 -19 -3q-11 0 -11 10q0 7 16 20l70 55q24 18 39 18q14 0 25.5 -12.5t11.5 -28.5q0 -30 -41 -39zM56 299q0 158 102 268t247 110q135 0 223 -92t88 -232q0 -134 -79 -240q-91 -123 -265 -123q-145 0 -230.5 83.5t-85.5 225.5zM133 316 q0 -130 69.5 -213.5t176.5 -83.5q64 0 116.5 32.5t85.5 92.5q54 97 54 219q0 142 -74 214q-34 34 -80 53.5t-92 19.5q-109 0 -182.5 -95.5t-73.5 -238.5z" />
<glyph unicode="&#xd4;" horiz-adv-x="738" d="M460 787l-121 -50q-6 -3 -12 -3q-8 0 -8 8q0 4 8 11l144 103l80 -106q4 -4 4 -9q0 -7 -7 -7q-3 0 -9 3zM56 299q0 158 102 268t247 110q135 0 223 -92t88 -232q0 -134 -79 -240q-91 -123 -265 -123q-145 0 -230.5 83.5t-85.5 225.5zM133 316q0 -130 69.5 -213.5 t176.5 -83.5q64 0 116.5 32.5t85.5 92.5q54 97 54 219q0 142 -74 214q-34 34 -80 53.5t-92 19.5q-109 0 -182.5 -95.5t-73.5 -238.5z" />
<glyph unicode="&#xd5;" horiz-adv-x="738" d="M336 745q-8 0 -8 8q0 11 21 35q33 39 66 39q16 0 41 -14q22 -11 41 -11q21 0 42 18q14 11 17 11q7 0 7 -8q0 -15 -26 -44q-28 -34 -61 -34q-18 0 -47 16q-24 13 -41 13q-20 0 -38 -20q-9 -9 -14 -9zM56 299q0 158 102 268t247 110q135 0 223 -92t88 -232q0 -134 -79 -240 q-91 -123 -265 -123q-145 0 -230.5 83.5t-85.5 225.5zM133 316q0 -130 69.5 -213.5t176.5 -83.5q64 0 116.5 32.5t85.5 92.5q54 97 54 219q0 142 -74 214q-34 34 -80 53.5t-92 19.5q-109 0 -182.5 -95.5t-73.5 -238.5z" />
<glyph unicode="&#xd6;" horiz-adv-x="738" d="M554 820l12 -17q5 -8 5 -11q0 -4 -8 -12q-16 -16 -28 -32q-7 -8 -11 -8q-6 0 -12 10q-13 27 -19 34q-5 8 -5 11q0 6 20 27l14 18q8 9 12 9q6 0 10 -9zM388 820l12 -17q5 -8 5 -11q0 -4 -8 -12q-15 -15 -28 -32q-7 -8 -11 -8q-6 0 -12 10q-9 21 -19 34q-5 8 -5 11 q0 6 20 27l14 18q8 9 12 9q6 0 10 -9zM56 299q0 158 102 268t247 110q135 0 223 -92t88 -232q0 -134 -79 -240q-91 -123 -265 -123q-145 0 -230.5 83.5t-85.5 225.5zM133 316q0 -130 69.5 -213.5t176.5 -83.5q64 0 116.5 32.5t85.5 92.5q54 97 54 219q0 142 -74 214 q-34 34 -80 53.5t-92 19.5q-109 0 -182.5 -95.5t-73.5 -238.5z" />
<glyph unicode="&#xd7;" d="M159 259l71 68q-70 71 -99 96q-23 19 -23 30q0 25 5 33q7 10 12 10t22.5 -17t117.5 -118q133 134 140 134q6 0 14 -14t8 -24q0 -8 -7.5 -16t-53.5 -50q-44 -42 -66 -64q23 -23 42 -40t30 -28q7 -7 16 -15.5t14 -14t6 -5.5q18 -15 18 -24q0 -4 -7 -16q-4 -6 -8 -19 q-3 -7 -7 -7q-9 0 -32 27q-18 20 -107 107q-100 -96 -107 -108q-20 -25 -29 -25q-7 0 -13 14q-12 22 -12 27q0 7 18 24q8 6 37 35z" />
<glyph unicode="&#xd8;" horiz-adv-x="738" d="M154 61l-55 -57q-12 -12 -25 -12q-6 0 -12 6t-6 11q0 9 15 24l54 57q-69 88 -69 210q0 157 102 267t247 110q119 0 209 -79l59 62q14 14 23 14q7 0 13.5 -5.5t6.5 -12.5q0 -6 -16 -23l-59 -62q75 -89 75 -215q0 -136 -79 -243q-91 -123 -265 -123q-131 0 -218 71z M175 142l402 418q-34 41 -85 65.5t-103 24.5q-109 0 -182.5 -95.5t-73.5 -237.5q0 -101 42 -175zM198 108q72 -89 182 -89q111 0 183 97.5t72 248.5q0 95 -36 162z" />
<glyph unicode="&#xd9;" horiz-adv-x="722" d="M361 769q-24 8 -33.5 17t-9.5 25q0 17 11 28.5t27 11.5q15 0 31 -15l76 -69q12 -11 12 -18q0 -9 -11 -9q-10 0 -18 3zM682 577l-42 -283q-21 -144 -80 -214q-76 -90 -229 -90q-74 0 -127.5 22.5t-77.5 63.5q-23 39 -23 113q0 27 3 57l29 331q3 29 3 32q0 18 -8 26t-33 15 q-8 3 -8 8q0 12 20 12q6 0 13 -1q27 -4 57 -4q29 0 68 4q3 1 7 1q17 0 17 -10q0 -7 -17 -12q-27 -8 -34.5 -19.5t-12.5 -51.5l-14 -116q-21 -174 -21 -268q0 -81 45 -125t128 -44t147 43t85 113q32 108 55 309l9 76q0 5 1.5 16t1.5 14q0 43 -46 51q-28 6 -28 14q0 10 16 10 q5 0 11 -1q35 -4 59 -4q29 0 68 4q3 1 7 1q17 0 17 -9q0 -8 -18 -13q-27 -8 -34.5 -19.5t-13.5 -51.5z" />
<glyph unicode="&#xda;" horiz-adv-x="722" d="M530 763l-91 -20q-15 -3 -19 -3q-11 0 -11 10q0 7 16 20l70 55q24 18 39 18q14 0 25.5 -12.5t11.5 -28.5q0 -30 -41 -39zM682 577l-42 -283q-21 -144 -80 -214q-76 -90 -229 -90q-74 0 -127.5 22.5t-77.5 63.5q-23 39 -23 113q0 27 3 57l29 331q3 29 3 32q0 18 -8 26 t-33 15q-8 3 -8 8q0 12 20 12q6 0 13 -1q27 -4 57 -4q29 0 68 4q3 1 7 1q17 0 17 -10q0 -7 -17 -12q-27 -8 -34.5 -19.5t-12.5 -51.5l-14 -116q-21 -174 -21 -268q0 -81 45 -125t128 -44t147 43t85 113q32 108 55 309l9 76q0 5 1.5 16t1.5 14q0 43 -46 51q-28 6 -28 14 q0 10 16 10q5 0 11 -1q35 -4 59 -4q29 0 68 4q3 1 7 1q17 0 17 -9q0 -8 -18 -13q-27 -8 -34.5 -19.5t-13.5 -51.5z" />
<glyph unicode="&#xdb;" horiz-adv-x="722" d="M465 787l-121 -50q-6 -3 -12 -3q-8 0 -8 8q0 4 8 11l144 103l80 -106q4 -4 4 -9q0 -7 -7 -7q-3 0 -9 3zM682 577l-42 -283q-21 -144 -80 -214q-76 -90 -229 -90q-74 0 -127.5 22.5t-77.5 63.5q-23 39 -23 113q0 27 3 57l29 331q3 29 3 32q0 18 -8 26t-33 15q-8 3 -8 8 q0 12 20 12q6 0 13 -1q27 -4 57 -4q29 0 68 4q3 1 7 1q17 0 17 -10q0 -7 -17 -12q-27 -8 -34.5 -19.5t-12.5 -51.5l-14 -116q-21 -174 -21 -268q0 -81 45 -125t128 -44t147 43t85 113q32 108 55 309l9 76q0 5 1.5 16t1.5 14q0 43 -46 51q-28 6 -28 14q0 10 16 10q5 0 11 -1 q35 -4 59 -4q29 0 68 4q3 1 7 1q17 0 17 -9q0 -8 -18 -13q-27 -8 -34.5 -19.5t-13.5 -51.5z" />
<glyph unicode="&#xdc;" horiz-adv-x="722" d="M552 820l12 -17q5 -8 5 -11q0 -4 -8 -12q-16 -16 -28 -32q-7 -8 -11 -8q-6 0 -12 10q-13 27 -19 34q-5 8 -5 11q0 6 20 27l14 18q8 9 12 9q6 0 10 -9zM386 820l12 -17q5 -8 5 -11q0 -4 -8 -12q-15 -15 -28 -32q-7 -8 -11 -8q-6 0 -12 10q-9 21 -19 34q-5 8 -5 11 q0 6 20 27l14 18q8 9 12 9q6 0 10 -9zM682 577l-42 -283q-21 -144 -80 -214q-76 -90 -229 -90q-74 0 -127.5 22.5t-77.5 63.5q-23 39 -23 113q0 27 3 57l29 331q3 29 3 32q0 18 -8 26t-33 15q-8 3 -8 8q0 12 20 12q6 0 13 -1q27 -4 57 -4q29 0 68 4q3 1 7 1q17 0 17 -10 q0 -7 -17 -12q-27 -8 -34.5 -19.5t-12.5 -51.5l-14 -116q-21 -174 -21 -268q0 -81 45 -125t128 -44t147 43t85 113q32 108 55 309l9 76q0 5 1.5 16t1.5 14q0 43 -46 51q-28 6 -28 14q0 10 16 10q5 0 11 -1q35 -4 59 -4q29 0 68 4q3 1 7 1q17 0 17 -9q0 -8 -18 -13 q-27 -8 -34.5 -19.5t-13.5 -51.5z" />
<glyph unicode="&#xdd;" horiz-adv-x="562" d="M464 763l-91 -20q-15 -3 -19 -3q-11 0 -11 10q0 7 16 20l70 55q24 18 39 18q14 0 25.5 -12.5t11.5 -28.5q0 -30 -41 -39zM334 261l-19 -159q-2 -20 -2 -29q0 -44 45 -52q28 -5 28 -14q0 -10 -15 -10q-6 0 -26 2q-24 3 -58 3t-79 -4q-3 -1 -8 -1q-17 0 -17 10q0 7 17 12 q27 8 34 19.5t12 51.5l22 182q2 14 2 20q0 12 -17 46l-114 237q-21 44 -36.5 58t-43.5 16q-21 1 -21 11t16 10q5 0 27 -2q33 -3 63 -3q42 0 63 2q26 3 33 3q16 0 16 -10q0 -8 -18 -11q-31 -3 -31 -29q0 -21 16 -54l92 -202q7 -16 11 -16q5 0 34 41q7 9 104 160q30 45 30 68 q0 26 -43 29q-23 1 -23 13q0 11 17 11q5 0 23 -2q24 -3 55 -3q34 0 52 2q18 3 27 3q12 0 12 -10q0 -9 -17 -13q-25 -6 -39 -21t-54 -79q-5 -8 -19.5 -29.5t-22.5 -33.5q-36 -52 -48 -71q-32 -50 -46 -67q-19 -24 -24.5 -37.5t-9.5 -47.5z" />
<glyph unicode="&#xde;" horiz-adv-x="484" d="M219 457l-43 -355q-2 -22 -2 -29q0 -44 52 -52q31 -5 31 -14q0 -10 -26 -10q-7 0 -14 1q-40 4 -71 4q-32 0 -79 -4q-4 -1 -9 -1q-17 0 -17 9q0 8 17 13q27 8 34.5 20t12.5 51l58 475q2 22 2 30q0 43 -46 51q-28 6 -28 14q0 10 15 10q10 0 38 -3q18 -2 43 -2q44 0 63 2 q21 3 30 3q18 0 18 -9q0 -5 -3 -7t-15 -6q-27 -8 -34 -19.5t-12 -51.5l-2 -15q55 6 90 6q81 0 127.5 -42t46.5 -115q0 -74 -46 -131.5t-115 -70.5q-19 -4 -56 -4q-29 0 -48.5 4.5t-18.5 11.5q0 6 13 6q4 0 7 -1l23 -1q76 -3 122 53q44 55 44 120q0 77 -70 117q-40 23 -80 23 q-27 0 -36.5 -14.5t-15.5 -66.5z" />
<glyph unicode="&#xdf;" horiz-adv-x="492" d="M183 409l-37 -301q-15 -119 -20 -146.5t-17 -51.5q-16 -32 -46 -54.5t-58 -22.5q-27 0 -27 21q0 13 12 51q5 13 13 13q6 0 8 -11q7 -34 27 -34q16 0 24 37.5t25 178.5l33 271h-71q-16 0 -16 14q0 19 21 19h70l1 7q21 141 77 216q50 64 138 64q57 0 90.5 -24t33.5 -65 q0 -61 -137 -156q61 -9 86 -26t40.5 -49t15.5 -67q0 -52 -27.5 -109t-75.5 -104q-89 -87 -160 -87q-19 0 -27 7t-11 27l-2 14l-6 25q-1 3 -1 8q0 16 12 16q5 0 33 -21q21 -16 48 -16q41 0 86 51q63 72 63 152q0 58 -33 95t-84 37q-14 0 -32 -6q-14 -4 -17 -4q-11 0 -11 12 t22 21q20 8 53.5 33.5t57.5 50.5q40 41 40 79q0 32 -24 54.5t-58 22.5q-55 0 -85.5 -55.5t-46.5 -186.5z" />
<glyph unicode="&#xe0;" horiz-adv-x="452" d="M280 464l-69 44q-29 18 -29 39q0 15 10.5 26t24.5 11q19 0 32 -21l51 -82q7 -10 7 -16q0 -10 -8 -10q-6 0 -19 9zM24 90q0 109 75 207.5t158 98.5q27 0 55 -9q11 -4 18 -4q15 0 36 34q11 16 17 16q5 0 5 -8q0 -9 -7 -37q-42 -179 -42 -276q0 -53 18 -53q11 0 26 15.5 t24 35.5q7 16 14 16q9 0 9 -10q0 -32 -39 -75t-67 -43q-24 0 -35 46q-4 17 -10 60q-85 -111 -172 -111q-37 0 -60 27t-23 70zM86 113q0 -33 17 -52t47 -19q51 0 100 62q30 40 35 76q8 59 27 139q4 20 4 25q0 12 -18 22t-39 10q-60 0 -110 -73q-27 -38 -45 -93t-18 -97z" />
<glyph unicode="&#xe1;" horiz-adv-x="452" d="M384 512l-81 -48q-13 -9 -20 -9q-10 0 -10 10q0 8 11 20l52 70q22 29 40 29q15 0 25.5 -9.5t10.5 -23.5q0 -23 -28 -39zM24 90q0 109 75 207.5t158 98.5q27 0 55 -9q11 -4 18 -4q15 0 36 34q11 16 17 16q5 0 5 -8q0 -9 -7 -37q-42 -179 -42 -276q0 -53 18 -53 q11 0 26 15.5t24 35.5q7 16 14 16q9 0 9 -10q0 -32 -39 -75t-67 -43q-24 0 -35 46q-4 17 -10 60q-85 -111 -172 -111q-37 0 -60 27t-23 70zM86 113q0 -33 17 -52t47 -19q51 0 100 62q30 40 35 76q8 59 27 139q4 20 4 25q0 12 -18 22t-39 10q-60 0 -110 -73q-27 -38 -45 -93 t-18 -97z" />
<glyph unicode="&#xe2;" horiz-adv-x="452" d="M304 523l-106 -66q-3 -3 -10 -3q-10 0 -10 8q0 3 8 11l130 123l64 -126q4 -7 4 -9q0 -7 -8 -7q-5 0 -8 3zM24 90q0 109 75 207.5t158 98.5q27 0 55 -9q11 -4 18 -4q15 0 36 34q11 16 17 16q5 0 5 -8q0 -9 -7 -37q-42 -179 -42 -276q0 -53 18 -53q11 0 26 15.5t24 35.5 q7 16 14 16q9 0 9 -10q0 -32 -39 -75t-67 -43q-24 0 -35 46q-4 17 -10 60q-85 -111 -172 -111q-37 0 -60 27t-23 70zM86 113q0 -33 17 -52t47 -19q51 0 100 62q30 40 35 76q8 59 27 139q4 20 4 25q0 12 -18 22t-39 10q-60 0 -110 -73q-27 -38 -45 -93t-18 -97z" />
<glyph unicode="&#xe3;" horiz-adv-x="452" d="M197 468q-8 0 -8 8q0 12 19 35q32 39 61 39q13 0 37 -15q20 -13 37 -13q21 0 39 20q13 13 16 13q6 0 6 -8q0 -14 -24 -45q-26 -34 -55 -34q-18 0 -43 18q-20 14 -37 14q-19 0 -36 -22q-7 -10 -12 -10zM24 90q0 109 75 207.5t158 98.5q27 0 55 -9q11 -4 18 -4q15 0 36 34 q11 16 17 16q5 0 5 -8q0 -9 -7 -37q-42 -179 -42 -276q0 -53 18 -53q11 0 26 15.5t24 35.5q7 16 14 16q9 0 9 -10q0 -32 -39 -75t-67 -43q-24 0 -35 46q-4 17 -10 60q-85 -111 -172 -111q-37 0 -60 27t-23 70zM86 113q0 -33 17 -52t47 -19q51 0 100 62q30 40 35 76 q8 59 27 139q4 20 4 25q0 12 -18 22t-39 10q-60 0 -110 -73q-27 -38 -45 -93t-18 -97z" />
<glyph unicode="&#xe4;" horiz-adv-x="452" d="M392 541l12 -16q4 -7 4 -10q0 -4 -7 -11q-16 -17 -27 -30q-6 -7 -10 -7q-6 0 -10 9q-6 12 -18 32q-5 6 -5 10q0 5 18 25q4 3 14 16q6 8 11 8q4 0 9 -9zM248 490l-13 -16q-6 -7 -10 -7q-5 0 -10 9q-12 24 -18 32q-5 6 -5 10q0 5 18 25q2 0 14 16q6 8 11 8t9 -9l9 -17 l12 -16q4 -7 4 -10q0 -4 -7 -11zM24 90q0 109 75 207.5t158 98.5q27 0 55 -9q11 -4 18 -4q15 0 36 34q11 16 17 16q5 0 5 -8q0 -9 -7 -37q-42 -179 -42 -276q0 -53 18 -53q11 0 26 15.5t24 35.5q7 16 14 16q9 0 9 -10q0 -32 -39 -75t-67 -43q-24 0 -35 46q-4 17 -10 60 q-85 -111 -172 -111q-37 0 -60 27t-23 70zM86 113q0 -33 17 -52t47 -19q51 0 100 62q30 40 35 76q8 59 27 139q4 20 4 25q0 12 -18 22t-39 10q-60 0 -110 -73q-27 -38 -45 -93t-18 -97z" />
<glyph unicode="&#xe5;" horiz-adv-x="452" d="M291 450q-37 0 -62 20.5t-25 50.5q0 29 25.5 49t61.5 20q37 0 62 -20.5t25 -49.5t-25 -49.5t-62 -20.5zM291 474q19 0 32.5 13t13.5 33t-13.5 33t-32.5 13t-32.5 -13t-13.5 -33t13 -33t33 -13zM24 90q0 109 75 207.5t158 98.5q27 0 55 -9q11 -4 18 -4q15 0 36 34 q11 16 17 16q5 0 5 -8q0 -9 -7 -37q-42 -179 -42 -276q0 -53 18 -53q11 0 26 15.5t24 35.5q7 16 14 16q9 0 9 -10q0 -32 -39 -75t-67 -43q-24 0 -35 46q-4 17 -10 60q-85 -111 -172 -111q-37 0 -60 27t-23 70zM86 113q0 -33 17 -52t47 -19q51 0 100 62q30 40 35 76 q8 59 27 139q4 20 4 25q0 12 -18 22t-39 10q-60 0 -110 -73q-27 -38 -45 -93t-18 -97z" />
<glyph unicode="&#xe6;" horiz-adv-x="598" d="M12 71q0 51 48.5 81t169.5 55q39 8 46 16q4 6 13 43.5t9 49.5q0 24 -14.5 41.5t-34.5 17.5q-22 0 -49 -18q-12 -7 -25 -32q-11 -23 -19 -30.5t-21 -7.5t-21.5 7.5t-8.5 18.5q0 28 47 55.5t96 27.5q59 0 98 -55q66 59 132 59q40 0 66 -20.5t26 -51.5q0 -68 -118 -101 q-38 -10 -116 -21q-5 -26 -5 -42q0 -51 32.5 -86.5t79.5 -35.5q60 0 106 43q3 3 8 3q8 0 8 -9q0 -21 -45 -52q-52 -34 -115 -34q-51 0 -81.5 24t-49.5 77q-36 -47 -61 -66q-47 -34 -108 -34q-43 0 -68 20.5t-25 56.5zM340 225q46 8 62 14q46 14 75 41t29 55q0 17 -11.5 27.5 t-31.5 10.5q-41 0 -81 -51q-25 -31 -42 -97zM272 196l-66 -16q-60 -14 -93 -39.5t-33 -57.5q0 -22 17.5 -37.5t42.5 -15.5t49.5 14.5t40.5 37.5q22 30 38 97z" />
<glyph unicode="&#xe7;" horiz-adv-x="346" d="M137 -81l20 74q-60 0 -93.5 39.5t-33.5 109.5q0 101 63 179.5t143 78.5q39 0 68.5 -18t29.5 -41q0 -13 -9 -23t-21 -10q-10 0 -18 9l-29 30q-22 24 -50 24q-50 0 -84.5 -55t-34.5 -137q0 -65 28.5 -101t80.5 -36q30 0 54 10.5t55 38.5q2 4 8 4t6 -6q0 -9 -14.5 -27 t-32.5 -31q-43 -31 -99 -37l-16 -60q30 -5 47.5 -20.5t17.5 -38.5q0 -24 -19 -40.5t-47 -16.5q-35 0 -63 26q-20 17 -20 25q0 5 5 5q3 0 7 -4q27 -23 54 -23q14 0 24 10.5t10 23.5q0 24 -37 38z" />
<glyph unicode="&#xe8;" horiz-adv-x="349" d="M234 464l-69 44q-29 18 -29 39q0 15 10.5 26t24.5 11q19 0 32 -21l51 -82q7 -10 7 -16q0 -10 -8 -10q-6 0 -19 9zM27 132q0 99 65.5 183.5t142.5 84.5q37 0 60.5 -20t23.5 -52q0 -45 -47.5 -82t-118.5 -47q-38 -5 -68 -5q-2 -24 -2 -31q0 -53 32.5 -87.5t81.5 -34.5 q60 0 97 37q11 11 14 11q7 0 7 -9q0 -19 -42 -49q-53 -38 -114 -38q-62 0 -97 37t-35 102zM87 211q19 0 43 3q54 7 93 40.5t39 73.5q0 46 -46 46q-45 0 -87 -57q-29 -39 -42 -106z" />
<glyph unicode="&#xe9;" horiz-adv-x="349" d="M335 512l-81 -48q-13 -9 -20 -9q-10 0 -10 10q0 8 11 20l52 70q22 29 40 29q15 0 25.5 -9.5t10.5 -23.5q0 -23 -28 -39zM27 132q0 99 65.5 183.5t142.5 84.5q37 0 60.5 -20t23.5 -52q0 -45 -47.5 -82t-118.5 -47q-38 -5 -68 -5q-2 -24 -2 -31q0 -53 32.5 -87.5 t81.5 -34.5q60 0 97 37q11 11 14 11q7 0 7 -9q0 -19 -42 -49q-53 -38 -114 -38q-62 0 -97 37t-35 102zM87 211q19 0 43 3q54 7 93 40.5t39 73.5q0 46 -46 46q-45 0 -87 -57q-29 -39 -42 -106z" />
<glyph unicode="&#xea;" horiz-adv-x="349" d="M274 523l-106 -66q-3 -3 -10 -3q-10 0 -10 8q0 3 8 11l130 123l64 -126q4 -7 4 -9q0 -7 -8 -7q-5 0 -8 3zM27 132q0 99 65.5 183.5t142.5 84.5q37 0 60.5 -20t23.5 -52q0 -45 -47.5 -82t-118.5 -47q-38 -5 -68 -5q-2 -24 -2 -31q0 -53 32.5 -87.5t81.5 -34.5q60 0 97 37 q11 11 14 11q7 0 7 -9q0 -19 -42 -49q-53 -38 -114 -38q-62 0 -97 37t-35 102zM87 211q19 0 43 3q54 7 93 40.5t39 73.5q0 46 -46 46q-45 0 -87 -57q-29 -39 -42 -106z" />
<glyph unicode="&#xeb;" horiz-adv-x="348" d="M340 541l12 -16q4 -7 4 -10q0 -4 -7 -11q-16 -17 -27 -30q-6 -7 -10 -7q-6 0 -10 9q-6 12 -18 32q-5 6 -5 10q0 5 18 25q4 3 14 16q6 8 11 8q4 0 9 -9zM196 490l-13 -16q-6 -7 -10 -7q-5 0 -10 9q-12 24 -18 32q-5 6 -5 10q0 5 18 25q2 0 14 16q6 8 11 8t9 -9l9 -17 l12 -16q4 -7 4 -10q0 -4 -7 -11zM27 132q0 99 65.5 183.5t142.5 84.5q37 0 60.5 -20t23.5 -52q0 -45 -47.5 -82t-118.5 -47q-38 -5 -68 -5q-2 -24 -2 -31q0 -53 32.5 -87.5t81.5 -34.5q60 0 97 37q11 11 14 11q7 0 7 -9q0 -19 -42 -49q-53 -38 -114 -38q-62 0 -97 37 t-35 102zM87 211q19 0 43 3q54 7 93 40.5t39 73.5q0 46 -46 46q-45 0 -87 -57q-29 -39 -42 -106z" />
<glyph unicode="&#xec;" horiz-adv-x="245" d="M105 563l51 -82q7 -10 7 -16q0 -10 -8 -10q-6 0 -19 9l-69 44q-29 18 -29 39q0 15 10.5 26t24.5 11q19 0 32 -21zM176 380l-28 -135q-20 -100 -20 -153q0 -30 16 -30q22 0 43 41q5 12 11 12q8 0 8 -9q0 -31 -36.5 -70t-65.5 -39q-15 0 -24 22t-9 59t15 122l21 122 q2 14 2 23q0 12 -6 16t-23 4h-26q-21 0 -21 8t8.5 10t58.5 6q39 2 41 4q15 3 25 3t10 -11v-5z" />
<glyph unicode="&#xed;" horiz-adv-x="245" d="M240 512l-81 -48q-13 -9 -20 -9q-10 0 -10 10q0 8 11 20l52 70q22 29 40 29q15 0 25.5 -9.5t10.5 -23.5q0 -23 -28 -39zM176 380l-28 -135q-20 -100 -20 -153q0 -30 16 -30q22 0 43 41q5 12 11 12q8 0 8 -9q0 -31 -36.5 -70t-65.5 -39q-15 0 -24 22t-9 59t15 122l21 122 q2 14 2 23q0 12 -6 16t-23 4h-26q-21 0 -21 8t8.5 10t58.5 6q39 2 41 4q15 3 25 3t10 -11v-5z" />
<glyph unicode="&#xee;" horiz-adv-x="245" d="M169 523l-106 -66q-3 -3 -10 -3q-10 0 -10 8q0 3 8 11l130 123l64 -126q4 -7 4 -9q0 -7 -8 -7q-5 0 -8 3zM176 380l-28 -135q-20 -100 -20 -153q0 -30 16 -30q22 0 43 41q5 12 11 12q8 0 8 -9q0 -31 -36.5 -70t-65.5 -39q-15 0 -24 22t-9 59t15 122l21 122q2 14 2 23 q0 12 -6 16t-23 4h-26q-21 0 -21 8t8.5 10t58.5 6q39 2 41 4q15 3 25 3t10 -11v-5z" />
<glyph unicode="&#xef;" horiz-adv-x="245" d="M235 541l12 -16q4 -7 4 -10q0 -4 -7 -11q-16 -17 -27 -30q-6 -7 -10 -7q-5 0 -10 9q-6 12 -18 32q-5 6 -5 10q0 5 18 25q4 3 14 16q6 8 11 8t9 -9zM111 490l-13 -16q-6 -7 -10 -7q-6 0 -10 9q-12 24 -18 32q-5 6 -5 10q0 5 18 25q2 0 14 16q6 8 11 8q4 0 9 -9l9 -17 l12 -16q4 -7 4 -10q0 -4 -7 -11zM176 380l-28 -135q-20 -100 -20 -153q0 -30 16 -30q22 0 43 41q5 12 11 12q8 0 8 -9q0 -31 -36.5 -70t-65.5 -39q-15 0 -24 22t-9 59t15 122l21 122q2 14 2 23q0 12 -6 16t-23 4h-26q-21 0 -21 8t8.5 10t58.5 6q39 2 41 4q15 3 25 3t10 -11 v-5z" />
<glyph unicode="&#xf0;" horiz-adv-x="400" d="M361 656l-97 -52q113 -119 113 -303q0 -143 -57 -230q-23 -35 -63 -56.5t-81 -21.5q-63 0 -102.5 44.5t-39.5 116.5q0 103 56 174t137 71q54 0 86 -50q-9 133 -84 233l-99 -55q-13 -7 -20 -7q-13 0 -13 11q0 8 19 19l95 53q-28 34 -101 68q-14 7 -14 15q0 10 10 10 q17 0 62 -24.5t74 -49.5l105 58q14 7 19 7q13 0 13 -12q0 -9 -18 -19zM181 19q58 0 90 69q35 78 35 157q0 62 -20 96t-56 34q-50 0 -81 -43q-50 -68 -50 -177q0 -136 82 -136z" />
<glyph unicode="&#xf1;" horiz-adv-x="469" d="M194 468q-8 0 -8 8q0 12 19 35q32 39 61 39q13 0 37 -15q20 -13 37 -13q21 0 39 20q13 13 16 13q6 0 6 -8q0 -14 -24 -45q-26 -34 -55 -34q-18 0 -43 18q-20 14 -37 14q-19 0 -36 -22q-7 -10 -12 -10zM159 169l-18 -148q-1 -14 -8 -19t-25 -5q-25 0 -25 16q0 2 1 8 l16 126q14 111 14 135q0 47 -21 47q-9 0 -20 -11.5t-17 -27.5q-6 -18 -14 -18q-10 0 -10 14q0 34 29.5 71.5t55.5 37.5q17 0 28 -21t11 -54q0 -11 -1 -20q34 45 67 65q50 31 87 31q32 0 52 -30.5t20 -78.5q0 -34 -3 -70l-11 -127v-9q0 -25 15 -25q24 0 46 32q10 15 18 15 t8 -10q0 -25 -40.5 -61t-68.5 -36q-35 0 -35 62q0 12 2 42l12 150q1 8 1 22q0 38 -14.5 60.5t-38.5 22.5q-41 0 -72 -50.5t-41 -135.5z" />
<glyph unicode="&#xf2;" horiz-adv-x="399" d="M230 464l-69 44q-29 18 -29 39q0 15 10.5 26t24.5 11q19 0 32 -21l51 -82q7 -10 7 -16q0 -10 -8 -10q-6 0 -19 9zM32 155q0 51 19 102.5t50 86.5q50 56 125 56q66 0 104.5 -43.5t38.5 -117.5q0 -44 -16 -92.5t-41 -81.5q-25 -32 -63.5 -52t-76.5 -20q-61 0 -100.5 46 t-39.5 116zM180 20q57 0 89 69q35 78 35 157q0 62 -19.5 96t-56.5 34q-55 0 -92.5 -63t-37.5 -156q0 -66 21 -101.5t61 -35.5z" />
<glyph unicode="&#xf3;" horiz-adv-x="399" d="M337 512l-81 -48q-13 -9 -20 -9q-10 0 -10 10q0 8 11 20l52 70q22 29 40 29q15 0 25.5 -9.5t10.5 -23.5q0 -23 -28 -39zM32 155q0 51 19 102.5t50 86.5q50 56 125 56q66 0 104.5 -43.5t38.5 -117.5q0 -44 -16 -92.5t-41 -81.5q-25 -32 -63.5 -52t-76.5 -20 q-61 0 -100.5 46t-39.5 116zM180 20q57 0 89 69q35 78 35 157q0 62 -19.5 96t-56.5 34q-55 0 -92.5 -63t-37.5 -156q0 -66 21 -101.5t61 -35.5z" />
<glyph unicode="&#xf4;" horiz-adv-x="399" d="M259 523l-106 -66q-3 -3 -10 -3q-10 0 -10 8q0 3 8 11l130 123l64 -126q4 -7 4 -9q0 -7 -8 -7q-5 0 -8 3zM32 155q0 51 19 102.5t50 86.5q50 56 125 56q66 0 104.5 -43.5t38.5 -117.5q0 -44 -16 -92.5t-41 -81.5q-25 -32 -63.5 -52t-76.5 -20q-61 0 -100.5 46t-39.5 116z M180 20q57 0 89 69q35 78 35 157q0 62 -19.5 96t-56.5 34q-55 0 -92.5 -63t-37.5 -156q0 -66 21 -101.5t61 -35.5z" />
<glyph unicode="&#xf5;" horiz-adv-x="399" d="M162 468q-8 0 -8 8q0 12 19 35q32 39 61 39q13 0 37 -15q20 -13 37 -13q21 0 39 20q13 13 16 13q6 0 6 -8q0 -14 -24 -45q-26 -34 -55 -34q-18 0 -43 18q-20 14 -37 14q-19 0 -36 -22q-8 -10 -12 -10zM32 155q0 51 19 102.5t50 86.5q50 56 125 56q66 0 104.5 -43.5 t38.5 -117.5q0 -44 -16 -92.5t-41 -81.5q-25 -32 -63.5 -52t-76.5 -20q-61 0 -100.5 46t-39.5 116zM180 20q57 0 89 69q35 78 35 157q0 62 -19.5 96t-56.5 34q-55 0 -92.5 -63t-37.5 -156q0 -66 21 -101.5t61 -35.5z" />
<glyph unicode="&#xf6;" horiz-adv-x="399" d="M348 541l12 -16q4 -7 4 -10q0 -4 -7 -11q-17 -17 -27 -30q-6 -7 -10 -7q-6 0 -10 9q-6 12 -18 32q-5 6 -5 10q0 5 18 25q4 3 14 16q6 8 11 8q4 0 9 -9zM204 490l-13 -16q-6 -7 -10 -7q-5 0 -10 9q-12 24 -18 32q-5 6 -5 10q0 5 18 25q2 0 14 16q6 8 11 8t9 -9l9 -17 l12 -16q4 -7 4 -10q0 -4 -7 -11zM32 155q0 51 19 102.5t50 86.5q50 56 125 56q66 0 104.5 -43.5t38.5 -117.5q0 -44 -16 -92.5t-41 -81.5q-25 -32 -63.5 -52t-76.5 -20q-61 0 -100.5 46t-39.5 116zM180 20q57 0 89 69q35 78 35 157q0 62 -19.5 96t-56.5 34q-55 0 -92.5 -63 t-37.5 -156q0 -66 21 -101.5t61 -35.5z" />
<glyph unicode="&#xf7;" d="M269 429q-11 0 -31.5 23.5t-20.5 35.5q0 13 19.5 35t30.5 21t29.5 -23.5t18.5 -34.5q0 -11 -18.5 -34t-27.5 -23zM167 302l-57 -1q-6 0 -16 -1t-11 -1q-16 0 -16 10q0 4 11 35q4 12 22 12h13q10 0 76 -2.5t79 -2.5h122l56 -1q20 0 20 -12q0 -6 -12 -22q-10 -14 -14 -16 t-16 -2q-6 0 -49 1q-47 2 -114 2q-21 0 -48.5 0.5t-45.5 0.5zM217 169q0 12 19.5 34t30.5 21t29.5 -23t18.5 -34t-18.5 -34.5t-27.5 -22.5q-11 0 -31.5 23.5t-20.5 35.5z" />
<glyph unicode="&#xf8;" horiz-adv-x="400" d="M82 28l-34 -42q-7 -7 -13 -7t-11 5t-5 10t5 12l38 45q-30 45 -30 104q0 50 19 101.5t50 87.5q51 56 127 56q55 0 93 -34l34 41q6 8 14 8q5 0 10 -5t5 -10q0 -7 -5 -12l-37 -45q27 -40 27 -102q0 -102 -57 -177q-24 -31 -62 -51t-75 -20q-52 0 -93 35zM103 102l188 227 q-21 47 -63 47q-56 0 -93 -63t-37 -158q0 -28 5 -53zM114 66q22 -46 67 -46q56 0 88 69q35 73 35 166q0 17 -3 38z" />
<glyph unicode="&#xf9;" horiz-adv-x="473" d="M256 464l-69 44q-29 18 -29 39q0 15 10.5 26t24.5 11q19 0 32 -21l51 -82q7 -10 7 -16q0 -10 -8 -10q-6 0 -19 9zM308 168l4 32q-52 -80 -88 -122q-28 -33 -64 -56t-58 -23q-15 0 -24 17t-9 45q0 37 12 97l19 101q7 40 7 52q0 20 -11 20q-9 0 -22 -14t-20 -33 q-8 -17 -16 -17q-9 0 -9 12q0 39 33.5 78.5t66.5 39.5q17 0 27.5 -17.5t10.5 -45.5q0 -21 -2 -31l-28 -168q-7 -47 -7 -61q0 -20 15 -20q17 0 53.5 38t71.5 91q53 82 80 181q4 18 10 23.5t19 5.5q26 0 26 -20q0 -4 -2 -12l-24 -113q-24 -116 -24 -163q0 -25 20 -25 q28 0 57 54q6 12 14 12q10 0 10 -11q0 -36 -45 -77t-85 -41q-14 0 -23 14t-9 37q0 38 14 120z" />
<glyph unicode="&#xfa;" horiz-adv-x="473" d="M363 512l-81 -48q-14 -9 -20 -9q-10 0 -10 10q0 8 11 20l52 70q22 29 40 29q15 0 25.5 -9.5t10.5 -23.5q0 -23 -28 -39zM308 168l4 32q-52 -80 -88 -122q-28 -33 -64 -56t-58 -23q-15 0 -24 17t-9 45q0 37 12 97l19 101q7 40 7 52q0 20 -11 20q-9 0 -22 -14t-20 -33 q-8 -17 -16 -17q-9 0 -9 12q0 39 33.5 78.5t66.5 39.5q17 0 27.5 -17.5t10.5 -45.5q0 -21 -2 -31l-28 -168q-7 -47 -7 -61q0 -20 15 -20q17 0 53.5 38t71.5 91q53 82 80 181q4 18 10 23.5t19 5.5q26 0 26 -20q0 -4 -2 -12l-24 -113q-24 -116 -24 -163q0 -25 20 -25 q28 0 57 54q6 12 14 12q10 0 10 -11q0 -36 -45 -77t-85 -41q-14 0 -23 14t-9 37q0 38 14 120z" />
<glyph unicode="&#xfb;" horiz-adv-x="473" d="M289 523l-106 -66q-3 -3 -10 -3q-10 0 -10 8q0 3 8 11l130 123l64 -126q4 -7 4 -9q0 -7 -8 -7q-5 0 -8 3zM308 168l4 32q-52 -80 -88 -122q-28 -33 -64 -56t-58 -23q-15 0 -24 17t-9 45q0 37 12 97l19 101q7 40 7 52q0 20 -11 20q-9 0 -22 -14t-20 -33q-8 -17 -16 -17 q-9 0 -9 12q0 39 33.5 78.5t66.5 39.5q17 0 27.5 -17.5t10.5 -45.5q0 -21 -2 -31l-28 -168q-7 -47 -7 -61q0 -20 15 -20q17 0 53.5 38t71.5 91q53 82 80 181q4 18 10 23.5t19 5.5q26 0 26 -20q0 -4 -2 -12l-24 -113q-24 -116 -24 -163q0 -25 20 -25q28 0 57 54q6 12 14 12 q10 0 10 -11q0 -36 -45 -77t-85 -41q-14 0 -23 14t-9 37q0 38 14 120z" />
<glyph unicode="&#xfc;" horiz-adv-x="473" d="M375 541l12 -16q4 -7 4 -10q0 -4 -7 -11q-16 -17 -27 -30q-6 -7 -10 -7q-5 0 -10 9q-6 12 -18 32q-5 6 -5 10q0 5 18 25q4 3 14 16q6 8 11 8t9 -9zM231 490l-13 -16q-6 -7 -10 -7q-6 0 -10 9q-12 24 -18 32q-5 6 -5 10q0 5 18 25q2 0 14 16q6 8 11 8q4 0 9 -9l9 -17 l12 -16q4 -7 4 -10q0 -4 -7 -11zM308 168l4 32q-52 -80 -88 -122q-28 -33 -64 -56t-58 -23q-15 0 -24 17t-9 45q0 37 12 97l19 101q7 40 7 52q0 20 -11 20q-9 0 -22 -14t-20 -33q-8 -17 -16 -17q-9 0 -9 12q0 39 33.5 78.5t66.5 39.5q17 0 27.5 -17.5t10.5 -45.5 q0 -21 -2 -31l-28 -168q-7 -47 -7 -61q0 -20 15 -20q17 0 53.5 38t71.5 91q53 82 80 181q4 18 10 23.5t19 5.5q26 0 26 -20q0 -4 -2 -12l-24 -113q-24 -116 -24 -163q0 -25 20 -25q28 0 57 54q6 12 14 12q10 0 10 -11q0 -36 -45 -77t-85 -41q-14 0 -23 14t-9 37q0 38 14 120 z" />
<glyph unicode="&#xfd;" horiz-adv-x="353" d="M290 512l-81 -48q-13 -9 -20 -9q-10 0 -10 10q0 8 11 20l52 70q22 29 40 29q15 0 25.5 -9.5t10.5 -23.5q0 -23 -28 -39zM214 199l31 -74q30 94 30 165q0 20 -11 44q-10 20 -10 32q0 30 25 30q16 0 26 -16.5t10 -43.5q0 -35 -18 -121t-38 -144q-37 -110 -83 -175 q-21 -30 -51.5 -48t-58.5 -18q-25 0 -43 14.5t-18 34.5q0 12 7 20t18 8q12 0 31 -13q21 -14 34 -14q31 0 64 44q51 69 51 110q0 20 -20.5 77.5t-46.5 111.5q-50 103 -82 103q-18 0 -28 -13.5t-17 -45.5q-2 -8 -9 -8q-9 0 -9 22q0 25 11 58q20 54 60 54q31 0 69 -51t76 -143z " />
<glyph unicode="&#xfe;" horiz-adv-x="448" d="M70 -86l53 437q-23 -7 -53 -18q-8 -2 -9 -2q-4 0 -4 4q0 9 5.5 13t32.5 15q12 5 19 8l12 5l30 242q3 22 3 25q0 18 -27 18h-25q-20 0 -20 9q0 8 8 9.5t55 5.5q34 4 38 5q15 3 23 3q9 0 9 -12v-5l-35 -287q48 8 73 8q75 0 119 -36t44 -97q0 -58 -31 -119t-79 -97 q-59 -45 -123 -45q-19 0 -25 1q-14 2 -15 2q-6 0 -8.5 -4t-4.5 -20l-10 -73l-1 -17q-1 -18 9 -25t39 -11q19 -2 24.5 -4.5t5.5 -8.5q0 -13 -20 -13q-10 0 -30 3q-26 2 -44 2q-3 0 -57 -4l-14 -1q-20 -2 -20 14q0 8 13 11q23 5 29 14.5t11 44.5zM144 55q-1 -14 10 -20.5 t35 -6.5q66 0 121 71q44 59 44 150q0 56 -34 87t-97 31q-15 0 -42 -4l-36 -293z" />
<glyph unicode="&#xff;" horiz-adv-x="353" d="M291 541l12 -16q4 -7 4 -10q0 -4 -7 -11q-16 -17 -27 -30q-6 -7 -10 -7q-5 0 -10 9q-6 12 -18 32q-5 6 -5 10q0 5 18 25q4 3 14 16q6 8 11 8t9 -9zM147 490l-13 -16q-6 -7 -10 -7q-6 0 -10 9q-12 24 -18 32q-5 6 -5 10q0 5 18 25q2 0 14 16q6 8 11 8q4 0 9 -9l9 -17 l12 -16q4 -7 4 -10q0 -4 -7 -11zM214 199l31 -74q30 94 30 165q0 20 -11 44q-10 20 -10 32q0 30 25 30q16 0 26 -16.5t10 -43.5q0 -35 -18 -121t-38 -144q-37 -110 -83 -175q-21 -30 -51.5 -48t-58.5 -18q-25 0 -43 14.5t-18 34.5q0 12 7 20t18 8q12 0 31 -13q21 -14 34 -14 q31 0 64 44q51 69 51 110q0 20 -20.5 77.5t-46.5 111.5q-50 103 -82 103q-18 0 -28 -13.5t-17 -45.5q-2 -8 -9 -8q-9 0 -9 22q0 25 11 58q20 54 60 54q31 0 69 -51t76 -143z" />
<glyph unicode="&#x152;" horiz-adv-x="990" d="M620 299l-26 -210q-1 -5 -1 -11q0 -24 15 -31.5t64 -7.5q116 0 182 21q25 8 50 25t35 33q12 18 20 18q9 0 9 -10q0 -17 -17 -48t-39 -53q-16 -17 -35 -22.5t-60 -5.5q-34 0 -85 4q-51 3 -88 3q-54 0 -226 -11q-36 -3 -59 -3q-65 0 -124.5 22.5t-98.5 62.5 q-38 39 -59.5 97.5t-21.5 122.5q0 157 103.5 269.5t246.5 112.5q27 0 73 -6q49 -7 85 -7h34q22 0 59.5 0.5t53.5 0.5q114 0 156 3q86 4 87 4q19 0 26 -3t7 -11l-1 -48l2 -74q0 -15 -11 -15q-12 0 -13 20q-4 54 -31 70t-114 16h-68q-2 0 -9.5 0.5t-22 1t-29.5 0.5 q-19 0 -25 -6t-8 -26l-27 -224q0 -7 3.5 -8.5t17.5 -1.5h136q35 0 54.5 14t27.5 46q3 12 11 12q9 0 9 -13q0 -10 -6 -46q-5 -28 -7 -47q-1 -7 -3 -40q-2 -36 -4.5 -46.5t-9.5 -10.5t-8.5 5t-2.5 30q-3 54 -77 54h-116q-22 0 -27 -3t-7 -19zM528 118l51 421q1 6 1 17 q0 39 -32 58q-24 16 -65.5 26t-80.5 10q-119 0 -191 -92q-78 -101 -78 -247q0 -130 69.5 -211.5t179.5 -81.5q81 0 121 34q19 16 25 66z" />
<glyph unicode="&#x153;" horiz-adv-x="620" d="M33 157q0 90 54 168q24 35 62 55t79 20q91 0 130 -86q75 86 149 86q35 0 59.5 -21t24.5 -51q0 -27 -21 -54t-56 -46q-57 -31 -140 -31q-11 0 -19 1q-2 -26 -2 -33q0 -52 32.5 -86.5t81.5 -34.5q60 0 93 35q13 13 19 13q7 0 7 -9q0 -18 -31 -42q-60 -48 -123 -48 q-80 0 -121 68q-67 -68 -137 -68q-63 0 -102 45.5t-39 118.5zM358 214q40 3 63 8q48 12 80 42t32 64q0 22 -12.5 34.5t-33.5 12.5q-45 0 -87 -56q-27 -35 -42 -105zM100 150q0 -60 21.5 -94.5t58.5 -34.5q67 0 101 97q22 61 22 130q0 124 -72 127q-28 1 -56 -18.5t-44 -51.5 q-31 -62 -31 -155z" />
<glyph unicode="&#x178;" horiz-adv-x="562" d="M473 820l12 -17q5 -8 5 -11q0 -4 -8 -12q-16 -16 -28 -32q-7 -8 -11 -8q-6 0 -12 10q-13 27 -19 34q-5 8 -5 11q0 6 20 27l14 18q7 9 12 9t10 -9zM307 820l12 -17q5 -8 5 -11q0 -4 -8 -12q-15 -15 -28 -32q-7 -8 -11 -8q-6 0 -12 10q-9 21 -19 34q-5 8 -5 11q0 6 20 27 l14 18q7 9 12 9t10 -9zM334 261l-19 -159q-2 -20 -2 -29q0 -44 45 -52q28 -5 28 -14q0 -10 -15 -10q-6 0 -26 2q-24 3 -58 3t-79 -4q-3 -1 -8 -1q-17 0 -17 10q0 7 17 12q27 8 34 19.5t12 51.5l22 182q2 14 2 20q0 12 -17 46l-114 237q-21 44 -36.5 58t-43.5 16 q-21 1 -21 11t16 10q5 0 27 -2q33 -3 63 -3q42 0 63 2q26 3 33 3q16 0 16 -10q0 -8 -18 -11q-31 -3 -31 -29q0 -21 16 -54l92 -202q7 -16 11 -16q5 0 34 41q7 9 104 160q30 45 30 68q0 26 -43 29q-23 1 -23 13q0 11 17 11q5 0 23 -2q24 -3 55 -3q34 0 52 2q18 3 27 3 q12 0 12 -10q0 -9 -17 -13q-25 -6 -39 -21t-54 -79q-5 -8 -19.5 -29.5t-22.5 -33.5q-36 -52 -48 -71q-32 -50 -46 -67q-19 -24 -24.5 -37.5t-9.5 -47.5z" />
<glyph unicode="&#x2c6;" d="M306 523l-106 -66q-3 -3 -10 -3q-10 0 -10 8q0 3 8 11l130 123l64 -126q4 -7 4 -9q0 -7 -8 -7q-5 0 -8 3z" />
<glyph unicode="&#x2dc;" d="M190 468q-8 0 -8 8q0 12 19 35q32 39 61 39q13 0 37 -15q20 -13 37 -13q21 0 39 20q13 13 16 13q6 0 6 -8q0 -14 -24 -45q-26 -34 -55 -34q-18 0 -43 18q-20 14 -37 14q-19 0 -36 -22q-8 -10 -12 -10z" />
<glyph unicode="&#x2000;" horiz-adv-x="434" />
<glyph unicode="&#x2001;" horiz-adv-x="868" />
<glyph unicode="&#x2002;" horiz-adv-x="434" />
<glyph unicode="&#x2003;" horiz-adv-x="868" />
<glyph unicode="&#x2004;" horiz-adv-x="289" />
<glyph unicode="&#x2005;" horiz-adv-x="217" />
<glyph unicode="&#x2006;" horiz-adv-x="144" />
<glyph unicode="&#x2007;" horiz-adv-x="144" />
<glyph unicode="&#x2008;" horiz-adv-x="108" />
<glyph unicode="&#x2009;" horiz-adv-x="173" />
<glyph unicode="&#x200a;" horiz-adv-x="48" />
<glyph unicode="&#x2010;" horiz-adv-x="153" d="M7 150q-9 0 -9 18q0 25 8.5 32t46.5 16q43 11 80 27q12 7 18 6q7 -1 7 -15q0 -22 -6.5 -31t-24.5 -14q-35 -7 -108 -36q-6 -3 -12 -3z" />
<glyph unicode="&#x2011;" horiz-adv-x="153" d="M7 150q-9 0 -9 18q0 25 8.5 32t46.5 16q43 11 80 27q12 7 18 6q7 -1 7 -15q0 -22 -6.5 -31t-24.5 -14q-35 -7 -108 -36q-6 -3 -12 -3z" />
<glyph unicode="&#x2012;" horiz-adv-x="153" d="M7 150q-9 0 -9 18q0 25 8.5 32t46.5 16q43 11 80 27q12 7 18 6q7 -1 7 -15q0 -22 -6.5 -31t-24.5 -14q-35 -7 -108 -36q-6 -3 -12 -3z" />
<glyph unicode="&#x2013;" d="M82 173q-23 0 -30.5 4t-7.5 17q0 14 13 25q11 8 38 8h326q23 0 30.5 -4t7.5 -17q0 -14 -13 -25q-11 -8 -38 -8h-326z" />
<glyph unicode="&#x2014;" horiz-adv-x="487" d="M41 173q-23 0 -31.5 5t-8.5 19q0 13 11 22q9 8 36 8h400q25 0 31 -5q9 -7 9 -19t-10 -22q-10 -8 -37 -8h-400z" />
<glyph unicode="&#x2018;" horiz-adv-x="224" d="M157 431q-17 0 -37 31q-18 29 -18 69q0 57 50 116q41 48 59 46q4 0 7.5 -3.5t3.5 -7.5q0 -5 -17 -22q-19 -18 -32 -44t-13 -47q0 -23 9 -38t33 -36q4 -2 4 -7q0 -6 -17 -26q-7 -7 -13 -16q-11 -15 -19 -15z" />
<glyph unicode="&#x2019;" horiz-adv-x="223" d="M126 662l12 16q11 15 19 15q7 1 18.5 -8.5t18.5 -22.5q18 -29 18 -68q0 -56 -50 -117q-40 -46 -58 -46q-4 0 -8 3.5t-4 7.5q0 5 17 22q20 19 32.5 44.5t12.5 46.5q0 23 -9 38t-33 36q-4 4 -4 7q0 6 18 26z" />
<glyph unicode="&#x201a;" horiz-adv-x="223" d="M54 74l12 16q11 15 19 15q7 1 18.5 -8.5t18.5 -22.5q18 -28 18 -68q0 -56 -50 -117q-40 -46 -58 -46q-4 0 -8 3.5t-4 7.5q0 5 17 22q20 19 32.5 44.5t12.5 46.5q0 23 -9 38t-33 36q-4 4 -4 7q0 6 18 26z" />
<glyph unicode="&#x201c;" horiz-adv-x="380" d="M345 462l-12 -16q-11 -15 -19 -15q-18 0 -38 31q-18 31 -18 69q0 57 51 116q17 21 33.5 34t24.5 12q4 0 8 -3.5t4 -7.5q0 -7 -17 -22q-20 -19 -33 -44.5t-13 -46.5q0 -23 9 -38.5t34 -35.5q4 -2 4 -7q0 -6 -18 -26zM157 431q-17 0 -37 31q-18 31 -18 69q0 57 50 116 q17 21 33.5 34t24.5 12q4 0 8 -3.5t4 -7.5q0 -5 -17 -22q-19 -18 -32 -44t-13 -47q0 -23 9 -38.5t33 -35.5q4 -2 4 -7q0 -7 -17 -26q-7 -7 -13 -16q-11 -15 -19 -15z" />
<glyph unicode="&#x201d;" horiz-adv-x="380" d="M282 662l12 16q12 15 19 15q17 2 38 -31q18 -29 18 -68q0 -57 -51 -117q-38 -46 -58 -46q-4 0 -8 3.5t-4 7.5q0 5 18 22q20 19 32.5 44.5t12.5 46.5q0 23 -9 38.5t-34 35.5q-4 4 -4 7q0 6 18 26zM126 662l12 16q11 15 19 15q7 1 18.5 -8.5t18.5 -22.5q18 -29 18 -68 q0 -58 -50 -117q-38 -46 -58 -46q-4 0 -8 3.5t-4 7.5q0 5 17 22q20 19 32.5 44.5t12.5 46.5q0 23 -9 38t-33 36q-4 4 -4 7q0 6 18 26z" />
<glyph unicode="&#x201e;" horiz-adv-x="380" d="M210 74l12 16q12 15 19 15q17 2 38 -31q18 -28 18 -68q0 -57 -51 -117q-38 -46 -58 -46q-4 0 -8 3.5t-4 7.5q0 5 18 22q20 19 32.5 44.5t12.5 46.5q0 23 -9 38.5t-34 35.5q-4 4 -4 7q0 6 18 26zM54 74l12 16q11 15 19 15q7 1 18.5 -8.5t18.5 -22.5q18 -28 18 -68 q0 -56 -50 -117q-39 -46 -58 -46q-4 0 -8 3.5t-4 7.5q0 5 17 22q20 19 32.5 44.5t12.5 46.5q0 23 -9 38t-33 36q-4 4 -4 7q0 6 18 26z" />
<glyph unicode="&#x2022;" horiz-adv-x="667" d="M335 200q-58 0 -98.5 40.5t-40.5 97.5q0 58 40.5 98.5t99.5 40.5q56 0 96.5 -41t40.5 -98t-40.5 -97.5t-97.5 -40.5z" />
<glyph unicode="&#x2026;" horiz-adv-x="677" d="M521 80l15 16q9 9 14 9t8.5 -3t18.5 -22q13 -13 17 -16q7 -7 7 -11q0 -5 -9 -13q-29 -23 -40 -37q-6 -10 -13 -10q-5 0 -11 10q-12 19 -27 33q-9 8 -9 14q0 8 12 16q16 12 17 14zM296 80l15 16q9 9 14 9q6 0 27 -25q6 -7 17 -16q7 -7 7 -11q0 -5 -9 -13q-29 -23 -40 -37 q-7 -10 -13 -10t-12 10q-10 17 -27 33q-9 8 -9 14q0 8 12 16zM70 80l15 16q9 9 14 9t8.5 -3t18.5 -22q13 -13 17 -16q7 -7 7 -11q0 -5 -9 -13q-29 -23 -40 -37q-6 -10 -13 -10q-5 0 -11 10q-12 19 -27 33q-9 8 -9 14q0 8 12 16q16 12 17 14z" />
<glyph unicode="&#x202f;" horiz-adv-x="173" />
<glyph unicode="&#x2039;" horiz-adv-x="217" d="M102 90q-17 31 -48 67q-20 24 -20 37q0 14 30 41q41 37 87 96q21 27 30 27q12 0 12 -11q0 -6 -9 -20q-24 -35 -50 -80.5t-26 -52.5t16.5 -56.5t26.5 -72.5q5 -12 5 -18q0 -5 -5 -9t-10 -4q-7 0 -12 7t-27 49z" />
<glyph unicode="&#x203a;" horiz-adv-x="217" d="M38 34q-12 0 -12 11q0 6 9 20q26 39 51 83t25 51t-18 58.5t-26 69.5q-5 12 -5 18q0 5 5 9t11 4t11 -7t28 -49q20 -35 48 -67q20 -24 20 -37q0 -14 -30 -41q-45 -42 -86 -96q-22 -27 -31 -27z" />
<glyph unicode="&#x205f;" horiz-adv-x="217" />
<glyph unicode="&#x20ac;" horiz-adv-x="754" d="M60 281l20 36h57l2 36h-70l20 36h55q25 133 112.5 210.5t212.5 77.5q52 0 109.5 -17.5t99.5 -45.5q8 -5 13 -5q2 0 13 9q3 4 9 4q10 0 10 -17v-46q0 -17 7 -73q1 -7 1 -19q0 -17 -10 -17q-11 0 -17 24q-17 64 -61 104q-80 70 -179 70q-98 0 -167 -71.5t-82 -187.5h391 l-20 -36h-374v-36h355l-20 -36h-332q11 -115 79 -188.5t163 -73.5q71 0 136.5 42.5t84.5 101.5q10 30 21 30t11 -19q0 -15 -17 -68l-1 -3q0 -3 -1 -8l-2 -10q-1 -13 -8.5 -19.5t-34.5 -21.5q-96 -54 -205 -54q-134 0 -214.5 77.5t-88.5 213.5h-78z" />
<glyph unicode="&#x2122;" horiz-adv-x="900" d="M524 545l-34 -192q-2 -14 -2 -19q0 -12 6 -17t20 -7q23 -1 23 -12q0 -13 -18 -13q-3 0 -8 1q-24 2 -36 2q-11 0 -39 -2q-5 -1 -9 -1q-16 0 -16 10t20 15q10 2 13.5 5t6.5 10q0 1 4 17l7 31l18 92q13 63 13 107q0 31 -11.5 52t-28.5 21q-2 0 -16 -2h-3q-11 0 -11 9 q0 17 35 17q48 0 57 -3q7 -3 13 -15l132 -286l119 238l26 54q4 10 18 10l42 1q16 0 16 -9q0 -5 -2.5 -6.5t-19.5 -7.5q-11 -4 -15 -15t-4 -42l-2 -244q0 -19 6 -26.5t22 -9.5q20 -4 20 -13q0 -10 -13 -10q-1 0 -4 0.5t-9 1t-12 0.5q-2 0 -10.5 0.5t-15.5 0.5q-26 0 -48 -3 h-5q-15 0 -15 10q0 8 13 11q13 4 16 9.5t3 25.5l3 209l-129 -251q-5 -10 -12 -10q-8 0 -15 13zM162 285q-18 0 -18 10q0 7 15 11q16 4 19.5 9t6.5 27l35 279v3q0 5 -9 5h-62q-45 0 -57 -29q-9 -20 -16 -20q-5 0 -9 5t-4 10q0 12 10 33q0 1 2.5 8.5t3.5 12.5q5 20 23 20 q16 0 28 -1q39 -3 117 -3q92 0 122 3q10 1 21 1q20 0 20 -18l1 -56q0 -17 -12 -17q-10 0 -13 18q-2 20 -9 26.5t-25 6.5h-74q-5 0 -6 -1t-2 -7l-33 -273q-1 -5 -1 -15q0 -21 26 -25q21 -4 21 -12q0 -11 -19 -11q-3 0 -9 1q-28 2 -41 2q-23 0 -46 -3h-6z" />
<glyph unicode="&#x25fc;" horiz-adv-x="395" d="M0 395h395v-395h-395v395z" />
</font>
</defs>
</svg>
